{
copyright = "Copyright (c) 2015, Cadson Demak (info@cadsondemak.com)";
customParameters = (
{
name = vendorID;
value = CDK;
},
{
name = description;
value = "Copyright (c) 2015, Cadson Demak (info@cadsondemak.com)";
},
{
name = license;

glyphs = (
{
glyphname = A;
lastChange = "2015-10-24 14:39:48 +0000";
layers = (
{
layerId = "DC28F4C8-A185-470C-BBB7-1A994656B146";
name = Regular;
paths = (
{
closed = 1;
nodes = (
"178 0 LINE",
"238 155 LINE",
"475 155 LINE",
"536 0 LINE",
"676 0 LINE",
"431 644 LINE",
"283 644 LINE",
"37 0 LINE"
);
},
{
closed = 1;
nodes = (
"356 518 LINE",
"455 259 LINE",
"258 259 LINE"
);
}
);
width = 713;
}
);
leftKerningGroup = A;
note = A;
rightKerningGroup = A;
unicode = 0041;
},
{
glyphname = Aacute;
lastChange = "2015-10-24 14:39:48 +0000";
layers = (
{
layerId = "DC28F4C8-A185-470C-BBB7-1A994656B146";
name = Regular;
paths = (
{
closed = 1;
nodes = (
"178 0 LINE",
"238 155 LINE",
"475 155 LINE",
"536 0 LINE",
"676 0 LINE",
"431 644 LINE",
"283 644 LINE",
"37 0 LINE"
);
},
{
closed = 1;
nodes = (
"356 518 LINE",
"455 259 LINE",
"258 259 LINE"
);
},
{
closed = 1;
nodes = (
"406 688 LINE",
"494 875 LINE",
"377 875 LINE",
"297 688 LINE"
);
}
);
width = 713;
}
);
leftKerningGroup = A;
note = Aacute;
rightKerningGroup = A;
unicode = 00C1;
},
{
glyphname = Abreve;
lastChange = "2015-10-24 14:39:48 +0000";
layers = (
{
layerId = "DC28F4C8-A185-470C-BBB7-1A994656B146";
name = Regular;
paths = (
{
closed = 1;
nodes = (
"178 0 LINE",
"238 155 LINE",
"475 155 LINE",
"536 0 LINE",
"676 0 LINE",
"431 644 LINE",
"283 644 LINE",
"37 0 LINE"
);
},
{
closed = 1;
nodes = (
"356 518 LINE",
"455 259 LINE",
"258 259 LINE"
);
},
{
closed = 1;
nodes = (
"450 688 OFFCURVE",
"515 747 OFFCURVE",
"515 845 CURVE",
"425 845 LINE",
"425 803 OFFCURVE",
"402 766 OFFCURVE",
"356 766 CURVE SMOOTH",
"311 766 OFFCURVE",
"289 803 OFFCURVE",
"289 845 CURVE",
"199 845 LINE",
"199 747 OFFCURVE",
"263 688 OFFCURVE",
"356 688 CURVE SMOOTH"
);
}
);
width = 713;
}
);
leftKerningGroup = A;
note = Abreve;
rightKerningGroup = A;
unicode = 0102;
},
{
glyphname = Abreveacute;
lastChange = "2015-10-24 14:39:47 +0000";
layers = (
{
layerId = "DC28F4C8-A185-470C-BBB7-1A994656B146";
name = Regular;
paths = (
{
closed = 1;
nodes = (
"178 0 LINE",
"238 155 LINE",
"475 155 LINE",
"536 0 LINE",
"676 0 LINE",
"431 644 LINE",
"283 644 LINE",
"37 0 LINE"
);
},
{
closed = 1;
nodes = (
"356 518 LINE",
"455 259 LINE",
"258 259 LINE"
);
},
{
closed = 1;
nodes = (
"450 688 OFFCURVE",
"521 733 OFFCURVE",
"521 844 CURVE",
"441 844 LINE",
"441 789 OFFCURVE",
"410 759 OFFCURVE",
"357 759 CURVE SMOOTH",
"303 759 OFFCURVE",
"272 789 OFFCURVE",
"272 844 CURVE",
"192 844 LINE",
"192 733 OFFCURVE",
"263 688 OFFCURVE",
"357 688 CURVE SMOOTH"
);
},
{
closed = 1;
nodes = (
"397 818 LINE",
"470 959 LINE",
"368 959 LINE",
"302 818 LINE"
);
}
);
width = 713;
}
);
leftKerningGroup = A;
note = Abreveacute;
rightKerningGroup = A;
unicode = 1EAE;
},
{
glyphname = Abrevedotbelow;
lastChange = "2015-10-24 14:39:47 +0000";
layers = (
{
layerId = "DC28F4C8-A185-470C-BBB7-1A994656B146";
name = Regular;
paths = (
{
closed = 1;
nodes = (
"178 0 LINE",
"238 155 LINE",
"475 155 LINE",
"536 0 LINE",
"676 0 LINE",
"431 644 LINE",
"283 644 LINE",
"37 0 LINE"
);
},
{
closed = 1;
nodes = (
"410 -181 LINE",
"410 -82 LINE",
"303 -82 LINE",
"303 -181 LINE"
);
},
{
closed = 1;
nodes = (
"356 518 LINE",
"455 259 LINE",
"258 259 LINE"
);
},
{
closed = 1;
nodes = (
"449 688 OFFCURVE",
"514 747 OFFCURVE",
"514 845 CURVE",
"424 845 LINE",
"424 803 OFFCURVE",
"401 766 OFFCURVE",
"355 766 CURVE SMOOTH",
"310 766 OFFCURVE",
"288 803 OFFCURVE",
"288 845 CURVE",
"198 845 LINE",
"198 747 OFFCURVE",
"262 688 OFFCURVE",
"355 688 CURVE SMOOTH"
);
}
);
width = 713;
}
);
leftKerningGroup = A;
note = Abrevedotbelow;
rightKerningGroup = A;
unicode = 1EB6;
},
{
glyphname = Abrevegrave;
lastChange = "2015-10-24 14:39:48 +0000";
layers = (
{
layerId = "DC28F4C8-A185-470C-BBB7-1A994656B146";
name = Regular;
paths = (
{
closed = 1;
nodes = (
"178 0 LINE",
"238 155 LINE",
"475 155 LINE",
"536 0 LINE",
"676 0 LINE",
"431 644 LINE",
"283 644 LINE",
"37 0 LINE"
);
},
{
closed = 1;
nodes = (
"356 518 LINE",
"455 259 LINE",
"258 259 LINE"
);
},
{
closed = 1;
nodes = (
"450 688 OFFCURVE",
"521 733 OFFCURVE",
"521 844 CURVE",
"441 844 LINE",
"441 789 OFFCURVE",
"410 759 OFFCURVE",
"356 759 CURVE SMOOTH",
"303 759 OFFCURVE",
"272 789 OFFCURVE",
"272 844 CURVE",
"192 844 LINE",
"192 733 OFFCURVE",
"263 688 OFFCURVE",
"356 688 CURVE SMOOTH"
);
},
{
closed = 1;
nodes = (
"411 818 LINE",
"345 959 LINE",
"243 959 LINE",
"316 818 LINE"
);
}
);
width = 713;
}
);
leftKerningGroup = A;
note = Abrevegrave;
rightKerningGroup = A;
unicode = 1EB0;
},
{
glyphname = Abrevehookabove;
lastChange = "2015-10-24 14:39:47 +0000";
layers = (
{
layerId = "DC28F4C8-A185-470C-BBB7-1A994656B146";
name = Regular;
paths = (
{
closed = 1;
nodes = (
"178 0 LINE",
"238 155 LINE",
"475 155 LINE",
"536 0 LINE",
"676 0 LINE",
"431 644 LINE",
"283 644 LINE",
"37 0 LINE"
);
},
{
closed = 1;
nodes = (
"356 518 LINE",
"455 259 LINE",
"258 259 LINE"
);
},
{
closed = 1;
nodes = (
"450 688 OFFCURVE",
"521 733 OFFCURVE",
"521 844 CURVE",
"441 844 LINE",
"441 789 OFFCURVE",
"410 759 OFFCURVE",
"357 759 CURVE SMOOTH",
"303 759 OFFCURVE",
"272 789 OFFCURVE",
"272 844 CURVE",
"192 844 LINE",
"192 733 OFFCURVE",
"263 688 OFFCURVE",
"357 688 CURVE SMOOTH"
);
},
{
closed = 1;
nodes = (
"399 827 LINE",
"399 859 LINE",
"454 870 OFFCURVE",
"475 893 OFFCURVE",
"475 937 CURVE SMOOTH",
"475 985 OFFCURVE",
"437 1017 OFFCURVE",
"370 1017 CURVE SMOOTH",
"337 1017 OFFCURVE",
"304 1012 OFFCURVE",
"282 1005 CURVE",
"282 948 LINE",
"298 955 OFFCURVE",
"316 960 OFFCURVE",
"336 960 CURVE SMOOTH",
"370 960 OFFCURVE",
"386 953 OFFCURVE",
"386 928 CURVE SMOOTH",
"386 904 OFFCURVE",
"368 890 OFFCURVE",
"307 887 CURVE",
"307 827 LINE"
);
}
);
width = 713;
}
);
leftKerningGroup = A;
note = Abrevehookabove;
rightKerningGroup = A;
unicode = 1EB2;
},
{
glyphname = Abrevetilde;
lastChange = "2015-10-24 14:39:47 +0000";
layers = (
{
layerId = "DC28F4C8-A185-470C-BBB7-1A994656B146";
name = Regular;
paths = (
{
closed = 1;
nodes = (
"178 0 LINE",
"238 155 LINE",
"475 155 LINE",
"536 0 LINE",
"676 0 LINE",
"431 644 LINE",
"283 644 LINE",
"37 0 LINE"
);
},
{
closed = 1;
nodes = (
"356 518 LINE",
"455 259 LINE",
"258 259 LINE"
);
},
{
closed = 1;
nodes = (
"450 688 OFFCURVE",
"521 733 OFFCURVE",
"521 844 CURVE",
"441 844 LINE",
"441 789 OFFCURVE",
"410 759 OFFCURVE",
"357 759 CURVE SMOOTH",
"303 759 OFFCURVE",
"272 789 OFFCURVE",
"272 844 CURVE",
"192 844 LINE",
"192 733 OFFCURVE",
"263 688 OFFCURVE",
"357 688 CURVE SMOOTH"
);
},
{
closed = 1;
nodes = (
"480 865 OFFCURVE",
"510 879 OFFCURVE",
"523 897 CURVE",
"523 983 LINE",
"506 959 OFFCURVE",
"478 945 OFFCURVE",
"440 945 CURVE SMOOTH",
"384 945 OFFCURVE",
"340 985 OFFCURVE",
"279 985 CURVE SMOOTH",
"244 985 OFFCURVE",
"210 972 OFFCURVE",
"192 954 CURVE",
"192 868 LINE",
"215 893 OFFCURVE",
"245 905 OFFCURVE",
"282 905 CURVE SMOOTH",
"331 905 OFFCURVE",
"384 865 OFFCURVE",
"443 865 CURVE SMOOTH"
);
}
);
width = 713;
}
);
leftKerningGroup = A;
note = Abrevetilde;
rightKerningGroup = A;
unicode = 1EB4;
},
{
glyphname = Acaron;
lastChange = "2015-10-24 14:39:48 +0000";
layers = (
{
layerId = "DC28F4C8-A185-470C-BBB7-1A994656B146";
name = Regular;
paths = (
{
closed = 1;
nodes = (
"178 0 LINE",
"238 155 LINE",
"475 155 LINE",
"536 0 LINE",
"676 0 LINE",
"431 644 LINE",
"283 644 LINE",
"37 0 LINE"
);
},
{
closed = 1;
nodes = (
"356 518 LINE",
"455 259 LINE",
"258 259 LINE"
);
},
{
closed = 1;
nodes = (
"399 688 LINE",
"534 862 LINE",
"430 862 LINE",
"356 762 LINE",
"284 862 LINE",
"178 862 LINE",
"313 688 LINE"
);
}
);
width = 713;
}
);
leftKerningGroup = A;
note = Acaron;
rightKerningGroup = A;
unicode = 01CD;
},
{
glyphname = Acircumflex;
lastChange = "2015-10-24 14:39:48 +0000";
layers = (
{
layerId = "DC28F4C8-A185-470C-BBB7-1A994656B146";
name = Regular;
paths = (
{
closed = 1;
nodes = (
"178 0 LINE",
"238 155 LINE",
"475 155 LINE",
"536 0 LINE",
"676 0 LINE",
"431 644 LINE",
"283 644 LINE",
"37 0 LINE"
);
},
{
closed = 1;
nodes = (
"356 518 LINE",
"455 259 LINE",
"258 259 LINE"
);
},
{
closed = 1;
nodes = (
"284 688 LINE",
"356 788 LINE",
"430 688 LINE",
"534 688 LINE",
"399 862 LINE",
"313 862 LINE",
"178 688 LINE"
);
}
);
width = 713;
}
);
leftKerningGroup = A;
note = Acircumflex;
rightKerningGroup = A;
unicode = 00C2;
},
{
glyphname = Acircumflexacute;
lastChange = "2015-10-24 14:39:47 +0000";
layers = (
{
layerId = "DC28F4C8-A185-470C-BBB7-1A994656B146";
name = Regular;
paths = (
{
closed = 1;
nodes = (
"178 0 LINE",
"238 155 LINE",
"475 155 LINE",
"536 0 LINE",
"676 0 LINE",
"431 644 LINE",
"283 644 LINE",
"37 0 LINE"
);
},
{
closed = 1;
nodes = (
"356 518 LINE",
"455 259 LINE",
"258 259 LINE"
);
},
{
closed = 1;
nodes = (
"285 688 LINE",
"352 769 LINE",
"420 688 LINE",
"529 688 LINE",
"403 823 LINE",
"300 823 LINE",
"174 688 LINE"
);
},
{
closed = 1;
nodes = (
"548 805 LINE",
"621 946 LINE",
"519 946 LINE",
"453 805 LINE"
);
}
);
width = 713;
}
);
leftKerningGroup = A;
note = Acircumflexacute;
rightKerningGroup = A;
unicode = 1EA4;
},
{
glyphname = Acircumflexdotbelow;
lastChange = "2015-10-24 14:39:47 +0000";
layers = (
{
layerId = "DC28F4C8-A185-470C-BBB7-1A994656B146";
name = Regular;
paths = (
{
closed = 1;
nodes = (
"178 0 LINE",
"238 155 LINE",
"475 155 LINE",
"536 0 LINE",
"676 0 LINE",
"431 644 LINE",
"283 644 LINE",
"37 0 LINE"
);
},
{
closed = 1;
nodes = (
"410 -181 LINE",
"410 -82 LINE",
"303 -82 LINE",
"303 -181 LINE"
);
},
{
closed = 1;
nodes = (
"356 518 LINE",
"455 259 LINE",
"258 259 LINE"
);
},
{
closed = 1;
nodes = (
"284 688 LINE",
"356 788 LINE",
"430 688 LINE",
"534 688 LINE",
"399 862 LINE",
"313 862 LINE",
"178 688 LINE"
);
}
);
width = 713;
}
);
leftKerningGroup = A;
note = Acircumflexdotbelow;
rightKerningGroup = A;
unicode = 1EAC;
},
{
glyphname = Acircumflexgrave;
lastChange = "2015-10-24 14:39:48 +0000";
layers = (
{
layerId = "DC28F4C8-A185-470C-BBB7-1A994656B146";
name = Regular;
paths = (
{
closed = 1;
nodes = (
"178 0 LINE",
"238 155 LINE",
"475 155 LINE",
"536 0 LINE",
"676 0 LINE",
"431 644 LINE",
"283 644 LINE",
"37 0 LINE"
);
},
{
closed = 1;
nodes = (
"356 518 LINE",
"455 259 LINE",
"258 259 LINE"
);
},
{
closed = 1;
nodes = (
"254 805 LINE",
"188 946 LINE",
"86 946 LINE",
"159 805 LINE"
);
},
{
closed = 1;
nodes = (
"287 688 LINE",
"355 769 LINE",
"422 688 LINE",
"533 688 LINE",
"407 823 LINE",
"304 823 LINE",
"178 688 LINE"
);
}
);
width = 713;
}
);
leftKerningGroup = A;
note = Acircumflexgrave;
rightKerningGroup = A;
unicode = 1EA6;
},
{
glyphname = Acircumflexhookabove;
lastChange = "2015-10-24 14:39:48 +0000";
layers = (
{
layerId = "DC28F4C8-A185-470C-BBB7-1A994656B146";
name = Regular;
paths = (
{
closed = 1;
nodes = (
"178 0 LINE",
"238 155 LINE",
"475 155 LINE",
"536 0 LINE",
"676 0 LINE",
"431 644 LINE",
"283 644 LINE",
"37 0 LINE"
);
},
{
closed = 1;
nodes = (
"356 518 LINE",
"455 259 LINE",
"258 259 LINE"
);
},
{
closed = 1;
nodes = (
"289 688 LINE",
"356 769 LINE",
"424 688 LINE",
"533 688 LINE",
"407 823 LINE",
"304 823 LINE",
"178 688 LINE"
);
},
{
closed = 1;
nodes = (
"559 783 LINE",
"559 817 LINE",
"612 825 OFFCURVE",
"635 852 OFFCURVE",
"635 896 CURVE SMOOTH",
"635 944 OFFCURVE",
"595 977 OFFCURVE",
"525 977 CURVE SMOOTH",
"488 977 OFFCURVE",
"463 972 OFFCURVE",
"442 965 CURVE",
"442 903 LINE",
"457 910 OFFCURVE",
"475 915 OFFCURVE",
"496 915 CURVE SMOOTH",
"526 915 OFFCURVE",
"541 908 OFFCURVE",
"541 888 CURVE SMOOTH",
"541 866 OFFCURVE",
"528 856 OFFCURVE",
"466 853 CURVE",
"466 783 LINE"
);
}
);
width = 713;
}
);
leftKerningGroup = A;
note = Acircumflexhookabove;
rightKerningGroup = A;
unicode = 1EA8;
},
{
glyphname = Acircumflextilde;
lastChange = "2015-10-24 14:39:47 +0000";
layers = (
{
layerId = "DC28F4C8-A185-470C-BBB7-1A994656B146";
name = Regular;
paths = (
{
closed = 1;
nodes = (
"178 0 LINE",
"238 155 LINE",
"475 155 LINE",
"536 0 LINE",
"676 0 LINE",
"431 644 LINE",
"283 644 LINE",
"37 0 LINE"
);
},
{
closed = 1;
nodes = (
"356 518 LINE",
"455 259 LINE",
"258 259 LINE"
);
},
{
closed = 1;
nodes = (
"289 688 LINE",
"356 769 LINE",
"424 688 LINE",
"533 688 LINE",
"407 823 LINE",
"304 823 LINE",
"178 688 LINE"
);
},
{
closed = 1;
nodes = (
"487 838 OFFCURVE",
"517 852 OFFCURVE",
"530 870 CURVE",
"530 956 LINE",
"513 932 OFFCURVE",
"485 918 OFFCURVE",
"447 918 CURVE SMOOTH",
"391 918 OFFCURVE",
"347 958 OFFCURVE",
"286 958 CURVE SMOOTH",
"251 958 OFFCURVE",
"217 945 OFFCURVE",
"199 927 CURVE",
"199 841 LINE",
"222 866 OFFCURVE",
"252 878 OFFCURVE",
"289 878 CURVE SMOOTH",
"338 878 OFFCURVE",
"391 838 OFFCURVE",
"450 838 CURVE SMOOTH"
);
}
);
width = 713;
}
);
leftKerningGroup = A;
note = Acircumflextilde;
rightKerningGroup = A;
unicode = 1EAA;
},
{
glyphname = Adieresis;
lastChange = "2015-10-24 14:39:48 +0000";
layers = (
{
layerId = "DC28F4C8-A185-470C-BBB7-1A994656B146";
name = Regular;
paths = (
{
closed = 1;
nodes = (
"178 0 LINE",
"238 155 LINE",
"475 155 LINE",
"536 0 LINE",
"676 0 LINE",
"431 644 LINE",
"283 644 LINE",
"37 0 LINE"
);
},
{
closed = 1;
nodes = (
"356 518 LINE",
"455 259 LINE",
"258 259 LINE"
);
},
{
closed = 1;
nodes = (
"311 712 LINE",
"311 810 LINE",
"205 810 LINE",
"205 712 LINE"
);
},
{
closed = 1;
nodes = (
"507 712 LINE",
"507 810 LINE",
"401 810 LINE",
"401 712 LINE"
);
}
);
width = 713;
}
);
leftKerningGroup = A;
note = Adieresis;
rightKerningGroup = A;
unicode = 00C4;
},
{
glyphname = Adotbelow;
lastChange = "2015-10-24 14:39:48 +0000";
layers = (
{
layerId = "DC28F4C8-A185-470C-BBB7-1A994656B146";
name = Regular;
paths = (
{
closed = 1;
nodes = (
"178 0 LINE",
"238 155 LINE",
"475 155 LINE",
"536 0 LINE",
"676 0 LINE",
"431 644 LINE",
"283 644 LINE",
"37 0 LINE"
);
},
{
closed = 1;
nodes = (
"410 -181 LINE",
"410 -82 LINE",
"303 -82 LINE",
"303 -181 LINE"
);
},
{
closed = 1;
nodes = (
"356 518 LINE",
"455 259 LINE",
"258 259 LINE"
);
}
);
width = 713;
}
);
leftKerningGroup = A;
note = Adotbelow;
rightKerningGroup = A;
unicode = 1EA0;
},
{
glyphname = Agrave;
lastChange = "2015-10-24 14:39:48 +0000";
layers = (
{
layerId = "DC28F4C8-A185-470C-BBB7-1A994656B146";
name = Regular;
paths = (
{
closed = 1;
nodes = (
"178 0 LINE",
"238 155 LINE",
"475 155 LINE",
"536 0 LINE",
"676 0 LINE",
"431 644 LINE",
"283 644 LINE",
"37 0 LINE"
);
},
{
closed = 1;
nodes = (
"356 518 LINE",
"455 259 LINE",
"258 259 LINE"
);
},
{
closed = 1;
nodes = (
"409 688 LINE",
"329 875 LINE",
"212 875 LINE",
"300 688 LINE"
);
}
);
width = 713;
}
);
leftKerningGroup = A;
note = Agrave;
rightKerningGroup = A;
unicode = 00C0;
},
{
glyphname = Ahookabove;
lastChange = "2015-10-24 14:39:48 +0000";
layers = (
{
layerId = "DC28F4C8-A185-470C-BBB7-1A994656B146";
name = Regular;
paths = (
{
closed = 1;
nodes = (
"178 0 LINE",
"238 155 LINE",
"475 155 LINE",
"536 0 LINE",
"676 0 LINE",
"431 644 LINE",
"283 644 LINE",
"37 0 LINE"
);
},
{
closed = 1;
nodes = (
"356 518 LINE",
"455 259 LINE",
"258 259 LINE"
);
},
{
closed = 1;
nodes = (
"410 688 LINE",
"410 734 LINE",
"474 746 OFFCURVE",
"497 773 OFFCURVE",
"497 829 CURVE SMOOTH",
"497 887 OFFCURVE",
"451 925 OFFCURVE",
"366 925 CURVE SMOOTH",
"327 925 OFFCURVE",
"290 920 OFFCURVE",
"266 912 CURVE",
"266 845 LINE",
"282 852 OFFCURVE",
"309 856 OFFCURVE",
"328 856 CURVE SMOOTH",
"371 856 OFFCURVE",
"397 844 OFFCURVE",
"397 817 CURVE SMOOTH",
"397 787 OFFCURVE",
"380 773 OFFCURVE",
"307 769 CURVE",
"307 688 LINE"
);
}
);
width = 713;
}
);
leftKerningGroup = A;
note = Ahookabove;
rightKerningGroup = A;
unicode = 1EA2;
},
{
glyphname = Amacron;
lastChange = "2015-10-24 14:39:47 +0000";
layers = (
{
layerId = "DC28F4C8-A185-470C-BBB7-1A994656B146";
name = Regular;
paths = (
{
closed = 1;
nodes = (
"178 0 LINE",
"238 155 LINE",
"475 155 LINE",
"536 0 LINE",
"676 0 LINE",
"431 644 LINE",
"283 644 LINE",
"37 0 LINE"
);
},
{
closed = 1;
nodes = (
"356 518 LINE",
"455 259 LINE",
"258 259 LINE"
);
},
{
closed = 1;
nodes = (
"510 707 LINE",
"510 790 LINE",
"202 790 LINE",
"202 707 LINE"
);
}
);
width = 713;
}
);
leftKerningGroup = A;
note = Amacron;
rightKerningGroup = A;
unicode = 0100;
},
{
glyphname = Aogonek;
lastChange = "2015-10-24 14:39:47 +0000";
layers = (
{
layerId = "DC28F4C8-A185-470C-BBB7-1A994656B146";
name = Regular;
paths = (
{
closed = 1;
nodes = (
"178 0 LINE",
"238 155 LINE",
"475 155 LINE",
"536 0 LINE",
"676 0 LINE",
"431 644 LINE",
"283 644 LINE",
"37 0 LINE"
);
},
{
closed = 1;
nodes = (
"633 -220 OFFCURVE",
"667 -214 OFFCURVE",
"685 -206 CURVE",
"685 -130 LINE",
"673 -137 OFFCURVE",
"653 -141 OFFCURVE",
"636 -141 CURVE SMOOTH",
"609 -141 OFFCURVE",
"591 -132 OFFCURVE",
"591 -104 CURVE SMOOTH",
"591 -66 OFFCURVE",
"618 -30 OFFCURVE",
"658 0 CURVE",
"558 0 LINE",
"511 -32 OFFCURVE",
"485 -79 OFFCURVE",
"485 -129 CURVE SMOOTH",
"485 -191 OFFCURVE",
"539 -220 OFFCURVE",
"600 -220 CURVE SMOOTH"
);
},
{
closed = 1;
nodes = (
"356 518 LINE",
"455 259 LINE",
"258 259 LINE"
);
}
);
width = 713;
}
);
leftKerningGroup = A;
note = Aogonek;
rightKerningGroup = A;
unicode = 0104;
},
{
glyphname = Aring;
lastChange = "2015-10-24 14:39:49 +0000";
layers = (
{
layerId = "DC28F4C8-A185-470C-BBB7-1A994656B146";
name = Regular;
paths = (
{
closed = 1;
nodes = (
"178 0 LINE",
"238 155 LINE",
"475 155 LINE",
"536 0 LINE",
"676 0 LINE",
"431 644 LINE",
"283 644 LINE",
"37 0 LINE"
);
},
{
closed = 1;
nodes = (
"356 518 LINE",
"455 259 LINE",
"258 259 LINE"
);
},
{
closed = 1;
nodes = (
"434 595 OFFCURVE",
"481 647 OFFCURVE",
"481 714 CURVE SMOOTH",
"481 781 OFFCURVE",
"434 834 OFFCURVE",
"356 834 CURVE SMOOTH",
"280 834 OFFCURVE",
"232 781 OFFCURVE",
"232 714 CURVE SMOOTH",
"232 647 OFFCURVE",
"280 595 OFFCURVE",
"356 595 CURVE SMOOTH"
);
},
{
closed = 1;
nodes = (
"321 657 OFFCURVE",
"298 682 OFFCURVE",
"298 714 CURVE SMOOTH",
"298 746 OFFCURVE",
"321 771 OFFCURVE",
"356 771 CURVE SMOOTH",
"393 771 OFFCURVE",
"415 746 OFFCURVE",
"415 714 CURVE SMOOTH",
"415 682 OFFCURVE",
"393 657 OFFCURVE",
"356 657 CURVE SMOOTH"
);
}
);
width = 713;
}
);
leftKerningGroup = A;
note = Aring;
rightKerningGroup = A;
unicode = 00C5;
},
{
glyphname = Aringacute;
lastChange = "2015-10-24 14:39:47 +0000";
layers = (
{
layerId = "DC28F4C8-A185-470C-BBB7-1A994656B146";
name = Regular;
paths = (
{
closed = 1;
nodes = (
"178 0 LINE",
"238 155 LINE",
"475 155 LINE",
"536 0 LINE",
"676 0 LINE",
"431 644 LINE",
"283 644 LINE",
"37 0 LINE"
);
},
{
closed = 1;
nodes = (
"356 518 LINE",
"455 259 LINE",
"258 259 LINE"
);
},
{
closed = 1;
nodes = (
"434 595 OFFCURVE",
"481 647 OFFCURVE",
"481 714 CURVE SMOOTH",
"481 781 OFFCURVE",
"434 834 OFFCURVE",
"356 834 CURVE SMOOTH",
"280 834 OFFCURVE",
"232 781 OFFCURVE",
"232 714 CURVE SMOOTH",
"232 647 OFFCURVE",
"280 595 OFFCURVE",
"356 595 CURVE SMOOTH"
);
},
{
closed = 1;
nodes = (
"321 657 OFFCURVE",
"298 682 OFFCURVE",
"298 714 CURVE SMOOTH",
"298 746 OFFCURVE",
"321 771 OFFCURVE",
"356 771 CURVE SMOOTH",
"393 771 OFFCURVE",
"415 746 OFFCURVE",
"415 714 CURVE SMOOTH",
"415 682 OFFCURVE",
"393 657 OFFCURVE",
"356 657 CURVE SMOOTH"
);
},
{
closed = 1;
nodes = (
"402 854 LINE",
"490 1041 LINE",
"373 1041 LINE",
"293 854 LINE"
);
}
);
width = 713;
}
);
leftKerningGroup = A;
note = Aringacute;
rightKerningGroup = A;
unicode = 01FA;
},
{
glyphname = Atilde;
lastChange = "2015-10-24 14:39:48 +0000";
layers = (
{
layerId = "DC28F4C8-A185-470C-BBB7-1A994656B146";
name = Regular;
paths = (
{
closed = 1;
nodes = (
"178 0 LINE",
"238 155 LINE",
"475 155 LINE",
"536 0 LINE",
"676 0 LINE",
"431 644 LINE",
"283 644 LINE",
"37 0 LINE"
);
},
{
closed = 1;
nodes = (
"356 518 LINE",
"455 259 LINE",
"258 259 LINE"
);
},
{
closed = 1;
nodes = (
"479 689 OFFCURVE",
"509 703 OFFCURVE",
"522 721 CURVE",
"522 817 LINE",
"505 793 OFFCURVE",
"477 779 OFFCURVE",
"439 779 CURVE SMOOTH",
"383 779 OFFCURVE",
"339 819 OFFCURVE",
"278 819 CURVE SMOOTH",
"243 819 OFFCURVE",
"209 806 OFFCURVE",
"191 788 CURVE",
"191 692 LINE",
"214 717 OFFCURVE",
"244 729 OFFCURVE",
"281 729 CURVE SMOOTH",
"330 729 OFFCURVE",
"383 689 OFFCURVE",
"442 689 CURVE SMOOTH"
);
}
);
width = 713;
}
);
leftKerningGroup = A;
note = Atilde;
rightKerningGroup = A;
unicode = 00C3;
},
{
glyphname = AE;
lastChange = "2015-10-24 14:39:47 +0000";
layers = (
{
layerId = "DC28F4C8-A185-470C-BBB7-1A994656B146";
name = Regular;
paths = (
{
closed = 1;
nodes = (
"183 0 LINE",
"243 156 LINE",
"403 156 LINE",
"403 0 LINE",
"812 0 LINE",
"812 104 LINE",
"538 104 LINE",
"538 270 LINE",
"775 270 LINE",
"775 374 LINE",
"538 374 LINE",
"538 539 LINE",
"812 539 LINE",
"812 644 LINE",
"283 644 LINE",
"37 0 LINE"
);
},
{
closed = 1;
nodes = (
"377 544 LINE",
"403 544 LINE",
"403 260 LINE",
"274 260 LINE"
);
}
);
width = 849;
}
);
leftKerningGroup = A;
note = AE;
rightKerningGroup = E;
unicode = 00C6;
},
{
glyphname = AEacute;
lastChange = "2015-10-24 14:39:48 +0000";
layers = (
{
layerId = "DC28F4C8-A185-470C-BBB7-1A994656B146";
name = Regular;
paths = (
{
closed = 1;
nodes = (
"183 0 LINE",
"243 156 LINE",
"403 156 LINE",
"403 0 LINE",
"812 0 LINE",
"812 104 LINE",
"538 104 LINE",
"538 270 LINE",
"775 270 LINE",
"775 374 LINE",
"538 374 LINE",
"538 539 LINE",
"812 539 LINE",
"812 644 LINE",
"283 644 LINE",
"37 0 LINE"
);
},
{
closed = 1;
nodes = (
"377 544 LINE",
"403 544 LINE",
"403 260 LINE",
"274 260 LINE"
);
},
{
closed = 1;
nodes = (
"530 688 LINE",
"618 875 LINE",
"501 875 LINE",
"421 688 LINE"
);
}
);
width = 849;
}
);
leftKerningGroup = A;
note = AEacute;
rightKerningGroup = E;
unicode = 01FC;
},
{
glyphname = B;
lastChange = "2015-10-24 14:39:47 +0000";
layers = (
{
layerId = "DC28F4C8-A185-470C-BBB7-1A994656B146";
name = Regular;
paths = (
{
closed = 1;
nodes = (
"395 0 LINE SMOOTH",
"527 0 OFFCURVE",
"599 64 OFFCURVE",
"599 188 CURVE SMOOTH",
"599 272 OFFCURVE",
"561 311 OFFCURVE",
"501 330 CURVE",
"546 355 OFFCURVE",
"575 401 OFFCURVE",
"575 470 CURVE SMOOTH",
"575 581 OFFCURVE",
"512 644 OFFCURVE",
"383 644 CURVE SMOOTH",
"57 644 LINE",
"57 0 LINE"
);
},
{
closed = 1;
nodes = (
"192 279 LINE",
"354 279 LINE SMOOTH",
"435 279 OFFCURVE",
"462 251 OFFCURVE",
"462 194 CURVE SMOOTH",
"462 123 OFFCURVE",
"431 99 OFFCURVE",
"363 99 CURVE SMOOTH",
"192 99 LINE"
);
},
{
closed = 1;
nodes = (
"192 544 LINE",
"348 544 LINE SMOOTH",
"425 544 OFFCURVE",
"449 516 OFFCURVE",
"449 459 CURVE SMOOTH",
"449 407 OFFCURVE",
"423 377 OFFCURVE",
"358 377 CURVE SMOOTH",
"192 377 LINE"
);
}
);
width = 636;
}
);
note = B;
unicode = 0042;
},
{
glyphname = C;
lastChange = "2015-10-24 14:39:47 +0000";
layers = (
{
layerId = "DC28F4C8-A185-470C-BBB7-1A994656B146";
name = Regular;
paths = (
{
closed = 1;
nodes = (
"448 -10 OFFCURVE",
"508 1 OFFCURVE",
"563 19 CURVE",
"563 138 LINE",
"507 115 OFFCURVE",
"444 104 OFFCURVE",
"382 104 CURVE SMOOTH",
"242 104 OFFCURVE",
"174 174 OFFCURVE",
"174 316 CURVE SMOOTH",
"174 466 OFFCURVE",
"233 539 OFFCURVE",
"380 539 CURVE SMOOTH",
"446 539 OFFCURVE",
"506 527 OFFCURVE",
"562 504 CURVE",
"562 622 LINE",
"507 642 OFFCURVE",
"447 654 OFFCURVE",
"370 654 CURVE SMOOTH",
"148 654 OFFCURVE",
"37 529 OFFCURVE",
"37 316 CURVE SMOOTH",
"37 115 OFFCURVE",
"155 -10 OFFCURVE",
"371 -10 CURVE SMOOTH"
);
}
);
width = 600;
}
);
leftKerningGroup = C;
note = C;
rightKerningGroup = C;
unicode = 0043;
},
{
glyphname = Cacute;
lastChange = "2015-10-24 14:39:48 +0000";
layers = (
{
layerId = "DC28F4C8-A185-470C-BBB7-1A994656B146";
name = Regular;
paths = (
{
closed = 1;
nodes = (
"448 -10 OFFCURVE",
"508 1 OFFCURVE",
"563 19 CURVE",
"563 138 LINE",
"507 115 OFFCURVE",
"444 104 OFFCURVE",
"382 104 CURVE SMOOTH",
"242 104 OFFCURVE",
"174 174 OFFCURVE",
"174 316 CURVE SMOOTH",
"174 466 OFFCURVE",
"233 539 OFFCURVE",
"380 539 CURVE SMOOTH",
"446 539 OFFCURVE",
"506 527 OFFCURVE",
"562 504 CURVE",
"562 622 LINE",
"507 642 OFFCURVE",
"447 654 OFFCURVE",
"370 654 CURVE SMOOTH",
"148 654 OFFCURVE",
"37 529 OFFCURVE",
"37 316 CURVE SMOOTH",
"37 115 OFFCURVE",
"155 -10 OFFCURVE",
"371 -10 CURVE SMOOTH"
);
},
{
closed = 1;
nodes = (
"411 688 LINE",
"499 875 LINE",
"382 875 LINE",
"302 688 LINE"
);
}
);
width = 600;
}
);
leftKerningGroup = C;
note = Cacute;
rightKerningGroup = C;
unicode = 0106;
},
{
glyphname = Ccaron;
lastChange = "2015-10-24 14:39:48 +0000";
layers = (
{
layerId = "DC28F4C8-A185-470C-BBB7-1A994656B146";
name = Regular;
paths = (
{
closed = 1;
nodes = (
"448 -10 OFFCURVE",
"508 1 OFFCURVE",
"563 19 CURVE",
"563 138 LINE",
"507 115 OFFCURVE",
"444 104 OFFCURVE",
"382 104 CURVE SMOOTH",
"242 104 OFFCURVE",
"174 174 OFFCURVE",
"174 316 CURVE SMOOTH",
"174 466 OFFCURVE",
"233 539 OFFCURVE",
"380 539 CURVE SMOOTH",
"446 539 OFFCURVE",
"506 527 OFFCURVE",
"562 504 CURVE",
"562 622 LINE",
"507 642 OFFCURVE",
"447 654 OFFCURVE",
"370 654 CURVE SMOOTH",
"148 654 OFFCURVE",
"37 529 OFFCURVE",
"37 316 CURVE SMOOTH",
"37 115 OFFCURVE",
"155 -10 OFFCURVE",
"371 -10 CURVE SMOOTH"
);
},
{
closed = 1;
nodes = (
"416 688 LINE",
"551 862 LINE",
"447 862 LINE",
"373 762 LINE",
"301 862 LINE",
"195 862 LINE",
"330 688 LINE"
);
}
);
width = 600;
}
);
leftKerningGroup = C;
note = Ccaron;
rightKerningGroup = C;
unicode = 010C;
},
{
glyphname = Ccedilla;
lastChange = "2015-10-24 14:39:48 +0000";
layers = (
{
layerId = "DC28F4C8-A185-470C-BBB7-1A994656B146";
name = Regular;
paths = (
{
closed = 1;
nodes = (
"448 -10 OFFCURVE",
"508 1 OFFCURVE",
"563 19 CURVE",
"563 138 LINE",
"507 115 OFFCURVE",
"444 104 OFFCURVE",
"382 104 CURVE SMOOTH",
"242 104 OFFCURVE",
"174 174 OFFCURVE",
"174 316 CURVE SMOOTH",
"174 466 OFFCURVE",
"233 539 OFFCURVE",
"380 539 CURVE SMOOTH",
"446 539 OFFCURVE",
"506 527 OFFCURVE",
"562 504 CURVE",
"562 622 LINE",
"507 642 OFFCURVE",
"447 654 OFFCURVE",
"370 654 CURVE SMOOTH",
"148 654 OFFCURVE",
"37 529 OFFCURVE",
"37 316 CURVE SMOOTH",
"37 115 OFFCURVE",
"155 -10 OFFCURVE",
"371 -10 CURVE SMOOTH"
);
},
{
closed = 1;
nodes = (
"453 -240 OFFCURVE",
"500 -202 OFFCURVE",
"500 -136 CURVE SMOOTH",
"500 -80 OFFCURVE",
"465 -45 OFFCURVE",
"394 -45 CURVE",
"409 0 LINE",
"321 0 LINE",
"292 -98 LINE",
"336 -98 LINE SMOOTH",
"383 -98 OFFCURVE",
"413 -100 OFFCURVE",
"413 -135 CURVE SMOOTH",
"413 -167 OFFCURVE",
"391 -172 OFFCURVE",
"333 -172 CURVE SMOOTH",
"312 -172 OFFCURVE",
"290 -169 OFFCURVE",
"272 -164 CURVE",
"272 -232 LINE",
"287 -236 OFFCURVE",
"325 -240 OFFCURVE",
"348 -240 CURVE SMOOTH"
);
}
);
width = 600;
}
);
leftKerningGroup = C;
note = Ccedilla;
rightKerningGroup = C;
unicode = 00C7;
},
{
glyphname = Ccircumflex;
lastChange = "2015-10-24 14:39:48 +0000";
layers = (
{
layerId = "DC28F4C8-A185-470C-BBB7-1A994656B146";
name = Regular;
paths = (
{
closed = 1;
nodes = (
"448 -10 OFFCURVE",
"508 1 OFFCURVE",
"563 19 CURVE",
"563 138 LINE",
"507 115 OFFCURVE",
"444 104 OFFCURVE",
"382 104 CURVE SMOOTH",
"242 104 OFFCURVE",
"174 174 OFFCURVE",
"174 316 CURVE SMOOTH",
"174 466 OFFCURVE",
"233 539 OFFCURVE",
"380 539 CURVE SMOOTH",
"446 539 OFFCURVE",
"506 527 OFFCURVE",
"562 504 CURVE",
"562 622 LINE",
"507 642 OFFCURVE",
"447 654 OFFCURVE",
"370 654 CURVE SMOOTH",
"148 654 OFFCURVE",
"37 529 OFFCURVE",
"37 316 CURVE SMOOTH",
"37 115 OFFCURVE",
"155 -10 OFFCURVE",
"371 -10 CURVE SMOOTH"
);
},
{
closed = 1;
nodes = (
"271 688 LINE",
"343 788 LINE",
"417 688 LINE",
"521 688 LINE",
"386 862 LINE",
"300 862 LINE",
"165 688 LINE"
);
}
);
width = 600;
}
);
leftKerningGroup = C;
note = Ccircumflex;
rightKerningGroup = C;
unicode = 0108;
},
{
glyphname = Cdotaccent;
lastChange = "2015-10-24 14:39:47 +0000";
layers = (
{
layerId = "DC28F4C8-A185-470C-BBB7-1A994656B146";
name = Regular;
paths = (
{
closed = 1;
nodes = (
"448 -10 OFFCURVE",
"508 1 OFFCURVE",
"563 19 CURVE",
"563 138 LINE",
"507 115 OFFCURVE",
"444 104 OFFCURVE",
"382 104 CURVE SMOOTH",
"242 104 OFFCURVE",
"174 174 OFFCURVE",
"174 316 CURVE SMOOTH",
"174 466 OFFCURVE",
"233 539 OFFCURVE",
"380 539 CURVE SMOOTH",
"446 539 OFFCURVE",
"506 527 OFFCURVE",
"562 504 CURVE",
"562 622 LINE",
"507 642 OFFCURVE",
"447 654 OFFCURVE",
"370 654 CURVE SMOOTH",
"148 654 OFFCURVE",
"37 529 OFFCURVE",
"37 316 CURVE SMOOTH",
"37 115 OFFCURVE",
"155 -10 OFFCURVE",
"371 -10 CURVE SMOOTH"
);
},
{
closed = 1;
nodes = (
"409 713 LINE",
"409 811 LINE",
"304 811 LINE",
"304 713 LINE"
);
}
);
width = 600;
}
);
leftKerningGroup = C;
note = Cdotaccent;
rightKerningGroup = C;
unicode = 010A;
},
{
glyphname = D;
lastChange = "2015-10-24 14:39:48 +0000";
layers = (
{
layerId = "DC28F4C8-A185-470C-BBB7-1A994656B146";
name = Regular;
paths = (
{
closed = 1;
nodes = (
"327 0 LINE SMOOTH",
"523 0 OFFCURVE",
"619 98 OFFCURVE",
"619 319 CURVE SMOOTH",
"619 553 OFFCURVE",
"520 644 OFFCURVE",
"327 644 CURVE SMOOTH",
"57 644 LINE",
"57 0 LINE"
);
},
{
closed = 1;
nodes = (
"192 532 LINE",
"308 532 LINE SMOOTH",
"431 532 OFFCURVE",
"482 493 OFFCURVE",
"482 319 CURVE SMOOTH",
"482 144 OFFCURVE",
"422 104 OFFCURVE",
"308 104 CURVE SMOOTH",
"192 104 LINE"
);
}
);
width = 656;
}
);
note = D;
rightKerningGroup = D;
unicode = 0044;
},
{
glyphname = Eth;
lastChange = "2015-10-24 14:39:48 +0000";
layers = (
{
layerId = "DC28F4C8-A185-470C-BBB7-1A994656B146";
name = Regular;
paths = (
{
closed = 1;
nodes = (
"375 0 LINE SMOOTH",
"571 0 OFFCURVE",
"667 98 OFFCURVE",
"667 319 CURVE SMOOTH",
"667 553 OFFCURVE",
"568 644 OFFCURVE",
"375 644 CURVE SMOOTH",
"105 644 LINE",
"105 368 LINE",
"37 368 LINE",
"37 264 LINE",
"105 264 LINE",
"105 0 LINE"
);
},
{
closed = 1;
nodes = (
"240 264 LINE",
"389 264 LINE",
"389 368 LINE",
"240 368 LINE",
"240 532 LINE",
"356 532 LINE SMOOTH",
"479 532 OFFCURVE",
"530 493 OFFCURVE",
"530 319 CURVE SMOOTH",
"530 144 OFFCURVE",
"470 104 OFFCURVE",
"356 104 CURVE SMOOTH",
"240 104 LINE"
);
}
);
width = 704;
}
);
note = Eth;
rightKerningGroup = D;
unicode = 00D0;
},
{
glyphname = Dcaron;
lastChange = "2015-10-24 14:39:48 +0000";
layers = (
{
layerId = "DC28F4C8-A185-470C-BBB7-1A994656B146";
name = Regular;
paths = (
{
closed = 1;
nodes = (
"327 0 LINE SMOOTH",
"523 0 OFFCURVE",
"619 98 OFFCURVE",
"619 319 CURVE SMOOTH",
"619 553 OFFCURVE",
"520 644 OFFCURVE",
"327 644 CURVE SMOOTH",
"57 644 LINE",
"57 0 LINE"
);
},
{
closed = 1;
nodes = (
"192 532 LINE",
"308 532 LINE SMOOTH",
"431 532 OFFCURVE",
"482 493 OFFCURVE",
"482 319 CURVE SMOOTH",
"482 144 OFFCURVE",
"422 104 OFFCURVE",
"308 104 CURVE SMOOTH",
"192 104 LINE"
);
},
{
closed = 1;
nodes = (
"350 710 LINE",
"485 884 LINE",
"381 884 LINE",
"307 784 LINE",
"235 884 LINE",
"129 884 LINE",
"264 710 LINE"
);
}
);
width = 656;
}
);
note = Dcaron;
rightKerningGroup = D;
unicode = 010E;
},
{
glyphname = Dcroat;
lastChange = "2015-10-24 14:39:48 +0000";
layers = (
{
layerId = "DC28F4C8-A185-470C-BBB7-1A994656B146";
name = Regular;
paths = (
{
closed = 1;
nodes = (
"365 0 LINE SMOOTH",
"561 0 OFFCURVE",
"657 98 OFFCURVE",
"657 319 CURVE SMOOTH",
"657 553 OFFCURVE",
"558 644 OFFCURVE",
"365 644 CURVE SMOOTH",
"95 644 LINE",
"95 368 LINE",
"27 368 LINE",
"27 264 LINE",
"95 264 LINE",
"95 0 LINE"
);
},
{
closed = 1;
nodes = (
"230 264 LINE",
"379 264 LINE",
"379 368 LINE",
"230 368 LINE",
"230 532 LINE",
"346 532 LINE SMOOTH",
"469 532 OFFCURVE",
"520 493 OFFCURVE",
"520 319 CURVE SMOOTH",
"520 144 OFFCURVE",
"460 104 OFFCURVE",
"346 104 CURVE SMOOTH",
"230 104 LINE"
);
}
);
width = 694;
}
);
note = Dcroat;
rightKerningGroup = D;
unicode = 0110;
},
{
glyphname = Ddotbelow;
lastChange = "2015-10-24 14:39:48 +0000";
layers = (
{
layerId = "DC28F4C8-A185-470C-BBB7-1A994656B146";
name = Regular;
paths = (
{
closed = 1;
nodes = (
"327 0 LINE SMOOTH",
"523 0 OFFCURVE",
"619 98 OFFCURVE",
"619 319 CURVE SMOOTH",
"619 553 OFFCURVE",
"520 644 OFFCURVE",
"327 644 CURVE SMOOTH",
"57 644 LINE",
"57 0 LINE"
);
},
{
closed = 1;
nodes = (
"374 -181 LINE",
"374 -82 LINE",
"267 -82 LINE",
"267 -181 LINE"
);
},
{
closed = 1;
nodes = (
"192 532 LINE",
"308 532 LINE SMOOTH",
"431 532 OFFCURVE",
"482 493 OFFCURVE",
"482 319 CURVE SMOOTH",
"482 144 OFFCURVE",
"422 104 OFFCURVE",
"308 104 CURVE SMOOTH",
"192 104 LINE"
);
}
);
width = 656;
}
);
note = Ddotbelow;
rightKerningGroup = D;
unicode = 1E0C;
},
{
glyphname = Dlinebelow;
lastChange = "2015-10-24 14:39:48 +0000";
layers = (
{
layerId = "DC28F4C8-A185-470C-BBB7-1A994656B146";
name = Regular;
paths = (
{
closed = 1;
nodes = (
"327 0 LINE SMOOTH",
"523 0 OFFCURVE",
"619 98 OFFCURVE",
"619 319 CURVE SMOOTH",
"619 553 OFFCURVE",
"520 644 OFFCURVE",
"327 644 CURVE SMOOTH",
"57 644 LINE",
"57 0 LINE"
);
},
{
closed = 1;
nodes = (
"432 -182 LINE",
"432 -99 LINE",
"124 -99 LINE",
"124 -182 LINE"
);
},
{
closed = 1;
nodes = (
"192 532 LINE",
"308 532 LINE SMOOTH",
"431 532 OFFCURVE",
"482 493 OFFCURVE",
"482 319 CURVE SMOOTH",
"482 144 OFFCURVE",
"422 104 OFFCURVE",
"308 104 CURVE SMOOTH",
"192 104 LINE"
);
}
);
width = 656;
}
);
note = Dlinebelow;
rightKerningGroup = D;
unicode = 1E0E;
},
{
glyphname = E;
lastChange = "2015-10-24 14:39:48 +0000";
layers = (
{
layerId = "DC28F4C8-A185-470C-BBB7-1A994656B146";
name = Regular;
paths = (
{
closed = 1;
nodes = (
"519 0 LINE",
"519 104 LINE",
"192 104 LINE",
"192 270 LINE",
"482 270 LINE",
"482 374 LINE",
"192 374 LINE",
"192 539 LINE",
"519 539 LINE",
"519 644 LINE",
"57 644 LINE",
"57 0 LINE"
);
}
);
width = 556;
}
);
leftKerningGroup = E;
note = E;
rightKerningGroup = E;
unicode = 0045;
},
{
glyphname = Eacute;
lastChange = "2015-10-24 14:39:47 +0000";
layers = (
{
layerId = "DC28F4C8-A185-470C-BBB7-1A994656B146";
name = Regular;
paths = (
{
closed = 1;
nodes = (
"519 0 LINE",
"519 104 LINE",
"192 104 LINE",
"192 270 LINE",
"482 270 LINE",
"482 374 LINE",
"192 374 LINE",
"192 539 LINE",
"519 539 LINE",
"519 644 LINE",
"57 644 LINE",
"57 0 LINE"
);
},
{
closed = 1;
nodes = (
"331 688 LINE",
"419 875 LINE",
"302 875 LINE",
"222 688 LINE"
);
}
);
width = 556;
}
);
leftKerningGroup = E;
note = Eacute;
rightKerningGroup = E;
unicode = 00C9;
},
{
glyphname = Ebreve;
lastChange = "2015-10-24 14:39:48 +0000";
layers = (
{
layerId = "DC28F4C8-A185-470C-BBB7-1A994656B146";
name = Regular;
paths = (
{
closed = 1;
nodes = (
"519 0 LINE",
"519 104 LINE",
"192 104 LINE",
"192 270 LINE",
"482 270 LINE",
"482 374 LINE",
"192 374 LINE",
"192 539 LINE",
"519 539 LINE",
"519 644 LINE",
"57 644 LINE",
"57 0 LINE"
);
},
{
closed = 1;
nodes = (
"389 688 OFFCURVE",
"454 747 OFFCURVE",
"454 845 CURVE",
"364 845 LINE",
"364 803 OFFCURVE",
"341 766 OFFCURVE",
"295 766 CURVE SMOOTH",
"250 766 OFFCURVE",
"228 803 OFFCURVE",
"228 845 CURVE",
"138 845 LINE",
"138 747 OFFCURVE",
"202 688 OFFCURVE",
"295 688 CURVE SMOOTH"
);
}
);
width = 556;
}
);
leftKerningGroup = E;
note = Ebreve;
rightKerningGroup = E;
unicode = 0114;
},
{
glyphname = Ecaron;
lastChange = "2015-10-24 14:39:48 +0000";
layers = (
{
layerId = "DC28F4C8-A185-470C-BBB7-1A994656B146";
name = Regular;
paths = (
{
closed = 1;
nodes = (
"519 0 LINE",
"519 104 LINE",
"192 104 LINE",
"192 270 LINE",
"482 270 LINE",
"482 374 LINE",
"192 374 LINE",
"192 539 LINE",
"519 539 LINE",
"519 644 LINE",
"57 644 LINE",
"57 0 LINE"
);
},
{
closed = 1;
nodes = (
"340 688 LINE",
"475 862 LINE",
"371 862 LINE",
"297 762 LINE",
"225 862 LINE",
"119 862 LINE",
"254 688 LINE"
);
}
);
width = 556;
}
);
leftKerningGroup = E;
note = Ecaron;
rightKerningGroup = E;
unicode = 011A;
},
{
glyphname = Ecircumflex;
lastChange = "2015-10-24 14:39:47 +0000";
layers = (
{
layerId = "DC28F4C8-A185-470C-BBB7-1A994656B146";
name = Regular;
paths = (
{
closed = 1;
nodes = (
"519 0 LINE",
"519 104 LINE",
"192 104 LINE",
"192 270 LINE",
"482 270 LINE",
"482 374 LINE",
"192 374 LINE",
"192 539 LINE",
"519 539 LINE",
"519 644 LINE",
"57 644 LINE",
"57 0 LINE"
);
},
{
closed = 1;
nodes = (
"215 688 LINE",
"287 788 LINE",
"361 688 LINE",
"465 688 LINE",
"330 862 LINE",
"244 862 LINE",
"109 688 LINE"
);
}
);
width = 556;
}
);
leftKerningGroup = E;
note = Ecircumflex;
rightKerningGroup = E;
unicode = 00CA;
},
{
glyphname = Ecircumflexacute;
lastChange = "2015-10-24 14:39:47 +0000";
layers = (
{
layerId = "DC28F4C8-A185-470C-BBB7-1A994656B146";
name = Regular;
paths = (
{
closed = 1;
nodes = (
"519 0 LINE",
"519 104 LINE",
"192 104 LINE",
"192 270 LINE",
"482 270 LINE",
"482 374 LINE",
"192 374 LINE",
"192 539 LINE",
"519 539 LINE",
"519 644 LINE",
"57 644 LINE",
"57 0 LINE"
);
},
{
closed = 1;
nodes = (
"223 687 LINE",
"290 768 LINE",
"358 687 LINE",
"467 687 LINE",
"341 822 LINE",
"238 822 LINE",
"112 687 LINE"
);
},
{
closed = 1;
nodes = (
"486 804 LINE",
"559 945 LINE",
"457 945 LINE",
"391 804 LINE"
);
}
);
width = 551;
}
);
leftKerningGroup = E;
note = Ecircumflexacute;
rightKerningGroup = E;
unicode = 1EBE;
},
{
glyphname = Ecircumflexdotbelow;
lastChange = "2015-10-24 14:39:47 +0000";
layers = (
{
layerId = "DC28F4C8-A185-470C-BBB7-1A994656B146";
name = Regular;
paths = (
{
closed = 1;
nodes = (
"519 0 LINE",
"519 104 LINE",
"192 104 LINE",
"192 270 LINE",
"482 270 LINE",
"482 374 LINE",
"192 374 LINE",
"192 539 LINE",
"519 539 LINE",
"519 644 LINE",
"57 644 LINE",
"57 0 LINE"
);
},
{
closed = 1;
nodes = (
"337 -181 LINE",
"337 -82 LINE",
"230 -82 LINE",
"230 -181 LINE"
);
},
{
closed = 1;
nodes = (
"211 688 LINE",
"283 788 LINE",
"357 688 LINE",
"461 688 LINE",
"326 862 LINE",
"240 862 LINE",
"105 688 LINE"
);
}
);
width = 556;
}
);
leftKerningGroup = E;
note = Ecircumflexdotbelow;
rightKerningGroup = E;
unicode = 1EC6;
},
{
glyphname = Ecircumflexgrave;
lastChange = "2015-10-24 14:39:48 +0000";
layers = (
{
layerId = "DC28F4C8-A185-470C-BBB7-1A994656B146";
name = Regular;
paths = (
{
closed = 1;
nodes = (
"519 0 LINE",
"519 104 LINE",
"192 104 LINE",
"192 270 LINE",
"482 270 LINE",
"482 374 LINE",
"192 374 LINE",
"192 539 LINE",
"519 539 LINE",
"519 644 LINE",
"57 644 LINE",
"57 0 LINE"
);
},
{
closed = 1;
nodes = (
"190 804 LINE",
"124 945 LINE",
"22 945 LINE",
"95 804 LINE"
);
},
{
closed = 1;
nodes = (
"223 687 LINE",
"291 768 LINE",
"358 687 LINE",
"469 687 LINE",
"343 822 LINE",
"240 822 LINE",
"114 687 LINE"
);
}
);
width = 556;
}
);
leftKerningGroup = E;
note = Ecircumflexgrave;
rightKerningGroup = E;
unicode = 1EC0;
},
{
glyphname = Ecircumflexhookabove;
lastChange = "2015-10-24 14:39:47 +0000";
layers = (
{
layerId = "DC28F4C8-A185-470C-BBB7-1A994656B146";
name = Regular;
paths = (
{
closed = 1;
nodes = (
"519 0 LINE",
"519 104 LINE",
"192 104 LINE",
"192 270 LINE",
"482 270 LINE",
"482 374 LINE",
"192 374 LINE",
"192 539 LINE",
"519 539 LINE",
"519 644 LINE",
"57 644 LINE",
"57 0 LINE"
);
},
{
closed = 1;
nodes = (
"223 687 LINE",
"290 768 LINE",
"358 687 LINE",
"467 687 LINE",
"341 822 LINE",
"238 822 LINE",
"112 687 LINE"
);
},
{
closed = 1;
nodes = (
"493 782 LINE",
"493 816 LINE",
"546 824 OFFCURVE",
"569 851 OFFCURVE",
"569 895 CURVE SMOOTH",
"569 943 OFFCURVE",
"529 976 OFFCURVE",
"459 976 CURVE SMOOTH",
"422 976 OFFCURVE",
"397 971 OFFCURVE",
"376 964 CURVE",
"376 902 LINE",
"391 909 OFFCURVE",
"409 914 OFFCURVE",
"430 914 CURVE SMOOTH",
"460 914 OFFCURVE",
"475 907 OFFCURVE",
"475 887 CURVE SMOOTH",
"475 865 OFFCURVE",
"462 855 OFFCURVE",
"400 852 CURVE",
"400 782 LINE"
);
}
);
width = 551;
}
);
leftKerningGroup = E;
note = Ecircumflexhookabove;
rightKerningGroup = E;
unicode = 1EC2;
},
{
glyphname = Ecircumflextilde;
lastChange = "2015-10-24 14:39:48 +0000";
layers = (
{
layerId = "DC28F4C8-A185-470C-BBB7-1A994656B146";
name = Regular;
paths = (
{
closed = 1;
nodes = (
"519 0 LINE",
"519 104 LINE",
"192 104 LINE",
"192 270 LINE",
"482 270 LINE",
"482 374 LINE",
"192 374 LINE",
"192 539 LINE",
"519 539 LINE",
"519 644 LINE",
"57 644 LINE",
"57 0 LINE"
);
},
{
closed = 1;
nodes = (
"224 687 LINE",
"291 768 LINE",
"359 687 LINE",
"468 687 LINE",
"342 822 LINE",
"239 822 LINE",
"113 687 LINE"
);
},
{
closed = 1;
nodes = (
"422 837 OFFCURVE",
"452 851 OFFCURVE",
"465 869 CURVE",
"465 955 LINE",
"448 931 OFFCURVE",
"420 917 OFFCURVE",
"382 917 CURVE SMOOTH",
"326 917 OFFCURVE",
"282 957 OFFCURVE",
"221 957 CURVE SMOOTH",
"186 957 OFFCURVE",
"152 944 OFFCURVE",
"134 926 CURVE",
"134 840 LINE",
"157 865 OFFCURVE",
"187 877 OFFCURVE",
"224 877 CURVE SMOOTH",
"273 877 OFFCURVE",
"326 837 OFFCURVE",
"385 837 CURVE SMOOTH"
);
}
);
width = 556;
}
);
leftKerningGroup = E;
note = Ecircumflextilde;
rightKerningGroup = E;
unicode = 1EC4;
},
{
glyphname = Edieresis;
lastChange = "2015-10-24 14:39:47 +0000";
layers = (
{
layerId = "DC28F4C8-A185-470C-BBB7-1A994656B146";
name = Regular;
paths = (
{
closed = 1;
nodes = (
"519 0 LINE",
"519 104 LINE",
"192 104 LINE",
"192 270 LINE",
"482 270 LINE",
"482 374 LINE",
"192 374 LINE",
"192 539 LINE",
"519 539 LINE",
"519 644 LINE",
"57 644 LINE",
"57 0 LINE"
);
},
{
closed = 1;
nodes = (
"247 713 LINE",
"247 811 LINE",
"141 811 LINE",
"141 713 LINE"
);
},
{
closed = 1;
nodes = (
"443 713 LINE",
"443 811 LINE",
"337 811 LINE",
"337 713 LINE"
);
}
);
width = 556;
}
);
leftKerningGroup = E;
note = Edieresis;
rightKerningGroup = E;
unicode = 00CB;
},
{
glyphname = Edotaccent;
lastChange = "2015-10-24 14:39:49 +0000";
layers = (
{
layerId = "DC28F4C8-A185-470C-BBB7-1A994656B146";
name = Regular;
paths = (
{
closed = 1;
nodes = (
"519 0 LINE",
"519 104 LINE",
"192 104 LINE",
"192 270 LINE",
"482 270 LINE",
"482 374 LINE",
"192 374 LINE",
"192 539 LINE",
"519 539 LINE",
"519 644 LINE",
"57 644 LINE",
"57 0 LINE"
);
},
{
closed = 1;
nodes = (
"341 713 LINE",
"341 811 LINE",
"236 811 LINE",
"236 713 LINE"
);
}
);
width = 556;
}
);
leftKerningGroup = E;
note = Edotaccent;
rightKerningGroup = E;
unicode = 0116;
},
{
glyphname = Edotbelow;
lastChange = "2015-10-24 14:39:47 +0000";
layers = (
{
layerId = "DC28F4C8-A185-470C-BBB7-1A994656B146";
name = Regular;
paths = (
{
closed = 1;
nodes = (
"519 0 LINE",
"519 104 LINE",
"192 104 LINE",
"192 270 LINE",
"482 270 LINE",
"482 374 LINE",
"192 374 LINE",
"192 539 LINE",
"519 539 LINE",
"519 644 LINE",
"57 644 LINE",
"57 0 LINE"
);
},
{
closed = 1;
nodes = (
"338 -181 LINE",
"338 -82 LINE",
"231 -82 LINE",
"231 -181 LINE"
);
}
);
width = 556;
}
);
leftKerningGroup = E;
note = Edotbelow;
rightKerningGroup = E;
unicode = 1EB8;
},
{
glyphname = Egrave;
lastChange = "2015-10-24 14:39:48 +0000";
layers = (
{
layerId = "DC28F4C8-A185-470C-BBB7-1A994656B146";
name = Regular;
paths = (
{
closed = 1;
nodes = (
"519 0 LINE",
"519 104 LINE",
"192 104 LINE",
"192 270 LINE",
"482 270 LINE",
"482 374 LINE",
"192 374 LINE",
"192 539 LINE",
"519 539 LINE",
"519 644 LINE",
"57 644 LINE",
"57 0 LINE"
);
},
{
closed = 1;
nodes = (
"358 688 LINE",
"278 875 LINE",
"161 875 LINE",
"249 688 LINE"
);
}
);
width = 556;
}
);
leftKerningGroup = E;
note = Egrave;
rightKerningGroup = E;
unicode = 00C8;
},
{
glyphname = Ehookabove;
lastChange = "2015-10-24 14:39:47 +0000";
layers = (
{
layerId = "DC28F4C8-A185-470C-BBB7-1A994656B146";
name = Regular;
paths = (
{
closed = 1;
nodes = (
"519 0 LINE",
"519 104 LINE",
"192 104 LINE",
"192 270 LINE",
"482 270 LINE",
"482 374 LINE",
"192 374 LINE",
"192 539 LINE",
"519 539 LINE",
"519 644 LINE",
"57 644 LINE",
"57 0 LINE"
);
},
{
closed = 1;
nodes = (
"338 687 LINE",
"338 733 LINE",
"402 745 OFFCURVE",
"425 772 OFFCURVE",
"425 828 CURVE SMOOTH",
"425 886 OFFCURVE",
"379 924 OFFCURVE",
"294 924 CURVE SMOOTH",
"255 924 OFFCURVE",
"218 919 OFFCURVE",
"194 911 CURVE",
"194 844 LINE",
"210 851 OFFCURVE",
"237 855 OFFCURVE",
"256 855 CURVE SMOOTH",
"299 855 OFFCURVE",
"325 843 OFFCURVE",
"325 816 CURVE SMOOTH",
"325 786 OFFCURVE",
"308 772 OFFCURVE",
"235 768 CURVE",
"235 687 LINE"
);
}
);
width = 556;
}
);
leftKerningGroup = E;
note = Ehookabove;
rightKerningGroup = E;
unicode = 1EBA;
},
{
glyphname = Emacron;
lastChange = "2015-10-24 14:39:47 +0000";
layers = (
{
layerId = "DC28F4C8-A185-470C-BBB7-1A994656B146";
name = Regular;
paths = (
{
closed = 1;
nodes = (
"519 0 LINE",
"519 104 LINE",
"192 104 LINE",
"192 270 LINE",
"482 270 LINE",
"482 374 LINE",
"192 374 LINE",
"192 539 LINE",
"519 539 LINE",
"519 644 LINE",
"57 644 LINE",
"57 0 LINE"
);
},
{
closed = 1;
nodes = (
"436 722 LINE",
"436 805 LINE",
"128 805 LINE",
"128 722 LINE"
);
}
);
width = 556;
}
);
leftKerningGroup = E;
note = Emacron;
rightKerningGroup = E;
unicode = 0112;
},
{
glyphname = Eogonek;
lastChange = "2015-10-24 14:39:48 +0000";
layers = (
{
layerId = "DC28F4C8-A185-470C-BBB7-1A994656B146";
name = Regular;
paths = (
{
closed = 1;
nodes = (
"519 0 LINE",
"519 104 LINE",
"192 104 LINE",
"192 270 LINE",
"482 270 LINE",
"482 374 LINE",
"192 374 LINE",
"192 539 LINE",
"519 539 LINE",
"519 644 LINE",
"57 644 LINE",
"57 0 LINE"
);
},
{
closed = 1;
nodes = (
"451 -220 OFFCURVE",
"485 -214 OFFCURVE",
"503 -206 CURVE",
"503 -130 LINE",
"491 -137 OFFCURVE",
"471 -141 OFFCURVE",
"454 -141 CURVE SMOOTH",
"427 -141 OFFCURVE",
"409 -132 OFFCURVE",
"409 -104 CURVE SMOOTH",
"409 -66 OFFCURVE",
"436 -30 OFFCURVE",
"476 0 CURVE",
"376 0 LINE",
"329 -32 OFFCURVE",
"303 -79 OFFCURVE",
"303 -129 CURVE SMOOTH",
"303 -191 OFFCURVE",
"357 -220 OFFCURVE",
"418 -220 CURVE SMOOTH"
);
}
);
width = 556;
}
);
leftKerningGroup = E;
note = Eogonek;
rightKerningGroup = E;
unicode = 0118;
},
{
glyphname = Etilde;
lastChange = "2015-10-24 14:39:48 +0000";
layers = (
{
layerId = "DC28F4C8-A185-470C-BBB7-1A994656B146";
name = Regular;
paths = (
{
closed = 1;
nodes = (
"519 0 LINE",
"519 104 LINE",
"192 104 LINE",
"192 270 LINE",
"482 270 LINE",
"482 374 LINE",
"192 374 LINE",
"192 539 LINE",
"519 539 LINE",
"519 644 LINE",
"57 644 LINE",
"57 0 LINE"
);
},
{
closed = 1;
nodes = (
"411 700 OFFCURVE",
"441 714 OFFCURVE",
"454 732 CURVE",
"454 828 LINE",
"437 804 OFFCURVE",
"409 790 OFFCURVE",
"371 790 CURVE SMOOTH",
"315 790 OFFCURVE",
"271 830 OFFCURVE",
"210 830 CURVE SMOOTH",
"175 830 OFFCURVE",
"141 817 OFFCURVE",
"123 799 CURVE",
"123 703 LINE",
"146 728 OFFCURVE",
"176 740 OFFCURVE",
"213 740 CURVE SMOOTH",
"262 740 OFFCURVE",
"315 700 OFFCURVE",
"374 700 CURVE SMOOTH"
);
}
);
width = 556;
}
);
leftKerningGroup = E;
note = Etilde;
rightKerningGroup = E;
unicode = 1EBC;
},
{
glyphname = F;
lastChange = "2015-10-24 14:39:48 +0000";
layers = (
{
layerId = "DC28F4C8-A185-470C-BBB7-1A994656B146";
name = Regular;
paths = (
{
closed = 1;
nodes = (
"192 0 LINE",
"192 270 LINE",
"473 270 LINE",
"473 374 LINE",
"192 374 LINE",
"192 539 LINE",
"510 539 LINE",
"510 644 LINE",
"57 644 LINE",
"57 0 LINE"
);
}
);
width = 527;
}
);
note = F;
unicode = 0046;
},
{
glyphname = G;
lastChange = "2015-10-24 14:39:47 +0000";
layers = (
{
layerId = "DC28F4C8-A185-470C-BBB7-1A994656B146";
name = Regular;
paths = (
{
closed = 1;
nodes = (
"486 -10 OFFCURVE",
"563 17 OFFCURVE",
"607 45 CURVE",
"607 360 LINE",
"343 360 LINE",
"343 274 LINE",
"493 274 LINE",
"493 124 LINE",
"459 112 OFFCURVE",
"414 104 OFFCURVE",
"369 104 CURVE SMOOTH",
"239 104 OFFCURVE",
"174 174 OFFCURVE",
"174 311 CURVE SMOOTH",
"174 464 OFFCURVE",
"232 539 OFFCURVE",
"385 539 CURVE SMOOTH",
"450 539 OFFCURVE",
"513 531 OFFCURVE",
"569 511 CURVE",
"569 627 LINE",
"513 645 OFFCURVE",
"452 654 OFFCURVE",
"375 654 CURVE SMOOTH",
"151 654 OFFCURVE",
"37 524 OFFCURVE",
"37 311 CURVE SMOOTH",
"37 110 OFFCURVE",
"151 -10 OFFCURVE",
"367 -10 CURVE SMOOTH"
);
}
);
width = 644;
}
);
leftKerningGroup = G;
note = G;
unicode = 0047;
},
{
glyphname = Gbreve;
lastChange = "2015-10-24 14:39:47 +0000";
layers = (
{
layerId = "DC28F4C8-A185-470C-BBB7-1A994656B146";
name = Regular;
paths = (
{
closed = 1;
nodes = (
"486 -10 OFFCURVE",
"563 17 OFFCURVE",
"607 45 CURVE",
"607 360 LINE",
"343 360 LINE",
"343 274 LINE",
"493 274 LINE",
"493 124 LINE",
"459 112 OFFCURVE",
"414 104 OFFCURVE",
"369 104 CURVE SMOOTH",
"239 104 OFFCURVE",
"174 174 OFFCURVE",
"174 311 CURVE SMOOTH",
"174 464 OFFCURVE",
"232 539 OFFCURVE",
"385 539 CURVE SMOOTH",
"450 539 OFFCURVE",
"513 531 OFFCURVE",
"569 511 CURVE",
"569 627 LINE",
"513 645 OFFCURVE",
"452 654 OFFCURVE",
"375 654 CURVE SMOOTH",
"151 654 OFFCURVE",
"37 524 OFFCURVE",
"37 311 CURVE SMOOTH",
"37 110 OFFCURVE",
"151 -10 OFFCURVE",
"367 -10 CURVE SMOOTH"
);
},
{
closed = 1;
nodes = (
"462 688 OFFCURVE",
"527 747 OFFCURVE",
"527 845 CURVE",
"437 845 LINE",
"437 803 OFFCURVE",
"414 766 OFFCURVE",
"368 766 CURVE SMOOTH",
"323 766 OFFCURVE",
"301 803 OFFCURVE",
"301 845 CURVE",
"211 845 LINE",
"211 747 OFFCURVE",
"275 688 OFFCURVE",
"368 688 CURVE SMOOTH"
);
}
);
width = 644;
}
);
leftKerningGroup = G;
note = Gbreve;
unicode = 011E;
},
{
glyphname = Gcaron;
lastChange = "2015-10-24 14:39:48 +0000";
layers = (
{
layerId = "DC28F4C8-A185-470C-BBB7-1A994656B146";
name = Regular;
paths = (
{
closed = 1;
nodes = (
"486 -10 OFFCURVE",
"563 17 OFFCURVE",
"607 45 CURVE",
"607 360 LINE",
"343 360 LINE",
"343 274 LINE",
"493 274 LINE",
"493 124 LINE",
"459 112 OFFCURVE",
"414 104 OFFCURVE",
"369 104 CURVE SMOOTH",
"239 104 OFFCURVE",
"174 174 OFFCURVE",
"174 311 CURVE SMOOTH",
"174 464 OFFCURVE",
"232 539 OFFCURVE",
"385 539 CURVE SMOOTH",
"450 539 OFFCURVE",
"513 531 OFFCURVE",
"569 511 CURVE",
"569 627 LINE",
"513 645 OFFCURVE",
"452 654 OFFCURVE",
"375 654 CURVE SMOOTH",
"151 654 OFFCURVE",
"37 524 OFFCURVE",
"37 311 CURVE SMOOTH",
"37 110 OFFCURVE",
"151 -10 OFFCURVE",
"367 -10 CURVE SMOOTH"
);
},
{
closed = 1;
nodes = (
"410 687 LINE",
"545 861 LINE",
"441 861 LINE",
"367 761 LINE",
"295 861 LINE",
"189 861 LINE",
"324 687 LINE"
);
}
);
width = 644;
}
);
leftKerningGroup = G;
note = Gcaron;
unicode = 01E6;
},
{
glyphname = Gcircumflex;
lastChange = "2015-10-24 14:39:47 +0000";
layers = (
{
layerId = "DC28F4C8-A185-470C-BBB7-1A994656B146";
name = Regular;
paths = (
{
closed = 1;
nodes = (
"486 -10 OFFCURVE",
"563 17 OFFCURVE",
"607 45 CURVE",
"607 360 LINE",
"343 360 LINE",
"343 274 LINE",
"493 274 LINE",
"493 124 LINE",
"459 112 OFFCURVE",
"414 104 OFFCURVE",
"369 104 CURVE SMOOTH",
"239 104 OFFCURVE",
"174 174 OFFCURVE",
"174 311 CURVE SMOOTH",
"174 464 OFFCURVE",
"232 539 OFFCURVE",
"385 539 CURVE SMOOTH",
"450 539 OFFCURVE",
"513 531 OFFCURVE",
"569 511 CURVE",
"569 627 LINE",
"513 645 OFFCURVE",
"452 654 OFFCURVE",
"375 654 CURVE SMOOTH",
"151 654 OFFCURVE",
"37 524 OFFCURVE",
"37 311 CURVE SMOOTH",
"37 110 OFFCURVE",
"151 -10 OFFCURVE",
"367 -10 CURVE SMOOTH"
);
},
{
closed = 1;
nodes = (
"288 688 LINE",
"360 788 LINE",
"434 688 LINE",
"538 688 LINE",
"403 862 LINE",
"317 862 LINE",
"182 688 LINE"
);
}
);
width = 644;
}
);
leftKerningGroup = G;
note = Gcircumflex;
unicode = 011C;
},
{
glyphname = Gcommaaccent;
lastChange = "2015-10-24 14:39:48 +0000";
layers = (
{
layerId = "DC28F4C8-A185-470C-BBB7-1A994656B146";
name = Regular;
paths = (
{
closed = 1;
nodes = (
"486 -10 OFFCURVE",
"563 17 OFFCURVE",
"607 45 CURVE",
"607 360 LINE",
"343 360 LINE",
"343 274 LINE",
"493 274 LINE",
"493 124 LINE",
"459 112 OFFCURVE",
"414 104 OFFCURVE",
"369 104 CURVE SMOOTH",
"239 104 OFFCURVE",
"174 174 OFFCURVE",
"174 311 CURVE SMOOTH",
"174 464 OFFCURVE",
"232 539 OFFCURVE",
"385 539 CURVE SMOOTH",
"450 539 OFFCURVE",
"513 531 OFFCURVE",
"569 511 CURVE",
"569 627 LINE",
"513 645 OFFCURVE",
"452 654 OFFCURVE",
"375 654 CURVE SMOOTH",
"151 654 OFFCURVE",
"37 524 OFFCURVE",
"37 311 CURVE SMOOTH",
"37 110 OFFCURVE",
"151 -10 OFFCURVE",
"367 -10 CURVE SMOOTH"
);
},
{
closed = 1;
nodes = (
"383 -238 LINE",
"433 -37 LINE",
"327 -37 LINE",
"296 -238 LINE"
);
}
);
width = 644;
}
);
leftKerningGroup = G;
note = Gcommaaccent;
unicode = 0122;
},
{
glyphname = Gdotaccent;
lastChange = "2015-10-24 14:39:48 +0000";
layers = (
{
layerId = "DC28F4C8-A185-470C-BBB7-1A994656B146";
name = Regular;
paths = (
{
closed = 1;
nodes = (
"486 -10 OFFCURVE",
"563 17 OFFCURVE",
"607 45 CURVE",
"607 360 LINE",
"343 360 LINE",
"343 274 LINE",
"493 274 LINE",
"493 124 LINE",
"459 112 OFFCURVE",
"414 104 OFFCURVE",
"369 104 CURVE SMOOTH",
"239 104 OFFCURVE",
"174 174 OFFCURVE",
"174 311 CURVE SMOOTH",
"174 464 OFFCURVE",
"232 539 OFFCURVE",
"385 539 CURVE SMOOTH",
"450 539 OFFCURVE",
"513 531 OFFCURVE",
"569 511 CURVE",
"569 627 LINE",
"513 645 OFFCURVE",
"452 654 OFFCURVE",
"375 654 CURVE SMOOTH",
"151 654 OFFCURVE",
"37 524 OFFCURVE",
"37 311 CURVE SMOOTH",
"37 110 OFFCURVE",
"151 -10 OFFCURVE",
"367 -10 CURVE SMOOTH"
);
},
{
closed = 1;
nodes = (
"427 713 LINE",
"427 811 LINE",
"322 811 LINE",
"322 713 LINE"
);
}
);
width = 644;
}
);
leftKerningGroup = G;
note = Gdotaccent;
unicode = 0120;
},
{
glyphname = Gmacron;
lastChange = "2015-10-24 14:39:48 +0000";
layers = (
{
layerId = "DC28F4C8-A185-470C-BBB7-1A994656B146";
name = Regular;
paths = (
{
closed = 1;
nodes = (
"486 -10 OFFCURVE",
"563 17 OFFCURVE",
"607 45 CURVE",
"607 360 LINE",
"343 360 LINE",
"343 274 LINE",
"493 274 LINE",
"493 124 LINE",
"459 112 OFFCURVE",
"414 104 OFFCURVE",
"369 104 CURVE SMOOTH",
"239 104 OFFCURVE",
"174 174 OFFCURVE",
"174 311 CURVE SMOOTH",
"174 464 OFFCURVE",
"232 539 OFFCURVE",
"385 539 CURVE SMOOTH",
"450 539 OFFCURVE",
"513 531 OFFCURVE",
"569 511 CURVE",
"569 627 LINE",
"513 645 OFFCURVE",
"452 654 OFFCURVE",
"375 654 CURVE SMOOTH",
"151 654 OFFCURVE",
"37 524 OFFCURVE",
"37 311 CURVE SMOOTH",
"37 110 OFFCURVE",
"151 -10 OFFCURVE",
"367 -10 CURVE SMOOTH"
);
},
{
closed = 1;
nodes = (
"526 717 LINE",
"526 800 LINE",
"218 800 LINE",
"218 717 LINE"
);
}
);
width = 644;
}
);
leftKerningGroup = G;
note = Gmacron;
unicode = 1E20;
},
{
glyphname = H;
lastChange = "2015-10-24 14:39:48 +0000";
layers = (
{
layerId = "DC28F4C8-A185-470C-BBB7-1A994656B146";
name = Regular;
paths = (
{
closed = 1;
nodes = (
"192 0 LINE",
"192 270 LINE",
"473 270 LINE",
"473 0 LINE",
"608 0 LINE",
"608 644 LINE",
"473 644 LINE",
"473 374 LINE",
"192 374 LINE",
"192 644 LINE",
"57 644 LINE",
"57 0 LINE"
);
}
);
width = 665;
}
);
note = H;
unicode = 0048;
},
{
glyphname = Hbar;
lastChange = "2015-10-24 14:39:47 +0000";
layers = (
{
layerId = "DC28F4C8-A185-470C-BBB7-1A994656B146";
name = Regular;
paths = (
{
closed = 1;
nodes = (
"192 0 LINE",
"192 270 LINE",
"473 270 LINE",
"473 0 LINE",
"608 0 LINE",
"608 644 LINE",
"473 644 LINE",
"473 374 LINE",
"192 374 LINE",
"192 644 LINE",
"57 644 LINE",
"57 0 LINE"
);
},
{
closed = 1;
nodes = (
"650 451 LINE",
"650 556 LINE",
"16 556 LINE",
"16 451 LINE"
);
}
);
width = 666;
}
);
note = Hbar;
unicode = 0126;
},
{
glyphname = Hbrevebelow;
lastChange = "2015-10-24 14:39:47 +0000";
layers = (
{
layerId = "DC28F4C8-A185-470C-BBB7-1A994656B146";
name = Regular;
paths = (
{
closed = 1;
nodes = (
"192 0 LINE",
"192 270 LINE",
"473 270 LINE",
"473 0 LINE",
"608 0 LINE",
"608 644 LINE",
"473 644 LINE",
"473 374 LINE",
"192 374 LINE",
"192 644 LINE",
"57 644 LINE",
"57 0 LINE"
);
},
{
closed = 1;
nodes = (
"424 -217 OFFCURVE",
"489 -158 OFFCURVE",
"489 -60 CURVE",
"399 -60 LINE",
"399 -102 OFFCURVE",
"376 -139 OFFCURVE",
"330 -139 CURVE SMOOTH",
"285 -139 OFFCURVE",
"263 -102 OFFCURVE",
"263 -60 CURVE",
"173 -60 LINE",
"173 -158 OFFCURVE",
"237 -217 OFFCURVE",
"330 -217 CURVE SMOOTH"
);
}
);
width = 665;
}
);
note = Hbrevebelow;
unicode = 1E2A;
},
{
glyphname = Hcircumflex;
lastChange = "2015-10-24 14:39:48 +0000";
layers = (
{
layerId = "DC28F4C8-A185-470C-BBB7-1A994656B146";
name = Regular;
paths = (
{
closed = 1;
nodes = (
"192 0 LINE",
"192 270 LINE",
"473 270 LINE",
"473 0 LINE",
"608 0 LINE",
"608 644 LINE",
"473 644 LINE",
"473 374 LINE",
"192 374 LINE",
"192 644 LINE",
"57 644 LINE",
"57 0 LINE"
);
},
{
closed = 1;
nodes = (
"260 688 LINE",
"332 788 LINE",
"406 688 LINE",
"510 688 LINE",
"375 862 LINE",
"289 862 LINE",
"154 688 LINE"
);
}
);
width = 665;
}
);
note = Hcircumflex;
unicode = 0124;
},
{
glyphname = Hdotbelow;
lastChange = "2015-10-24 14:39:47 +0000";
layers = (
{
layerId = "DC28F4C8-A185-470C-BBB7-1A994656B146";
name = Regular;
paths = (
{
closed = 1;
nodes = (
"192 0 LINE",
"192 270 LINE",
"473 270 LINE",
"473 0 LINE",
"608 0 LINE",
"608 644 LINE",
"473 644 LINE",
"473 374 LINE",
"192 374 LINE",
"192 644 LINE",
"57 644 LINE",
"57 0 LINE"
);
},
{
closed = 1;
nodes = (
"385 -181 LINE",
"385 -82 LINE",
"278 -82 LINE",
"278 -181 LINE"
);
}
);
width = 665;
}
);
note = Hdotbelow;
unicode = 1E24;
},
{
glyphname = I;
lastChange = "2015-10-24 14:39:48 +0000";
layers = (
{
layerId = "DC28F4C8-A185-470C-BBB7-1A994656B146";
name = Regular;
paths = (
{
closed = 1;
nodes = (
"192 0 LINE",
"192 644 LINE",
"57 644 LINE",
"57 0 LINE"
);
}
);
width = 249;
}
);
note = I;
unicode = 0049;
},
{
glyphname = IJ;
lastChange = "2015-10-24 14:39:47 +0000";
layers = (
{
layerId = "DC28F4C8-A185-470C-BBB7-1A994656B146";
name = Regular;
paths = (
{
closed = 1;
nodes = (
"546 -10 OFFCURVE",
"621 55 OFFCURVE",
"621 184 CURVE SMOOTH",
"621 644 LINE",
"486 644 LINE",
"486 214 LINE SMOOTH",
"486 137 OFFCURVE",
"454 105 OFFCURVE",
"371 105 CURVE SMOOTH",
"329 105 OFFCURVE",
"286 113 OFFCURVE",
"254 127 CURVE",
"254 13 LINE",
"295 -2 OFFCURVE",
"343 -10 OFFCURVE",
"398 -10 CURVE SMOOTH"
);
},
{
closed = 1;
nodes = (
"192 0 LINE",
"192 644 LINE",
"57 644 LINE",
"57 0 LINE"
);
}
);
width = 674;
}
);
note = IJ;
unicode = 0132;
},
{
glyphname = Iacute;
lastChange = "2015-10-24 14:39:47 +0000";
layers = (
{
layerId = "DC28F4C8-A185-470C-BBB7-1A994656B146";
name = Regular;
paths = (
{
closed = 1;
nodes = (
"192 0 LINE",
"192 644 LINE",
"57 644 LINE",
"57 0 LINE"
);
},
{
closed = 1;
nodes = (
"179 688 LINE",
"267 875 LINE",
"150 875 LINE",
"70 688 LINE"
);
}
);
width = 250;
}
);
note = Iacute;
unicode = 00CD;
},
{
glyphname = Ibreve;
lastChange = "2015-10-24 14:39:48 +0000";
layers = (
{
layerId = "DC28F4C8-A185-470C-BBB7-1A994656B146";
name = Regular;
paths = (
{
closed = 1;
nodes = (
"192 0 LINE",
"192 644 LINE",
"57 644 LINE",
"57 0 LINE"
);
},
{
closed = 1;
nodes = (
"218 701 OFFCURVE",
"283 760 OFFCURVE",
"283 858 CURVE",
"193 858 LINE",
"193 816 OFFCURVE",
"170 779 OFFCURVE",
"124 779 CURVE SMOOTH",
"79 779 OFFCURVE",
"57 816 OFFCURVE",
"57 858 CURVE",
"-33 858 LINE",
"-33 760 OFFCURVE",
"31 701 OFFCURVE",
"124 701 CURVE SMOOTH"
);
}
);
width = 250;
}
);
note = Ibreve;
unicode = 012C;
},
{
glyphname = Icaron;
lastChange = "2015-10-24 14:39:48 +0000";
layers = (
{
layerId = "DC28F4C8-A185-470C-BBB7-1A994656B146";
name = Regular;
paths = (
{
closed = 1;
nodes = (
"192 0 LINE",
"192 644 LINE",
"57 644 LINE",
"57 0 LINE"
);
},
{
closed = 1;
nodes = (
"168 688 LINE",
"303 862 LINE",
"199 862 LINE",
"125 762 LINE",
"53 862 LINE",
"-53 862 LINE",
"82 688 LINE"
);
}
);
width = 250;
}
);
note = Icaron;
unicode = 01CF;
},
{
glyphname = Icircumflex;
lastChange = "2015-10-24 14:39:48 +0000";
layers = (
{
layerId = "DC28F4C8-A185-470C-BBB7-1A994656B146";
name = Regular;
paths = (
{
closed = 1;
nodes = (
"192 0 LINE",
"192 644 LINE",
"57 644 LINE",
"57 0 LINE"
);
},
{
closed = 1;
nodes = (
"53 688 LINE",
"125 788 LINE",
"199 688 LINE",
"303 688 LINE",
"168 862 LINE",
"82 862 LINE",
"-53 688 LINE"
);
}
);
width = 250;
}
);
note = Icircumflex;
unicode = 00CE;
},
{
glyphname = Idieresis;
lastChange = "2015-10-24 14:39:48 +0000";
layers = (
{
layerId = "DC28F4C8-A185-470C-BBB7-1A994656B146";
name = Regular;
paths = (
{
closed = 1;
nodes = (
"192 0 LINE",
"192 644 LINE",
"57 644 LINE",
"57 0 LINE"
);
},
{
closed = 1;
nodes = (
"80 718 LINE",
"80 816 LINE",
"-26 816 LINE",
"-26 718 LINE"
);
},
{
closed = 1;
nodes = (
"276 718 LINE",
"276 816 LINE",
"170 816 LINE",
"170 718 LINE"
);
}
);
width = 249;
}
);
note = Idieresis;
unicode = 00CF;
},
{
glyphname = Idotaccent;
lastChange = "2015-10-24 14:39:48 +0000";
layers = (
{
layerId = "DC28F4C8-A185-470C-BBB7-1A994656B146";
name = Regular;
paths = (
{
closed = 1;
nodes = (
"192 0 LINE",
"192 644 LINE",
"57 644 LINE",
"57 0 LINE"
);
},
{
closed = 1;
nodes = (
"177 718 LINE",
"177 816 LINE",
"72 816 LINE",
"72 718 LINE"
);
}
);
width = 249;
}
);
note = Idotaccent;
unicode = 0130;
},
{
glyphname = Idotbelow;
lastChange = "2015-10-24 14:39:47 +0000";
layers = (
{
layerId = "DC28F4C8-A185-470C-BBB7-1A994656B146";
name = Regular;
paths = (
{
closed = 1;
nodes = (
"192 0 LINE",
"192 644 LINE",
"57 644 LINE",
"57 0 LINE"
);
},
{
closed = 1;
nodes = (
"178 -181 LINE",
"178 -82 LINE",
"71 -82 LINE",
"71 -181 LINE"
);
}
);
width = 249;
}
);
note = Idotbelow;
unicode = 1ECA;
},
{
glyphname = Igrave;
lastChange = "2015-10-24 14:39:47 +0000";
layers = (
{
layerId = "DC28F4C8-A185-470C-BBB7-1A994656B146";
name = Regular;
paths = (
{
closed = 1;
nodes = (
"192 0 LINE",
"192 644 LINE",
"57 644 LINE",
"57 0 LINE"
);
},
{
closed = 1;
nodes = (
"178 688 LINE",
"98 875 LINE",
"-19 875 LINE",
"69 688 LINE"
);
}
);
width = 249;
}
);
note = Igrave;
unicode = 00CC;
},
{
glyphname = Ihookabove;
lastChange = "2015-10-24 14:39:47 +0000";
layers = (
{
layerId = "DC28F4C8-A185-470C-BBB7-1A994656B146";
name = Regular;
paths = (
{
closed = 1;
nodes = (
"192 0 LINE",
"192 644 LINE",
"57 644 LINE",
"57 0 LINE"
);
},
{
closed = 1;
nodes = (
"175 687 LINE",
"175 733 LINE",
"239 745 OFFCURVE",
"262 772 OFFCURVE",
"262 828 CURVE SMOOTH",
"262 886 OFFCURVE",
"216 924 OFFCURVE",
"131 924 CURVE SMOOTH",
"92 924 OFFCURVE",
"55 919 OFFCURVE",
"31 911 CURVE",
"31 844 LINE",
"47 851 OFFCURVE",
"74 855 OFFCURVE",
"93 855 CURVE SMOOTH",
"136 855 OFFCURVE",
"162 843 OFFCURVE",
"162 816 CURVE SMOOTH",
"162 786 OFFCURVE",
"145 772 OFFCURVE",
"72 768 CURVE",
"72 687 LINE"
);
}
);
width = 250;
}
);
note = Ihookabove;
unicode = 1EC8;
},
{
glyphname = Imacron;
lastChange = "2015-10-24 14:39:48 +0000";
layers = (
{
layerId = "DC28F4C8-A185-470C-BBB7-1A994656B146";
name = Regular;
paths = (
{
closed = 1;
nodes = (
"192 0 LINE",
"192 644 LINE",
"57 644 LINE",
"57 0 LINE"
);
},
{
closed = 1;
nodes = (
"279 722 LINE",
"279 805 LINE",
"-29 805 LINE",
"-29 722 LINE"
);
}
);
width = 250;
}
);
note = Imacron;
unicode = 012A;
},
{
glyphname = Iogonek;
lastChange = "2015-10-24 14:39:48 +0000";
layers = (
{
layerId = "DC28F4C8-A185-470C-BBB7-1A994656B146";
name = Regular;
paths = (
{
closed = 1;
nodes = (
"192 0 LINE",
"192 644 LINE",
"57 644 LINE",
"57 0 LINE"
);
},
{
closed = 1;
nodes = (
"154 -220 OFFCURVE",
"188 -214 OFFCURVE",
"206 -206 CURVE",
"206 -130 LINE",
"194 -137 OFFCURVE",
"174 -141 OFFCURVE",
"157 -141 CURVE SMOOTH",
"130 -141 OFFCURVE",
"112 -132 OFFCURVE",
"112 -104 CURVE SMOOTH",
"112 -66 OFFCURVE",
"139 -30 OFFCURVE",
"179 0 CURVE",
"79 0 LINE",
"32 -32 OFFCURVE",
"6 -79 OFFCURVE",
"6 -129 CURVE SMOOTH",
"6 -191 OFFCURVE",
"60 -220 OFFCURVE",
"121 -220 CURVE SMOOTH"
);
}
);
width = 250;
}
);
note = Iogonek;
unicode = 012E;
},
{
glyphname = Itilde;
lastChange = "2015-10-24 14:39:48 +0000";
layers = (
{
layerId = "DC28F4C8-A185-470C-BBB7-1A994656B146";
name = Regular;
paths = (
{
closed = 1;
nodes = (
"192 0 LINE",
"192 644 LINE",
"57 644 LINE",
"57 0 LINE"
);
},
{
closed = 1;
nodes = (
"247 700 OFFCURVE",
"277 714 OFFCURVE",
"290 732 CURVE",
"290 828 LINE",
"273 804 OFFCURVE",
"245 790 OFFCURVE",
"207 790 CURVE SMOOTH",
"151 790 OFFCURVE",
"107 830 OFFCURVE",
"46 830 CURVE SMOOTH",
"11 830 OFFCURVE",
"-23 817 OFFCURVE",
"-41 799 CURVE",
"-41 703 LINE",
"-18 728 OFFCURVE",
"12 740 OFFCURVE",
"49 740 CURVE SMOOTH",
"98 740 OFFCURVE",
"151 700 OFFCURVE",
"210 700 CURVE SMOOTH"
);
}
);
width = 250;
}
);
note = Itilde;
unicode = 0128;
},
{
glyphname = J;
lastChange = "2015-10-24 14:39:47 +0000";
layers = (
{
layerId = "DC28F4C8-A185-470C-BBB7-1A994656B146";
name = Regular;
paths = (
{
closed = 1;
nodes = (
"309 -10 OFFCURVE",
"384 55 OFFCURVE",
"384 184 CURVE SMOOTH",
"384 644 LINE",
"249 644 LINE",
"249 214 LINE SMOOTH",
"249 137 OFFCURVE",
"217 105 OFFCURVE",
"134 105 CURVE SMOOTH",
"92 105 OFFCURVE",
"49 113 OFFCURVE",
"17 127 CURVE",
"17 13 LINE",
"58 -2 OFFCURVE",
"106 -10 OFFCURVE",
"161 -10 CURVE SMOOTH"
);
}
);
width = 436;
}
);
note = J;
unicode = 004A;
},
{
glyphname = Jcircumflex;
lastChange = "2015-10-24 14:39:48 +0000";
layers = (
{
layerId = "DC28F4C8-A185-470C-BBB7-1A994656B146";
name = Regular;
paths = (
{
closed = 1;
nodes = (
"309 -10 OFFCURVE",
"384 55 OFFCURVE",
"384 184 CURVE SMOOTH",
"384 644 LINE",
"249 644 LINE",
"249 214 LINE SMOOTH",
"249 137 OFFCURVE",
"217 105 OFFCURVE",
"134 105 CURVE SMOOTH",
"92 105 OFFCURVE",
"49 113 OFFCURVE",
"17 127 CURVE",
"17 13 LINE",
"58 -2 OFFCURVE",
"106 -10 OFFCURVE",
"161 -10 CURVE SMOOTH"
);
},
{
closed = 1;
nodes = (
"246 688 LINE",
"318 788 LINE",
"392 688 LINE",
"496 688 LINE",
"361 862 LINE",
"275 862 LINE",
"140 688 LINE"
);
}
);
width = 436;
}
);
note = Jcircumflex;
unicode = 0134;
},
{
glyphname = K;
lastChange = "2015-10-24 14:39:47 +0000";
layers = (
{
layerId = "DC28F4C8-A185-470C-BBB7-1A994656B146";
name = Regular;
paths = (
{
closed = 1;
nodes = (
"192 0 LINE",
"192 204 LINE",
"278 297 LINE",
"463 0 LINE",
"607 0 LINE",
"362 383 LINE",
"595 644 LINE",
"440 644 LINE",
"192 371 LINE",
"192 644 LINE",
"57 644 LINE",
"57 0 LINE"
);
}
);
width = 644;
}
);
leftKerningGroup = K;
note = K;
rightKerningGroup = K;
unicode = 004B;
},
{
glyphname = Kcommaaccent;
lastChange = "2015-10-24 14:39:47 +0000";
layers = (
{
layerId = "DC28F4C8-A185-470C-BBB7-1A994656B146";
name = Regular;
paths = (
{
closed = 1;
nodes = (
"192 0 LINE",
"192 204 LINE",
"278 297 LINE",
"463 0 LINE",
"607 0 LINE",
"362 383 LINE",
"595 644 LINE",
"440 644 LINE",
"192 371 LINE",
"192 644 LINE",
"57 644 LINE",
"57 0 LINE"
);
},
{
closed = 1;
nodes = (
"329 -238 LINE",
"379 -37 LINE",
"273 -37 LINE",
"242 -238 LINE"
);
}
);
width = 644;
}
);
leftKerningGroup = K;
note = Kcommaaccent;
rightKerningGroup = K;
unicode = 0136;
},
{
glyphname = L;
lastChange = "2015-10-24 14:39:48 +0000";
layers = (
{
layerId = "DC28F4C8-A185-470C-BBB7-1A994656B146";
name = Regular;
paths = (
{
closed = 1;
nodes = (
"509 0 LINE",
"509 104 LINE",
"192 104 LINE",
"192 644 LINE",
"57 644 LINE",
"57 0 LINE"
);
}
);
width = 526;
}
);
note = L;
rightKerningGroup = L;
unicode = 004C;
},
{
glyphname = Lacute;
lastChange = "2015-10-24 14:39:48 +0000";
layers = (
{
layerId = "DC28F4C8-A185-470C-BBB7-1A994656B146";
name = Regular;
paths = (
{
closed = 1;
nodes = (
"509 0 LINE",
"509 104 LINE",
"192 104 LINE",
"192 644 LINE",
"57 644 LINE",
"57 0 LINE"
);
},
{
closed = 1;
nodes = (
"182 688 LINE",
"270 875 LINE",
"153 875 LINE",
"73 688 LINE"
);
}
);
width = 526;
}
);
note = Lacute;
rightKerningGroup = L;
unicode = 0139;
},
{
glyphname = Lcaron;
lastChange = "2015-10-24 14:39:48 +0000";
layers = (
{
layerId = "DC28F4C8-A185-470C-BBB7-1A994656B146";
name = Regular;
paths = (
{
closed = 1;
nodes = (
"509 0 LINE",
"509 104 LINE",
"192 104 LINE",
"192 644 LINE",
"57 644 LINE",
"57 0 LINE"
);
},
{
closed = 1;
nodes = (
"409 564 LINE",
"459 765 LINE",
"353 765 LINE",
"322 564 LINE"
);
}
);
width = 526;
}
);
note = Lcaron;
rightKerningGroup = L;
unicode = 013D;
},
{
glyphname = Lcommaaccent;
lastChange = "2015-10-24 14:39:47 +0000";
layers = (
{
layerId = "DC28F4C8-A185-470C-BBB7-1A994656B146";
name = Regular;
paths = (
{
closed = 1;
nodes = (
"509 0 LINE",
"509 104 LINE",
"192 104 LINE",
"192 644 LINE",
"57 644 LINE",
"57 0 LINE"
);
},
{
closed = 1;
nodes = (
"302 -238 LINE",
"352 -37 LINE",
"246 -37 LINE",
"215 -238 LINE"
);
}
);
width = 526;
}
);
note = Lcommaaccent;
rightKerningGroup = L;
unicode = 013B;
},
{
glyphname = Ldot;
lastChange = "2015-10-24 14:39:47 +0000";
layers = (
{
layerId = "DC28F4C8-A185-470C-BBB7-1A994656B146";
name = Regular;
paths = (
{
closed = 1;
nodes = (
"509 0 LINE",
"509 104 LINE",
"192 104 LINE",
"192 644 LINE",
"57 644 LINE",
"57 0 LINE"
);
},
{
closed = 1;
nodes = (
"414 276 LINE",
"414 374 LINE",
"309 374 LINE",
"309 276 LINE"
);
}
);
width = 526;
}
);
note = Ldot;
rightKerningGroup = L;
unicode = 013F;
},
{
glyphname = Ldotbelow;
lastChange = "2015-10-24 14:39:47 +0000";
layers = (
{
layerId = "DC28F4C8-A185-470C-BBB7-1A994656B146";
name = Regular;
paths = (
{
closed = 1;
nodes = (
"509 0 LINE",
"509 104 LINE",
"192 104 LINE",
"192 644 LINE",
"57 644 LINE",
"57 0 LINE"
);
},
{
closed = 1;
nodes = (
"329 -181 LINE",
"329 -82 LINE",
"222 -82 LINE",
"222 -181 LINE"
);
}
);
width = 526;
}
);
note = Ldotbelow;
rightKerningGroup = L;
unicode = 1E36;
},
{
glyphname = Ldotbelowmacron;
lastChange = "2015-11-26 05:46:07 +0000";
layers = (
{
layerId = "DC28F4C8-A185-470C-BBB7-1A994656B146";
name = Regular;
paths = (
{
closed = 1;
nodes = (
"525 0 LINE",
"525 104 LINE",
"208 104 LINE",
"208 644 LINE",
"73 644 LINE",
"73 0 LINE"
);
},
{
closed = 1;
nodes = (
"345 -181 LINE",
"345 -82 LINE",
"238 -82 LINE",
"238 -181 LINE"
);
},
{
closed = 1;
nodes = (
"313 717 LINE",
"313 800 LINE",
"5 800 LINE",
"5 717 LINE"
);
}
);
width = 542;
}
);
note = Ldotbelowmacron;
rightKerningGroup = L;
unicode = 1E38;
},
{
glyphname = Llinebelow;
lastChange = "2015-10-24 14:39:48 +0000";
layers = (
{
layerId = "DC28F4C8-A185-470C-BBB7-1A994656B146";
name = Regular;
paths = (
{
closed = 1;
nodes = (
"509 0 LINE",
"509 104 LINE",
"192 104 LINE",
"192 644 LINE",
"57 644 LINE",
"57 0 LINE"
);
},
{
closed = 1;
nodes = (
"431 -158 LINE",
"431 -75 LINE",
"123 -75 LINE",
"123 -158 LINE"
);
}
);
width = 526;
}
);
note = Llinebelow;
rightKerningGroup = L;
unicode = 1E3A;
},
{
glyphname = Lslash;
lastChange = "2015-10-24 14:39:48 +0000";
layers = (
{
layerId = "DC28F4C8-A185-470C-BBB7-1A994656B146";
name = Regular;
paths = (
{
closed = 1;
nodes = (
"509 0 LINE",
"509 104 LINE",
"192 104 LINE",
"192 644 LINE",
"57 644 LINE",
"57 0 LINE"
);
},
{
closed = 1;
nodes = (
"317 372 LINE",
"317 469 LINE",
"-18 322 LINE",
"-18 225 LINE"
);
}
);
width = 526;
}
);
note = Lslash;
rightKerningGroup = L;
unicode = 0141;
},
{
glyphname = M;
lastChange = "2015-10-24 14:39:47 +0000";
layers = (
{
layerId = "DC28F4C8-A185-470C-BBB7-1A994656B146";
name = Regular;
paths = (
{
closed = 1;
nodes = (
"192 0 LINE",
"192 419 LINE",
"343 111 LINE",
"421 111 LINE",
"571 419 LINE",
"571 0 LINE",
"706 0 LINE",
"706 644 LINE",
"571 644 LINE",
"382 257 LINE",
"193 644 LINE",
"57 644 LINE",
"57 0 LINE"
);
}
);
width = 763;
}
);
note = M;
unicode = 004D;
},
{
glyphname = Mdotbelow;
lastChange = "2015-10-24 14:39:47 +0000";
layers = (
{
layerId = "DC28F4C8-A185-470C-BBB7-1A994656B146";
name = Regular;
paths = (
{
closed = 1;
nodes = (
"192 0 LINE",
"192 419 LINE",
"343 111 LINE",
"421 111 LINE",
"571 419 LINE",
"571 0 LINE",
"706 0 LINE",
"706 644 LINE",
"571 644 LINE",
"382 257 LINE",
"193 644 LINE",
"57 644 LINE",
"57 0 LINE"
);
},
{
closed = 1;
nodes = (
"448 -181 LINE",
"448 -82 LINE",
"341 -82 LINE",
"341 -181 LINE"
);
}
);
width = 763;
}
);
note = Mdotbelow;
unicode = 1E42;
},
{
glyphname = N;
lastChange = "2015-10-24 14:39:48 +0000";
layers = (
{
layerId = "DC28F4C8-A185-470C-BBB7-1A994656B146";
name = Regular;
paths = (
{
closed = 1;
nodes = (
"192 0 LINE",
"192 429 LINE",
"497 0 LINE",
"614 0 LINE",
"614 644 LINE",
"479 644 LINE",
"479 215 LINE",
"174 644 LINE",
"57 644 LINE",
"57 0 LINE"
);
}
);
width = 671;
}
);
note = N;
unicode = 004E;
},
{
glyphname = Nacute;
lastChange = "2015-10-24 14:39:49 +0000";
layers = (
{
layerId = "DC28F4C8-A185-470C-BBB7-1A994656B146";
name = Regular;
paths = (
{
closed = 1;
nodes = (
"192 0 LINE",
"192 429 LINE",
"497 0 LINE",
"614 0 LINE",
"614 644 LINE",
"479 644 LINE",
"479 215 LINE",
"174 644 LINE",
"57 644 LINE",
"57 0 LINE"
);
},
{
closed = 1;
nodes = (
"379 688 LINE",
"467 875 LINE",
"350 875 LINE",
"270 688 LINE"
);
}
);
width = 671;
}
);
note = Nacute;
unicode = 0143;
},
{
glyphname = Ncaron;
lastChange = "2015-10-24 14:39:47 +0000";
layers = (
{
layerId = "DC28F4C8-A185-470C-BBB7-1A994656B146";
name = Regular;
paths = (
{
closed = 1;
nodes = (
"192 0 LINE",
"192 429 LINE",
"497 0 LINE",
"614 0 LINE",
"614 644 LINE",
"479 644 LINE",
"479 215 LINE",
"174 644 LINE",
"57 644 LINE",
"57 0 LINE"
);
},
{
closed = 1;
nodes = (
"381 688 LINE",
"516 862 LINE",
"412 862 LINE",
"338 762 LINE",
"266 862 LINE",
"160 862 LINE",
"295 688 LINE"
);
}
);
width = 671;
}
);
note = Ncaron;
unicode = 0147;
},
{
glyphname = Ncommaaccent;
lastChange = "2015-10-24 14:39:48 +0000";
layers = (
{
layerId = "DC28F4C8-A185-470C-BBB7-1A994656B146";
name = Regular;
paths = (
{
closed = 1;
nodes = (
"192 0 LINE",
"192 429 LINE",
"497 0 LINE",
"614 0 LINE",
"614 644 LINE",
"479 644 LINE",
"479 215 LINE",
"174 644 LINE",
"57 644 LINE",
"57 0 LINE"
);
},
{
closed = 1;
nodes = (
"347 -238 LINE",
"397 -37 LINE",
"291 -37 LINE",
"260 -238 LINE"
);
}
);
width = 671;
}
);
note = Ncommaaccent;
unicode = 0145;
},
{
glyphname = Ndotaccent;
lastChange = "2015-10-24 14:39:47 +0000";
layers = (
{
layerId = "DC28F4C8-A185-470C-BBB7-1A994656B146";
name = Regular;
paths = (
{
closed = 1;
nodes = (
"192 0 LINE",
"192 429 LINE",
"497 0 LINE",
"614 0 LINE",
"614 644 LINE",
"479 644 LINE",
"479 215 LINE",
"174 644 LINE",
"57 644 LINE",
"57 0 LINE"
);
},
{
closed = 1;
nodes = (
"396 713 LINE",
"396 811 LINE",
"291 811 LINE",
"291 713 LINE"
);
}
);
width = 671;
}
);
note = Ndotaccent;
unicode = 1E44;
},
{
glyphname = Ndotbelow;
lastChange = "2015-10-24 14:39:48 +0000";
layers = (
{
layerId = "DC28F4C8-A185-470C-BBB7-1A994656B146";
name = Regular;
paths = (
{
closed = 1;
nodes = (
"192 0 LINE",
"192 429 LINE",
"497 0 LINE",
"614 0 LINE",
"614 644 LINE",
"479 644 LINE",
"479 215 LINE",
"174 644 LINE",
"57 644 LINE",
"57 0 LINE"
);
},
{
closed = 1;
nodes = (
"391 -181 LINE",
"391 -82 LINE",
"284 -82 LINE",
"284 -181 LINE"
);
}
);
width = 671;
}
);
note = Ndotbelow;
unicode = 1E46;
},
{
glyphname = Eng;
lastChange = "2015-10-24 14:39:48 +0000";
layers = (
{
layerId = "DC28F4C8-A185-470C-BBB7-1A994656B146";
name = Regular;
paths = (
{
closed = 1;
nodes = (
"561 -234 OFFCURVE",
"614 -171 OFFCURVE",
"614 -77 CURVE SMOOTH",
"614 644 LINE",
"479 644 LINE",
"479 215 LINE",
"174 644 LINE",
"57 644 LINE",
"57 0 LINE",
"192 0 LINE",
"192 429 LINE",
"479 25 LINE",
"479 -64 LINE SMOOTH",
"479 -112 OFFCURVE",
"456 -133 OFFCURVE",
"402 -133 CURVE SMOOTH",
"384 -133 OFFCURVE",
"363 -130 OFFCURVE",
"342 -123 CURVE",
"342 -216 LINE",
"372 -228 OFFCURVE",
"408 -234 OFFCURVE",
"450 -234 CURVE SMOOTH"
);
}
);
width = 671;
}
);
note = Eng;
unicode = 014A;
},
{
glyphname = Nlinebelow;
lastChange = "2015-10-24 14:39:48 +0000";
layers = (
{
layerId = "DC28F4C8-A185-470C-BBB7-1A994656B146";
name = Regular;
paths = (
{
closed = 1;
nodes = (
"192 0 LINE",
"192 429 LINE",
"497 0 LINE",
"614 0 LINE",
"614 644 LINE",
"479 644 LINE",
"479 215 LINE",
"174 644 LINE",
"57 644 LINE",
"57 0 LINE"
);
},
{
closed = 1;
nodes = (
"493 -155 LINE",
"493 -72 LINE",
"185 -72 LINE",
"185 -155 LINE"
);
}
);
width = 671;
}
);
note = Nlinebelow;
unicode = 1E48;
},
{
glyphname = Ntilde;
lastChange = "2015-10-24 14:39:48 +0000";
layers = (
{
layerId = "DC28F4C8-A185-470C-BBB7-1A994656B146";
name = Regular;
paths = (
{
closed = 1;
nodes = (
"192 0 LINE",
"192 429 LINE",
"497 0 LINE",
"614 0 LINE",
"614 644 LINE",
"479 644 LINE",
"479 215 LINE",
"174 644 LINE",
"57 644 LINE",
"57 0 LINE"
);
},
{
closed = 1;
nodes = (
"466 700 OFFCURVE",
"496 714 OFFCURVE",
"509 732 CURVE",
"509 828 LINE",
"492 804 OFFCURVE",
"464 790 OFFCURVE",
"426 790 CURVE SMOOTH",
"370 790 OFFCURVE",
"326 830 OFFCURVE",
"265 830 CURVE SMOOTH",
"230 830 OFFCURVE",
"196 817 OFFCURVE",
"178 799 CURVE",
"178 703 LINE",
"201 728 OFFCURVE",
"231 740 OFFCURVE",
"268 740 CURVE SMOOTH",
"317 740 OFFCURVE",
"370 700 OFFCURVE",
"429 700 CURVE SMOOTH"
);
}
);
width = 671;
}
);
note = Ntilde;
unicode = 00D1;
},
{
glyphname = O;
lastChange = "2015-10-24 14:39:47 +0000";
layers = (
{
layerId = "DC28F4C8-A185-470C-BBB7-1A994656B146";
name = Regular;
paths = (
{
closed = 1;
nodes = (
"557 -10 OFFCURVE",
"663 98 OFFCURVE",
"663 319 CURVE SMOOTH",
"663 555 OFFCURVE",
"557 654 OFFCURVE",
"350 654 CURVE SMOOTH",
"143 654 OFFCURVE",
"37 555 OFFCURVE",
"37 319 CURVE SMOOTH",
"37 98 OFFCURVE",
"143 -10 OFFCURVE",
"350 -10 CURVE SMOOTH"
);
},
{
closed = 1;
nodes = (
"229 105 OFFCURVE",
"174 174 OFFCURVE",
"174 319 CURVE SMOOTH",
"174 480 OFFCURVE",
"229 539 OFFCURVE",
"350 539 CURVE SMOOTH",
"471 539 OFFCURVE",
"526 480 OFFCURVE",
"526 319 CURVE SMOOTH",
"526 174 OFFCURVE",
"471 105 OFFCURVE",
"350 105 CURVE SMOOTH"
);
}
);
width = 700;
}
);
leftKerningGroup = O;
note = O;
rightKerningGroup = O;
unicode = 004F;
},
{
glyphname = Oacute;
lastChange = "2015-10-24 14:39:48 +0000";
layers = (
{
layerId = "DC28F4C8-A185-470C-BBB7-1A994656B146";
name = Regular;
paths = (
{
closed = 1;
nodes = (
"557 -10 OFFCURVE",
"663 98 OFFCURVE",
"663 319 CURVE SMOOTH",
"663 555 OFFCURVE",
"557 654 OFFCURVE",
"350 654 CURVE SMOOTH",
"143 654 OFFCURVE",
"37 555 OFFCURVE",
"37 319 CURVE SMOOTH",
"37 98 OFFCURVE",
"143 -10 OFFCURVE",
"350 -10 CURVE SMOOTH"
);
},
{
closed = 1;
nodes = (
"229 105 OFFCURVE",
"174 174 OFFCURVE",
"174 319 CURVE SMOOTH",
"174 480 OFFCURVE",
"229 539 OFFCURVE",
"350 539 CURVE SMOOTH",
"471 539 OFFCURVE",
"526 480 OFFCURVE",
"526 319 CURVE SMOOTH",
"526 174 OFFCURVE",
"471 105 OFFCURVE",
"350 105 CURVE SMOOTH"
);
},
{
closed = 1;
nodes = (
"397 688 LINE",
"485 875 LINE",
"368 875 LINE",
"288 688 LINE"
);
}
);
width = 700;
}
);
leftKerningGroup = O;
note = Oacute;
rightKerningGroup = O;
unicode = 00D3;
},
{
glyphname = Obreve;
lastChange = "2015-10-24 14:39:48 +0000";
layers = (
{
layerId = "DC28F4C8-A185-470C-BBB7-1A994656B146";
name = Regular;
paths = (
{
closed = 1;
nodes = (
"557 -10 OFFCURVE",
"663 98 OFFCURVE",
"663 319 CURVE SMOOTH",
"663 555 OFFCURVE",
"557 654 OFFCURVE",
"350 654 CURVE SMOOTH",
"143 654 OFFCURVE",
"37 555 OFFCURVE",
"37 319 CURVE SMOOTH",
"37 98 OFFCURVE",
"143 -10 OFFCURVE",
"350 -10 CURVE SMOOTH"
);
},
{
closed = 1;
nodes = (
"229 105 OFFCURVE",
"174 174 OFFCURVE",
"174 319 CURVE SMOOTH",
"174 480 OFFCURVE",
"229 539 OFFCURVE",
"350 539 CURVE SMOOTH",
"471 539 OFFCURVE",
"526 480 OFFCURVE",
"526 319 CURVE SMOOTH",
"526 174 OFFCURVE",
"471 105 OFFCURVE",
"350 105 CURVE SMOOTH"
);
},
{
closed = 1;
nodes = (
"444 688 OFFCURVE",
"509 747 OFFCURVE",
"509 845 CURVE",
"419 845 LINE",
"419 803 OFFCURVE",
"396 766 OFFCURVE",
"350 766 CURVE SMOOTH",
"305 766 OFFCURVE",
"283 803 OFFCURVE",
"283 845 CURVE",
"193 845 LINE",
"193 747 OFFCURVE",
"257 688 OFFCURVE",
"350 688 CURVE SMOOTH"
);
}
);
width = 700;
}
);
leftKerningGroup = O;
note = Obreve;
rightKerningGroup = O;
unicode = 014E;
},
{
glyphname = Ocaron;
lastChange = "2015-10-24 14:39:47 +0000";
layers = (
{
layerId = "DC28F4C8-A185-470C-BBB7-1A994656B146";
name = Regular;
paths = (
{
closed = 1;
nodes = (
"557 -10 OFFCURVE",
"663 98 OFFCURVE",
"663 319 CURVE SMOOTH",
"663 555 OFFCURVE",
"557 654 OFFCURVE",
"350 654 CURVE SMOOTH",
"143 654 OFFCURVE",
"37 555 OFFCURVE",
"37 319 CURVE SMOOTH",
"37 98 OFFCURVE",
"143 -10 OFFCURVE",
"350 -10 CURVE SMOOTH"
);
},
{
closed = 1;
nodes = (
"229 105 OFFCURVE",
"174 174 OFFCURVE",
"174 319 CURVE SMOOTH",
"174 480 OFFCURVE",
"229 539 OFFCURVE",
"350 539 CURVE SMOOTH",
"471 539 OFFCURVE",
"526 480 OFFCURVE",
"526 319 CURVE SMOOTH",
"526 174 OFFCURVE",
"471 105 OFFCURVE",
"350 105 CURVE SMOOTH"
);
},
{
closed = 1;
nodes = (
"393 688 LINE",
"528 862 LINE",
"424 862 LINE",
"350 762 LINE",
"278 862 LINE",
"172 862 LINE",
"307 688 LINE"
);
}
);
width = 700;
}
);
leftKerningGroup = O;
note = Ocaron;
rightKerningGroup = O;
unicode = 01D1;
},
{
glyphname = Ocircumflex;
lastChange = "2015-10-24 14:39:47 +0000";
layers = (
{
layerId = "DC28F4C8-A185-470C-BBB7-1A994656B146";
name = Regular;
paths = (
{
closed = 1;
nodes = (
"557 -10 OFFCURVE",
"663 98 OFFCURVE",
"663 319 CURVE SMOOTH",
"663 555 OFFCURVE",
"557 654 OFFCURVE",
"350 654 CURVE SMOOTH",
"143 654 OFFCURVE",
"37 555 OFFCURVE",
"37 319 CURVE SMOOTH",
"37 98 OFFCURVE",
"143 -10 OFFCURVE",
"350 -10 CURVE SMOOTH"
);
},
{
closed = 1;
nodes = (
"229 105 OFFCURVE",
"174 174 OFFCURVE",
"174 319 CURVE SMOOTH",
"174 480 OFFCURVE",
"229 539 OFFCURVE",
"350 539 CURVE SMOOTH",
"471 539 OFFCURVE",
"526 480 OFFCURVE",
"526 319 CURVE SMOOTH",
"526 174 OFFCURVE",
"471 105 OFFCURVE",
"350 105 CURVE SMOOTH"
);
},
{
closed = 1;
nodes = (
"278 688 LINE",
"350 788 LINE",
"424 688 LINE",
"528 688 LINE",
"393 862 LINE",
"307 862 LINE",
"172 688 LINE"
);
}
);
width = 700;
}
);
leftKerningGroup = O;
note = Ocircumflex;
rightKerningGroup = O;
unicode = 00D4;
},
{
glyphname = Ocircumflexacute;
lastChange = "2015-10-24 14:39:47 +0000";
layers = (
{
layerId = "DC28F4C8-A185-470C-BBB7-1A994656B146";
name = Regular;
paths = (
{
closed = 1;
nodes = (
"557 -10 OFFCURVE",
"663 98 OFFCURVE",
"663 319 CURVE SMOOTH",
"663 555 OFFCURVE",
"557 654 OFFCURVE",
"350 654 CURVE SMOOTH",
"143 654 OFFCURVE",
"37 555 OFFCURVE",
"37 319 CURVE SMOOTH",
"37 98 OFFCURVE",
"143 -10 OFFCURVE",
"350 -10 CURVE SMOOTH"
);
},
{
closed = 1;
nodes = (
"229 105 OFFCURVE",
"174 174 OFFCURVE",
"174 319 CURVE SMOOTH",
"174 480 OFFCURVE",
"229 539 OFFCURVE",
"350 539 CURVE SMOOTH",
"471 539 OFFCURVE",
"526 480 OFFCURVE",
"526 319 CURVE SMOOTH",
"526 174 OFFCURVE",
"471 105 OFFCURVE",
"350 105 CURVE SMOOTH"
);
},
{
closed = 1;
nodes = (
"286 687 LINE",
"353 768 LINE",
"421 687 LINE",
"530 687 LINE",
"404 822 LINE",
"301 822 LINE",
"175 687 LINE"
);
},
{
closed = 1;
nodes = (
"549 804 LINE",
"622 945 LINE",
"520 945 LINE",
"454 804 LINE"
);
}
);
width = 700;
}
);
leftKerningGroup = O;
note = Ocircumflexacute;
rightKerningGroup = O;
unicode = 1ED0;
},
{
glyphname = Ocircumflexdotbelow;
lastChange = "2015-10-24 14:39:47 +0000";
layers = (
{
layerId = "DC28F4C8-A185-470C-BBB7-1A994656B146";
name = Regular;
paths = (
{
closed = 1;
nodes = (
"557 -10 OFFCURVE",
"663 98 OFFCURVE",
"663 319 CURVE SMOOTH",
"663 555 OFFCURVE",
"557 654 OFFCURVE",
"350 654 CURVE SMOOTH",
"143 654 OFFCURVE",
"37 555 OFFCURVE",
"37 319 CURVE SMOOTH",
"37 98 OFFCURVE",
"143 -10 OFFCURVE",
"350 -10 CURVE SMOOTH"
);
},
{
closed = 1;
nodes = (
"404 -181 LINE",
"404 -82 LINE",
"297 -82 LINE",
"297 -181 LINE"
);
},
{
closed = 1;
nodes = (
"229 105 OFFCURVE",
"174 174 OFFCURVE",
"174 319 CURVE SMOOTH",
"174 480 OFFCURVE",
"229 539 OFFCURVE",
"350 539 CURVE SMOOTH",
"471 539 OFFCURVE",
"526 480 OFFCURVE",
"526 319 CURVE SMOOTH",
"526 174 OFFCURVE",
"471 105 OFFCURVE",
"350 105 CURVE SMOOTH"
);
},
{
closed = 1;
nodes = (
"278 698 LINE",
"350 798 LINE",
"424 698 LINE",
"528 698 LINE",
"393 872 LINE",
"307 872 LINE",
"172 698 LINE"
);
}
);
width = 700;
}
);
leftKerningGroup = O;
note = Ocircumflexdotbelow;
rightKerningGroup = O;
unicode = 1ED8;
},
{
glyphname = Ocircumflexgrave;
lastChange = "2015-10-24 14:39:47 +0000";
layers = (
{
layerId = "DC28F4C8-A185-470C-BBB7-1A994656B146";
name = Regular;
paths = (
{
closed = 1;
nodes = (
"557 -10 OFFCURVE",
"663 98 OFFCURVE",
"663 319 CURVE SMOOTH",
"663 555 OFFCURVE",
"557 654 OFFCURVE",
"350 654 CURVE SMOOTH",
"143 654 OFFCURVE",
"37 555 OFFCURVE",
"37 319 CURVE SMOOTH",
"37 98 OFFCURVE",
"143 -10 OFFCURVE",
"350 -10 CURVE SMOOTH"
);
},
{
closed = 1;
nodes = (
"229 105 OFFCURVE",
"174 174 OFFCURVE",
"174 319 CURVE SMOOTH",
"174 480 OFFCURVE",
"229 539 OFFCURVE",
"350 539 CURVE SMOOTH",
"471 539 OFFCURVE",
"526 480 OFFCURVE",
"526 319 CURVE SMOOTH",
"526 174 OFFCURVE",
"471 105 OFFCURVE",
"350 105 CURVE SMOOTH"
);
},
{
closed = 1;
nodes = (
"246 804 LINE",
"180 945 LINE",
"78 945 LINE",
"151 804 LINE"
);
},
{
closed = 1;
nodes = (
"279 687 LINE",
"347 768 LINE",
"414 687 LINE",
"525 687 LINE",
"399 822 LINE",
"296 822 LINE",
"170 687 LINE"
);
}
);
width = 700;
}
);
leftKerningGroup = O;
note = Ocircumflexgrave;
rightKerningGroup = O;
unicode = 1ED2;
},
{
glyphname = Ocircumflexhookabove;
lastChange = "2015-10-24 14:39:47 +0000";
layers = (
{
layerId = "DC28F4C8-A185-470C-BBB7-1A994656B146";
name = Regular;
paths = (
{
closed = 1;
nodes = (
"557 -10 OFFCURVE",
"663 98 OFFCURVE",
"663 319 CURVE SMOOTH",
"663 555 OFFCURVE",
"557 654 OFFCURVE",
"350 654 CURVE SMOOTH",
"143 654 OFFCURVE",
"37 555 OFFCURVE",
"37 319 CURVE SMOOTH",
"37 98 OFFCURVE",
"143 -10 OFFCURVE",
"350 -10 CURVE SMOOTH"
);
},
{
closed = 1;
nodes = (
"229 105 OFFCURVE",
"174 174 OFFCURVE",
"174 319 CURVE SMOOTH",
"174 480 OFFCURVE",
"229 539 OFFCURVE",
"350 539 CURVE SMOOTH",
"471 539 OFFCURVE",
"526 480 OFFCURVE",
"526 319 CURVE SMOOTH",
"526 174 OFFCURVE",
"471 105 OFFCURVE",
"350 105 CURVE SMOOTH"
);
},
{
closed = 1;
nodes = (
"280 687 LINE",
"347 768 LINE",
"415 687 LINE",
"524 687 LINE",
"398 822 LINE",
"295 822 LINE",
"169 687 LINE"
);
},
{
closed = 1;
nodes = (
"550 782 LINE",
"550 816 LINE",
"603 824 OFFCURVE",
"626 851 OFFCURVE",
"626 895 CURVE SMOOTH",
"626 943 OFFCURVE",
"586 976 OFFCURVE",
"516 976 CURVE SMOOTH",
"479 976 OFFCURVE",
"454 971 OFFCURVE",
"433 964 CURVE",
"433 902 LINE",
"448 909 OFFCURVE",
"466 914 OFFCURVE",
"487 914 CURVE SMOOTH",
"517 914 OFFCURVE",
"532 907 OFFCURVE",
"532 887 CURVE SMOOTH",
"532 865 OFFCURVE",
"519 855 OFFCURVE",
"457 852 CURVE",
"457 782 LINE"
);
}
);
width = 700;
}
);
leftKerningGroup = O;
note = Ocircumflexhookabove;
rightKerningGroup = O;
unicode = 1ED4;
},
{
glyphname = Ocircumflextilde;
lastChange = "2015-10-24 14:39:49 +0000";
layers = (
{
layerId = "DC28F4C8-A185-470C-BBB7-1A994656B146";
name = Regular;
paths = (
{
closed = 1;
nodes = (
"557 -10 OFFCURVE",
"663 98 OFFCURVE",
"663 319 CURVE SMOOTH",
"663 555 OFFCURVE",
"557 654 OFFCURVE",
"350 654 CURVE SMOOTH",
"143 654 OFFCURVE",
"37 555 OFFCURVE",
"37 319 CURVE SMOOTH",
"37 98 OFFCURVE",
"143 -10 OFFCURVE",
"350 -10 CURVE SMOOTH"
);
},
{
closed = 1;
nodes = (
"229 105 OFFCURVE",
"174 174 OFFCURVE",
"174 319 CURVE SMOOTH",
"174 480 OFFCURVE",
"229 539 OFFCURVE",
"350 539 CURVE SMOOTH",
"471 539 OFFCURVE",
"526 480 OFFCURVE",
"526 319 CURVE SMOOTH",
"526 174 OFFCURVE",
"471 105 OFFCURVE",
"350 105 CURVE SMOOTH"
);
},
{
closed = 1;
nodes = (
"443 688 OFFCURVE",
"514 733 OFFCURVE",
"514 844 CURVE",
"434 844 LINE",
"434 789 OFFCURVE",
"403 759 OFFCURVE",
"350 759 CURVE SMOOTH",
"296 759 OFFCURVE",
"265 789 OFFCURVE",
"265 844 CURVE",
"185 844 LINE",
"185 733 OFFCURVE",
"256 688 OFFCURVE",
"350 688 CURVE SMOOTH"
);
},
{
closed = 1;
nodes = (
"473 865 OFFCURVE",
"503 879 OFFCURVE",
"516 897 CURVE",
"516 983 LINE",
"499 959 OFFCURVE",
"471 945 OFFCURVE",
"433 945 CURVE SMOOTH",
"377 945 OFFCURVE",
"333 985 OFFCURVE",
"272 985 CURVE SMOOTH",
"237 985 OFFCURVE",
"203 972 OFFCURVE",
"185 954 CURVE",
"185 868 LINE",
"208 893 OFFCURVE",
"238 905 OFFCURVE",
"275 905 CURVE SMOOTH",
"324 905 OFFCURVE",
"377 865 OFFCURVE",
"436 865 CURVE SMOOTH"
);
}
);
width = 700;
}
);
leftKerningGroup = O;
note = Ocircumflextilde;
rightKerningGroup = O;
unicode = 1ED6;
},
{
glyphname = Odieresis;
lastChange = "2015-10-24 14:39:48 +0000";
layers = (
{
layerId = "DC28F4C8-A185-470C-BBB7-1A994656B146";
name = Regular;
paths = (
{
closed = 1;
nodes = (
"557 -10 OFFCURVE",
"663 98 OFFCURVE",
"663 319 CURVE SMOOTH",
"663 555 OFFCURVE",
"557 654 OFFCURVE",
"350 654 CURVE SMOOTH",
"143 654 OFFCURVE",
"37 555 OFFCURVE",
"37 319 CURVE SMOOTH",
"37 98 OFFCURVE",
"143 -10 OFFCURVE",
"350 -10 CURVE SMOOTH"
);
},
{
closed = 1;
nodes = (
"229 105 OFFCURVE",
"174 174 OFFCURVE",
"174 319 CURVE SMOOTH",
"174 480 OFFCURVE",
"229 539 OFFCURVE",
"350 539 CURVE SMOOTH",
"471 539 OFFCURVE",
"526 480 OFFCURVE",
"526 319 CURVE SMOOTH",
"526 174 OFFCURVE",
"471 105 OFFCURVE",
"350 105 CURVE SMOOTH"
);
},
{
closed = 1;
nodes = (
"305 713 LINE",
"305 811 LINE",
"199 811 LINE",
"199 713 LINE"
);
},
{
closed = 1;
nodes = (
"501 713 LINE",
"501 811 LINE",
"395 811 LINE",
"395 713 LINE"
);
}
);
width = 700;
}
);
leftKerningGroup = O;
note = Odieresis;
rightKerningGroup = O;
unicode = 00D6;
},
{
glyphname = Odotbelow;
lastChange = "2015-10-24 14:39:47 +0000";
layers = (
{
layerId = "DC28F4C8-A185-470C-BBB7-1A994656B146";
name = Regular;
paths = (
{
closed = 1;
nodes = (
"557 -10 OFFCURVE",
"663 98 OFFCURVE",
"663 319 CURVE SMOOTH",
"663 555 OFFCURVE",
"557 654 OFFCURVE",
"350 654 CURVE SMOOTH",
"143 654 OFFCURVE",
"37 555 OFFCURVE",
"37 319 CURVE SMOOTH",
"37 98 OFFCURVE",
"143 -10 OFFCURVE",
"350 -10 CURVE SMOOTH"
);
},
{
closed = 1;
nodes = (
"404 -181 LINE",
"404 -82 LINE",
"297 -82 LINE",
"297 -181 LINE"
);
},
{
closed = 1;
nodes = (
"229 105 OFFCURVE",
"174 174 OFFCURVE",
"174 319 CURVE SMOOTH",
"174 480 OFFCURVE",
"229 539 OFFCURVE",
"350 539 CURVE SMOOTH",
"471 539 OFFCURVE",
"526 480 OFFCURVE",
"526 319 CURVE SMOOTH",
"526 174 OFFCURVE",
"471 105 OFFCURVE",
"350 105 CURVE SMOOTH"
);
}
);
width = 700;
}
);
leftKerningGroup = O;
note = Odotbelow;
rightKerningGroup = O;
unicode = 1ECC;
},
{
glyphname = Ograve;
lastChange = "2015-10-24 14:39:47 +0000";
layers = (
{
layerId = "DC28F4C8-A185-470C-BBB7-1A994656B146";
name = Regular;
paths = (
{
closed = 1;
nodes = (
"557 -10 OFFCURVE",
"663 98 OFFCURVE",
"663 319 CURVE SMOOTH",
"663 555 OFFCURVE",
"557 654 OFFCURVE",
"350 654 CURVE SMOOTH",
"143 654 OFFCURVE",
"37 555 OFFCURVE",
"37 319 CURVE SMOOTH",
"37 98 OFFCURVE",
"143 -10 OFFCURVE",
"350 -10 CURVE SMOOTH"
);
},
{
closed = 1;
nodes = (
"229 105 OFFCURVE",
"174 174 OFFCURVE",
"174 319 CURVE SMOOTH",
"174 480 OFFCURVE",
"229 539 OFFCURVE",
"350 539 CURVE SMOOTH",
"471 539 OFFCURVE",
"526 480 OFFCURVE",
"526 319 CURVE SMOOTH",
"526 174 OFFCURVE",
"471 105 OFFCURVE",
"350 105 CURVE SMOOTH"
);
},
{
closed = 1;
nodes = (
"410 688 LINE",
"330 875 LINE",
"213 875 LINE",
"301 688 LINE"
);
}
);
width = 700;
}
);
leftKerningGroup = O;
note = Ograve;
rightKerningGroup = O;
unicode = 00D2;
},
{
glyphname = Ohookabove;
lastChange = "2015-10-24 14:39:47 +0000";
layers = (
{
layerId = "DC28F4C8-A185-470C-BBB7-1A994656B146";
name = Regular;
paths = (
{
closed = 1;
nodes = (
"557 -10 OFFCURVE",
"663 98 OFFCURVE",
"663 319 CURVE SMOOTH",
"663 555 OFFCURVE",
"557 654 OFFCURVE",
"350 654 CURVE SMOOTH",
"143 654 OFFCURVE",
"37 555 OFFCURVE",
"37 319 CURVE SMOOTH",
"37 98 OFFCURVE",
"143 -10 OFFCURVE",
"350 -10 CURVE SMOOTH"
);
},
{
closed = 1;
nodes = (
"229 105 OFFCURVE",
"174 174 OFFCURVE",
"174 319 CURVE SMOOTH",
"174 480 OFFCURVE",
"229 539 OFFCURVE",
"350 539 CURVE SMOOTH",
"471 539 OFFCURVE",
"526 480 OFFCURVE",
"526 319 CURVE SMOOTH",
"526 174 OFFCURVE",
"471 105 OFFCURVE",
"350 105 CURVE SMOOTH"
);
},
{
closed = 1;
nodes = (
"402 687 LINE",
"402 733 LINE",
"466 745 OFFCURVE",
"489 772 OFFCURVE",
"489 828 CURVE SMOOTH",
"489 886 OFFCURVE",
"443 924 OFFCURVE",
"358 924 CURVE SMOOTH",
"319 924 OFFCURVE",
"282 919 OFFCURVE",
"258 911 CURVE",
"258 844 LINE",
"274 851 OFFCURVE",
"301 855 OFFCURVE",
"320 855 CURVE SMOOTH",
"363 855 OFFCURVE",
"389 843 OFFCURVE",
"389 816 CURVE SMOOTH",
"389 786 OFFCURVE",
"372 772 OFFCURVE",
"299 768 CURVE",
"299 687 LINE"
);
}
);
width = 700;
}
);
leftKerningGroup = O;
note = Ohookabove;
rightKerningGroup = O;
unicode = 1ECE;
},
{
glyphname = Ohorn;
lastChange = "2015-10-24 14:39:47 +0000";
layers = (
{
layerId = "DC28F4C8-A185-470C-BBB7-1A994656B146";
name = Regular;
paths = (
{
closed = 1;
nodes = (
"557 -10 OFFCURVE",
"663 98 OFFCURVE",
"663 319 CURVE SMOOTH",
"663 391 OFFCURVE",
"653 450 OFFCURVE",
"633 496 CURVE",
"724 511 OFFCURVE",
"767 562 OFFCURVE",
"767 688 CURVE",
"670 688 LINE",
"670 608 OFFCURVE",
"644 582 OFFCURVE",
"574 580 CURVE",
"523 630 OFFCURVE",
"449 654 OFFCURVE",
"350 654 CURVE SMOOTH",
"143 654 OFFCURVE",
"37 555 OFFCURVE",
"37 319 CURVE SMOOTH",
"37 98 OFFCURVE",
"143 -10 OFFCURVE",
"350 -10 CURVE SMOOTH"
);
},
{
closed = 1;
nodes = (
"229 105 OFFCURVE",
"174 174 OFFCURVE",
"174 319 CURVE SMOOTH",
"174 480 OFFCURVE",
"229 539 OFFCURVE",
"350 539 CURVE SMOOTH",
"471 539 OFFCURVE",
"526 480 OFFCURVE",
"526 319 CURVE SMOOTH",
"526 174 OFFCURVE",
"471 105 OFFCURVE",
"350 105 CURVE SMOOTH"
);
}
);
width = 780;
}
);
leftKerningGroup = O;
note = Ohorn;
rightKerningGroup = O;
unicode = 01A0;
},
{
glyphname = Ohornacute;
lastChange = "2015-10-24 14:39:47 +0000";
layers = (
{
layerId = "DC28F4C8-A185-470C-BBB7-1A994656B146";
name = Regular;
paths = (
{
closed = 1;
nodes = (
"557 -10 OFFCURVE",
"663 98 OFFCURVE",
"663 319 CURVE SMOOTH",
"663 391 OFFCURVE",
"653 450 OFFCURVE",
"633 496 CURVE",
"724 511 OFFCURVE",
"767 562 OFFCURVE",
"767 688 CURVE",
"670 688 LINE",
"670 608 OFFCURVE",
"644 582 OFFCURVE",
"574 580 CURVE",
"523 630 OFFCURVE",
"449 654 OFFCURVE",
"350 654 CURVE SMOOTH",
"143 654 OFFCURVE",
"37 555 OFFCURVE",
"37 319 CURVE SMOOTH",
"37 98 OFFCURVE",
"143 -10 OFFCURVE",
"350 -10 CURVE SMOOTH"
);
},
{
closed = 1;
nodes = (
"229 105 OFFCURVE",
"174 174 OFFCURVE",
"174 319 CURVE SMOOTH",
"174 480 OFFCURVE",
"229 539 OFFCURVE",
"350 539 CURVE SMOOTH",
"471 539 OFFCURVE",
"526 480 OFFCURVE",
"526 319 CURVE SMOOTH",
"526 174 OFFCURVE",
"471 105 OFFCURVE",
"350 105 CURVE SMOOTH"
);
},
{
closed = 1;
nodes = (
"414 688 LINE",
"502 875 LINE",
"385 875 LINE",
"305 688 LINE"
);
}
);
width = 780;
}
);
leftKerningGroup = O;
note = Ohornacute;
rightKerningGroup = O;
unicode = 1EDA;
},
{
glyphname = Ohorndotbelow;
lastChange = "2015-10-24 14:39:47 +0000";
layers = (
{
layerId = "DC28F4C8-A185-470C-BBB7-1A994656B146";
name = Regular;
paths = (
{
closed = 1;
nodes = (
"557 -10 OFFCURVE",
"663 98 OFFCURVE",
"663 319 CURVE SMOOTH",
"663 391 OFFCURVE",
"653 450 OFFCURVE",
"633 496 CURVE",
"724 511 OFFCURVE",
"767 562 OFFCURVE",
"767 688 CURVE",
"670 688 LINE",
"670 608 OFFCURVE",
"644 582 OFFCURVE",
"574 580 CURVE",
"523 630 OFFCURVE",
"449 654 OFFCURVE",
"350 654 CURVE SMOOTH",
"143 654 OFFCURVE",
"37 555 OFFCURVE",
"37 319 CURVE SMOOTH",
"37 98 OFFCURVE",
"143 -10 OFFCURVE",
"350 -10 CURVE SMOOTH"
);
},
{
closed = 1;
nodes = (
"407 -181 LINE",
"407 -82 LINE",
"300 -82 LINE",
"300 -181 LINE"
);
},
{
closed = 1;
nodes = (
"229 105 OFFCURVE",
"174 174 OFFCURVE",
"174 319 CURVE SMOOTH",
"174 480 OFFCURVE",
"229 539 OFFCURVE",
"350 539 CURVE SMOOTH",
"471 539 OFFCURVE",
"526 480 OFFCURVE",
"526 319 CURVE SMOOTH",
"526 174 OFFCURVE",
"471 105 OFFCURVE",
"350 105 CURVE SMOOTH"
);
}
);
width = 780;
}
);
leftKerningGroup = O;
note = Ohorndotbelow;
rightKerningGroup = O;
unicode = 1EE2;
},
{
glyphname = Ohorngrave;
lastChange = "2015-10-24 14:39:47 +0000";
layers = (
{
layerId = "DC28F4C8-A185-470C-BBB7-1A994656B146";
name = Regular;
paths = (
{
closed = 1;
nodes = (
"557 -10 OFFCURVE",
"663 98 OFFCURVE",
"663 319 CURVE SMOOTH",
"663 391 OFFCURVE",
"653 450 OFFCURVE",
"633 496 CURVE",
"724 511 OFFCURVE",
"767 562 OFFCURVE",
"767 688 CURVE",
"670 688 LINE",
"670 608 OFFCURVE",
"644 582 OFFCURVE",
"574 580 CURVE",
"523 630 OFFCURVE",
"449 654 OFFCURVE",
"350 654 CURVE SMOOTH",
"143 654 OFFCURVE",
"37 555 OFFCURVE",
"37 319 CURVE SMOOTH",
"37 98 OFFCURVE",
"143 -10 OFFCURVE",
"350 -10 CURVE SMOOTH"
);
},
{
closed = 1;
nodes = (
"229 105 OFFCURVE",
"174 174 OFFCURVE",
"174 319 CURVE SMOOTH",
"174 480 OFFCURVE",
"229 539 OFFCURVE",
"350 539 CURVE SMOOTH",
"471 539 OFFCURVE",
"526 480 OFFCURVE",
"526 319 CURVE SMOOTH",
"526 174 OFFCURVE",
"471 105 OFFCURVE",
"350 105 CURVE SMOOTH"
);
},
{
closed = 1;
nodes = (
"430 688 LINE",
"350 875 LINE",
"233 875 LINE",
"321 688 LINE"
);
}
);
width = 780;
}
);
leftKerningGroup = O;
note = Ohorngrave;
rightKerningGroup = O;
unicode = 1EDC;
},
{
glyphname = Ohornhookabove;
lastChange = "2015-10-24 14:39:47 +0000";
layers = (
{
layerId = "DC28F4C8-A185-470C-BBB7-1A994656B146";
name = Regular;
paths = (
{
closed = 1;
nodes = (
"557 -10 OFFCURVE",
"663 98 OFFCURVE",
"663 319 CURVE SMOOTH",
"663 391 OFFCURVE",
"653 450 OFFCURVE",
"633 496 CURVE",
"724 511 OFFCURVE",
"767 562 OFFCURVE",
"767 688 CURVE",
"670 688 LINE",
"670 608 OFFCURVE",
"644 582 OFFCURVE",
"574 580 CURVE",
"523 630 OFFCURVE",
"449 654 OFFCURVE",
"350 654 CURVE SMOOTH",
"143 654 OFFCURVE",
"37 555 OFFCURVE",
"37 319 CURVE SMOOTH",
"37 98 OFFCURVE",
"143 -10 OFFCURVE",
"350 -10 CURVE SMOOTH"
);
},
{
closed = 1;
nodes = (
"229 105 OFFCURVE",
"174 174 OFFCURVE",
"174 319 CURVE SMOOTH",
"174 480 OFFCURVE",
"229 539 OFFCURVE",
"350 539 CURVE SMOOTH",
"471 539 OFFCURVE",
"526 480 OFFCURVE",
"526 319 CURVE SMOOTH",
"526 174 OFFCURVE",
"471 105 OFFCURVE",
"350 105 CURVE SMOOTH"
);
},
{
closed = 1;
nodes = (
"406 687 LINE",
"406 733 LINE",
"470 745 OFFCURVE",
"493 772 OFFCURVE",
"493 828 CURVE SMOOTH",
"493 886 OFFCURVE",
"447 924 OFFCURVE",
"362 924 CURVE SMOOTH",
"323 924 OFFCURVE",
"286 919 OFFCURVE",
"262 911 CURVE",
"262 844 LINE",
"278 851 OFFCURVE",
"305 855 OFFCURVE",
"324 855 CURVE SMOOTH",
"367 855 OFFCURVE",
"393 843 OFFCURVE",
"393 816 CURVE SMOOTH",
"393 786 OFFCURVE",
"376 772 OFFCURVE",
"303 768 CURVE",
"303 687 LINE"
);
}
);
width = 780;
}
);
leftKerningGroup = O;
note = Ohornhookabove;
rightKerningGroup = O;
unicode = 1EDE;
},
{
glyphname = Ohorntilde;
lastChange = "2015-10-24 14:39:48 +0000";
layers = (
{
layerId = "DC28F4C8-A185-470C-BBB7-1A994656B146";
name = Regular;
paths = (
{
closed = 1;
nodes = (
"557 -10 OFFCURVE",
"663 98 OFFCURVE",
"663 319 CURVE SMOOTH",
"663 391 OFFCURVE",
"653 450 OFFCURVE",
"633 496 CURVE",
"724 511 OFFCURVE",
"767 562 OFFCURVE",
"767 688 CURVE",
"670 688 LINE",
"670 608 OFFCURVE",
"644 582 OFFCURVE",
"574 580 CURVE",
"523 630 OFFCURVE",
"449 654 OFFCURVE",
"350 654 CURVE SMOOTH",
"143 654 OFFCURVE",
"37 555 OFFCURVE",
"37 319 CURVE SMOOTH",
"37 98 OFFCURVE",
"143 -10 OFFCURVE",
"350 -10 CURVE SMOOTH"
);
},
{
closed = 1;
nodes = (
"229 105 OFFCURVE",
"174 174 OFFCURVE",
"174 319 CURVE SMOOTH",
"174 480 OFFCURVE",
"229 539 OFFCURVE",
"350 539 CURVE SMOOTH",
"471 539 OFFCURVE",
"526 480 OFFCURVE",
"526 319 CURVE SMOOTH",
"526 174 OFFCURVE",
"471 105 OFFCURVE",
"350 105 CURVE SMOOTH"
);
},
{
closed = 1;
nodes = (
"484 697 OFFCURVE",
"514 711 OFFCURVE",
"527 729 CURVE",
"527 825 LINE",
"510 801 OFFCURVE",
"482 787 OFFCURVE",
"444 787 CURVE SMOOTH",
"388 787 OFFCURVE",
"344 827 OFFCURVE",
"283 827 CURVE SMOOTH",
"248 827 OFFCURVE",
"214 814 OFFCURVE",
"196 796 CURVE",
"196 700 LINE",
"219 725 OFFCURVE",
"249 737 OFFCURVE",
"286 737 CURVE SMOOTH",
"335 737 OFFCURVE",
"388 697 OFFCURVE",
"447 697 CURVE SMOOTH"
);
}
);
width = 780;
}
);
leftKerningGroup = O;
note = Ohorntilde;
rightKerningGroup = O;
unicode = 1EE0;
},
{
glyphname = Ohungarumlaut;
lastChange = "2015-10-24 14:39:48 +0000";
layers = (
{
layerId = "DC28F4C8-A185-470C-BBB7-1A994656B146";
name = Regular;
paths = (
{
closed = 1;
nodes = (
"557 -10 OFFCURVE",
"663 98 OFFCURVE",
"663 319 CURVE SMOOTH",
"663 555 OFFCURVE",
"557 654 OFFCURVE",
"350 654 CURVE SMOOTH",
"143 654 OFFCURVE",
"37 555 OFFCURVE",
"37 319 CURVE SMOOTH",
"37 98 OFFCURVE",
"143 -10 OFFCURVE",
"350 -10 CURVE SMOOTH"
);
},
{
closed = 1;
nodes = (
"229 105 OFFCURVE",
"174 174 OFFCURVE",
"174 319 CURVE SMOOTH",
"174 480 OFFCURVE",
"229 539 OFFCURVE",
"350 539 CURVE SMOOTH",
"471 539 OFFCURVE",
"526 480 OFFCURVE",
"526 319 CURVE SMOOTH",
"526 174 OFFCURVE",
"471 105 OFFCURVE",
"350 105 CURVE SMOOTH"
);
},
{
closed = 1;
nodes = (
"261 687 LINE",
"353 863 LINE",
"233 863 LINE",
"154 687 LINE"
);
},
{
closed = 1;
nodes = (
"489 687 LINE",
"581 863 LINE",
"461 863 LINE",
"382 687 LINE"
);
}
);
width = 700;
}
);
leftKerningGroup = O;
note = Ohungarumlaut;
rightKerningGroup = O;
unicode = 0150;
},
{
glyphname = Omacron;
lastChange = "2015-10-24 14:39:48 +0000";
layers = (
{
layerId = "DC28F4C8-A185-470C-BBB7-1A994656B146";
name = Regular;
paths = (
{
closed = 1;
nodes = (
"557 -10 OFFCURVE",
"663 98 OFFCURVE",
"663 319 CURVE SMOOTH",
"663 555 OFFCURVE",
"557 654 OFFCURVE",
"350 654 CURVE SMOOTH",
"143 654 OFFCURVE",
"37 555 OFFCURVE",
"37 319 CURVE SMOOTH",
"37 98 OFFCURVE",
"143 -10 OFFCURVE",
"350 -10 CURVE SMOOTH"
);
},
{
closed = 1;
nodes = (
"229 105 OFFCURVE",
"174 174 OFFCURVE",
"174 319 CURVE SMOOTH",
"174 480 OFFCURVE",
"229 539 OFFCURVE",
"350 539 CURVE SMOOTH",
"471 539 OFFCURVE",
"526 480 OFFCURVE",
"526 319 CURVE SMOOTH",
"526 174 OFFCURVE",
"471 105 OFFCURVE",
"350 105 CURVE SMOOTH"
);
},
{
closed = 1;
nodes = (
"501 723 LINE",
"501 806 LINE",
"193 806 LINE",
"193 723 LINE"
);
}
);
width = 700;
}
);
leftKerningGroup = O;
note = Omacron;
rightKerningGroup = O;
unicode = 014C;
},
{
glyphname = Oslash;
lastChange = "2015-10-24 14:39:48 +0000";
layers = (
{
layerId = "DC28F4C8-A185-470C-BBB7-1A994656B146";
name = Regular;
paths = (
{
closed = 1;
nodes = (
"238 -53 LINE",
"257 -1 LINE",
"285 -7 OFFCURVE",
"316 -10 OFFCURVE",
"350 -10 CURVE SMOOTH",
"557 -10 OFFCURVE",
"663 98 OFFCURVE",
"663 319 CURVE SMOOTH",
"663 490 OFFCURVE",
"607 589 OFFCURVE",
"498 630 CURVE",
"522 693 LINE",
"445 693 LINE",
"428 648 LINE",
"404 652 OFFCURVE",
"378 654 OFFCURVE",
"350 654 CURVE SMOOTH",
"143 654 OFFCURVE",
"37 555 OFFCURVE",
"37 319 CURVE SMOOTH",
"37 165 OFFCURVE",
"88 66 OFFCURVE",
"189 20 CURVE",
"161 -53 LINE"
);
},
{
closed = 1;
nodes = (
"193 174 OFFCURVE",
"174 233 OFFCURVE",
"174 319 CURVE SMOOTH",
"174 480 OFFCURVE",
"229 539 OFFCURVE",
"350 539 CURVE SMOOTH",
"362 539 OFFCURVE",
"374 538 OFFCURVE",
"385 537 CURVE",
"234 140 LINE"
);
},
{
closed = 1;
nodes = (
"332 105 OFFCURVE",
"315 106 OFFCURVE",
"300 109 CURVE",
"454 515 LINE",
"503 484 OFFCURVE",
"526 423 OFFCURVE",
"526 319 CURVE SMOOTH",
"526 174 OFFCURVE",
"471 105 OFFCURVE",
"350 105 CURVE SMOOTH"
);
}
);
width = 700;
}
);
leftKerningGroup = O;
note = Oslash;
rightKerningGroup = O;
unicode = 00D8;
},
{
glyphname = Oslashacute;
lastChange = "2015-10-24 14:39:47 +0000";
layers = (
{
layerId = "DC28F4C8-A185-470C-BBB7-1A994656B146";
name = Regular;
paths = (
{
closed = 1;
nodes = (
"238 -53 LINE",
"257 -1 LINE",
"285 -7 OFFCURVE",
"316 -10 OFFCURVE",
"350 -10 CURVE SMOOTH",
"557 -10 OFFCURVE",
"663 98 OFFCURVE",
"663 319 CURVE SMOOTH",
"663 490 OFFCURVE",
"607 589 OFFCURVE",
"498 630 CURVE",
"522 693 LINE",
"445 693 LINE",
"428 648 LINE",
"404 652 OFFCURVE",
"378 654 OFFCURVE",
"350 654 CURVE SMOOTH",
"143 654 OFFCURVE",
"37 555 OFFCURVE",
"37 319 CURVE SMOOTH",
"37 165 OFFCURVE",
"88 66 OFFCURVE",
"189 20 CURVE",
"161 -53 LINE"
);
},
{
closed = 1;
nodes = (
"193 174 OFFCURVE",
"174 233 OFFCURVE",
"174 319 CURVE SMOOTH",
"174 480 OFFCURVE",
"229 539 OFFCURVE",
"350 539 CURVE SMOOTH",
"362 539 OFFCURVE",
"374 538 OFFCURVE",
"385 537 CURVE",
"234 140 LINE"
);
},
{
closed = 1;
nodes = (
"332 105 OFFCURVE",
"315 106 OFFCURVE",
"300 109 CURVE",
"454 515 LINE",
"503 484 OFFCURVE",
"526 423 OFFCURVE",
"526 319 CURVE SMOOTH",
"526 174 OFFCURVE",
"471 105 OFFCURVE",
"350 105 CURVE SMOOTH"
);
},
{
closed = 1;
nodes = (
"378 688 LINE",
"466 875 LINE",
"349 875 LINE",
"269 688 LINE"
);
}
);
width = 700;
}
);
leftKerningGroup = O;
note = Oslashacute;
rightKerningGroup = O;
unicode = 01FE;
},
{
glyphname = Otilde;
lastChange = "2015-10-24 14:39:47 +0000";
layers = (
{
layerId = "DC28F4C8-A185-470C-BBB7-1A994656B146";
name = Regular;
paths = (
{
closed = 1;
nodes = (
"557 -10 OFFCURVE",
"663 98 OFFCURVE",
"663 319 CURVE SMOOTH",
"663 555 OFFCURVE",
"557 654 OFFCURVE",
"350 654 CURVE SMOOTH",
"143 654 OFFCURVE",
"37 555 OFFCURVE",
"37 319 CURVE SMOOTH",
"37 98 OFFCURVE",
"143 -10 OFFCURVE",
"350 -10 CURVE SMOOTH"
);
},
{
closed = 1;
nodes = (
"229 105 OFFCURVE",
"174 174 OFFCURVE",
"174 319 CURVE SMOOTH",
"174 480 OFFCURVE",
"229 539 OFFCURVE",
"350 539 CURVE SMOOTH",
"471 539 OFFCURVE",
"526 480 OFFCURVE",
"526 319 CURVE SMOOTH",
"526 174 OFFCURVE",
"471 105 OFFCURVE",
"350 105 CURVE SMOOTH"
);
},
{
closed = 1;
nodes = (
"473 710 OFFCURVE",
"503 724 OFFCURVE",
"516 742 CURVE",
"516 838 LINE",
"499 814 OFFCURVE",
"471 800 OFFCURVE",
"433 800 CURVE SMOOTH",
"377 800 OFFCURVE",
"333 840 OFFCURVE",
"272 840 CURVE SMOOTH",
"237 840 OFFCURVE",
"203 827 OFFCURVE",
"185 809 CURVE",
"185 713 LINE",
"208 738 OFFCURVE",
"238 750 OFFCURVE",
"275 750 CURVE SMOOTH",
"324 750 OFFCURVE",
"377 710 OFFCURVE",
"436 710 CURVE SMOOTH"
);
}
);
width = 700;
}
);
leftKerningGroup = O;
note = Otilde;
rightKerningGroup = O;
unicode = 00D5;
},
{
glyphname = OE;
lastChange = "2015-10-24 14:39:47 +0000";
layers = (
{
layerId = "DC28F4C8-A185-470C-BBB7-1A994656B146";
name = Regular;
paths = (
{
closed = 1;
nodes = (
"557 -10 OFFCURVE",
"663 98 OFFCURVE",
"663 319 CURVE SMOOTH",
"663 555 OFFCURVE",
"557 654 OFFCURVE",
"350 654 CURVE SMOOTH",
"143 654 OFFCURVE",
"37 555 OFFCURVE",
"37 319 CURVE SMOOTH",
"37 98 OFFCURVE",
"143 -10 OFFCURVE",
"350 -10 CURVE SMOOTH"
);
},
{
closed = 1;
nodes = (
"229 105 OFFCURVE",
"174 174 OFFCURVE",
"174 319 CURVE SMOOTH",
"174 480 OFFCURVE",
"229 539 OFFCURVE",
"350 539 CURVE SMOOTH",
"471 539 OFFCURVE",
"526 480 OFFCURVE",
"526 319 CURVE SMOOTH",
"526 174 OFFCURVE",
"471 105 OFFCURVE",
"350 105 CURVE SMOOTH"
);
},
{
closed = 1;
nodes = (
"990 0 LINE",
"990 104 LINE",
"663 104 LINE",
"663 270 LINE",
"953 270 LINE",
"953 374 LINE",
"663 374 LINE",
"663 539 LINE",
"990 539 LINE",
"990 644 LINE",
"528 644 LINE",
"528 0 LINE"
);
}
);
width = 1027;
}
);
leftKerningGroup = O;
note = OE;
rightKerningGroup = E;
unicode = 0152;
},
{
glyphname = P;
lastChange = "2015-10-24 14:39:47 +0000";
layers = (
{
layerId = "DC28F4C8-A185-470C-BBB7-1A994656B146";
name = Regular;
paths = (
{
closed = 1;
nodes = (
"192 0 LINE",
"192 202 LINE",
"355 202 LINE SMOOTH",
"493 202 OFFCURVE",
"580 291 OFFCURVE",
"580 422 CURVE SMOOTH",
"580 549 OFFCURVE",
"510 644 OFFCURVE",
"359 644 CURVE SMOOTH",
"57 644 LINE",
"57 0 LINE"
);
},
{
closed = 1;
nodes = (
"192 537 LINE",
"332 537 LINE SMOOTH",
"407 537 OFFCURVE",
"444 496 OFFCURVE",
"444 422 CURVE SMOOTH",
"444 353 OFFCURVE",
"404 309 OFFCURVE",
"327 309 CURVE SMOOTH",
"192 309 LINE"
);
}
);
width = 598;
}
);
note = P;
unicode = 0050;
},
{
glyphname = Thorn;
lastChange = "2015-10-24 14:39:48 +0000";
layers = (
{
layerId = "DC28F4C8-A185-470C-BBB7-1A994656B146";
name = Regular;
paths = (
{
closed = 1;
nodes = (
"192 0 LINE",
"192 100 LINE",
"355 100 LINE SMOOTH",
"493 100 OFFCURVE",
"580 189 OFFCURVE",
"580 320 CURVE SMOOTH",
"580 447 OFFCURVE",
"510 542 OFFCURVE",
"359 542 CURVE SMOOTH",
"192 542 LINE",
"192 644 LINE",
"57 644 LINE",
"57 0 LINE"
);
},
{
closed = 1;
nodes = (
"192 435 LINE",
"332 435 LINE SMOOTH",
"407 435 OFFCURVE",
"444 394 OFFCURVE",
"444 320 CURVE SMOOTH",
"444 251 OFFCURVE",
"404 207 OFFCURVE",
"327 207 CURVE SMOOTH",
"192 207 LINE"
);
}
);
width = 617;
}
);
note = Thorn;
unicode = 00DE;
},
{
glyphname = Q;
lastChange = "2015-10-24 14:39:47 +0000";
layers = (
{
layerId = "DC28F4C8-A185-470C-BBB7-1A994656B146";
name = Regular;
paths = (
{
closed = 1;
nodes = (
"479 -172 OFFCURVE",
"520 -166 OFFCURVE",
"543 -159 CURVE",
"543 -65 LINE",
"522 -72 OFFCURVE",
"494 -76 OFFCURVE",
"472 -76 CURVE SMOOTH",
"422 -76 OFFCURVE",
"400 -62 OFFCURVE",
"398 -8 CURVE",
"573 8 OFFCURVE",
"663 116 OFFCURVE",
"663 319 CURVE SMOOTH",
"663 555 OFFCURVE",
"557 654 OFFCURVE",
"350 654 CURVE SMOOTH",
"143 654 OFFCURVE",
"37 555 OFFCURVE",
"37 319 CURVE SMOOTH",
"37 123 OFFCURVE",
"120 16 OFFCURVE",
"283 -6 CURVE",
"286 -113 OFFCURVE",
"334 -172 OFFCURVE",
"441 -172 CURVE SMOOTH"
);
},
{
closed = 1;
nodes = (
"229 105 OFFCURVE",
"174 174 OFFCURVE",
"174 319 CURVE SMOOTH",
"174 480 OFFCURVE",
"229 539 OFFCURVE",
"350 539 CURVE SMOOTH",
"471 539 OFFCURVE",
"526 480 OFFCURVE",
"526 319 CURVE SMOOTH",
"526 174 OFFCURVE",
"471 105 OFFCURVE",
"350 105 CURVE SMOOTH"
);
}
);
width = 700;
}
);
leftKerningGroup = O;
note = Q;
rightKerningGroup = O;
unicode = 0051;
},
{
glyphname = R;
lastChange = "2015-10-24 14:39:48 +0000";
layers = (
{
layerId = "DC28F4C8-A185-470C-BBB7-1A994656B146";
name = Regular;
paths = (
{
closed = 1;
nodes = (
"192 0 LINE",
"192 213 LINE",
"298 213 LINE SMOOTH",
"335 213 OFFCURVE",
"347 202 OFFCURVE",
"360 173 CURVE SMOOTH",
"436 0 LINE",
"576 0 LINE",
"498 180 LINE SMOOTH",
"484 213 OFFCURVE",
"474 230 OFFCURVE",
"453 248 CURVE",
"534 276 OFFCURVE",
"581 341 OFFCURVE",
"581 428 CURVE SMOOTH",
"581 560 OFFCURVE",
"514 644 OFFCURVE",
"366 644 CURVE SMOOTH",
"57 644 LINE",
"57 0 LINE"
);
},
{
closed = 1;
nodes = (
"192 532 LINE",
"339 532 LINE SMOOTH",
"409 532 OFFCURVE",
"444 500 OFFCURVE",
"444 428 CURVE SMOOTH",
"444 353 OFFCURVE",
"402 325 OFFCURVE",
"331 325 CURVE SMOOTH",
"192 325 LINE"
);
}
);
width = 618;
}
);
note = R;
rightKerningGroup = R;
unicode = 0052;
},
{
glyphname = Racute;
lastChange = "2015-10-24 14:39:48 +0000";
layers = (
{
layerId = "DC28F4C8-A185-470C-BBB7-1A994656B146";
name = Regular;
paths = (
{
closed = 1;
nodes = (
"192 0 LINE",
"192 213 LINE",
"298 213 LINE SMOOTH",
"335 213 OFFCURVE",
"347 202 OFFCURVE",
"360 173 CURVE SMOOTH",
"436 0 LINE",
"576 0 LINE",
"498 180 LINE SMOOTH",
"484 213 OFFCURVE",
"474 230 OFFCURVE",
"453 248 CURVE",
"534 276 OFFCURVE",
"581 341 OFFCURVE",
"581 428 CURVE SMOOTH",
"581 560 OFFCURVE",
"514 644 OFFCURVE",
"366 644 CURVE SMOOTH",
"57 644 LINE",
"57 0 LINE"
);
},
{
closed = 1;
nodes = (
"192 532 LINE",
"339 532 LINE SMOOTH",
"409 532 OFFCURVE",
"444 500 OFFCURVE",
"444 428 CURVE SMOOTH",
"444 353 OFFCURVE",
"402 325 OFFCURVE",
"331 325 CURVE SMOOTH",
"192 325 LINE"
);
},
{
closed = 1;
nodes = (
"342 688 LINE",
"430 875 LINE",
"313 875 LINE",
"233 688 LINE"
);
}
);
width = 618;
}
);
note = Racute;
rightKerningGroup = R;
unicode = 0154;
},
{
glyphname = Rcaron;
lastChange = "2015-10-24 14:39:48 +0000";
layers = (
{
layerId = "DC28F4C8-A185-470C-BBB7-1A994656B146";
name = Regular;
paths = (
{
closed = 1;
nodes = (
"192 0 LINE",
"192 213 LINE",
"298 213 LINE SMOOTH",
"335 213 OFFCURVE",
"347 202 OFFCURVE",
"360 173 CURVE SMOOTH",
"436 0 LINE",
"576 0 LINE",
"498 180 LINE SMOOTH",
"484 213 OFFCURVE",
"474 230 OFFCURVE",
"453 248 CURVE",
"534 276 OFFCURVE",
"581 341 OFFCURVE",
"581 428 CURVE SMOOTH",
"581 560 OFFCURVE",
"514 644 OFFCURVE",
"366 644 CURVE SMOOTH",
"57 644 LINE",
"57 0 LINE"
);
},
{
closed = 1;
nodes = (
"192 532 LINE",
"339 532 LINE SMOOTH",
"409 532 OFFCURVE",
"444 500 OFFCURVE",
"444 428 CURVE SMOOTH",
"444 353 OFFCURVE",
"402 325 OFFCURVE",
"331 325 CURVE SMOOTH",
"192 325 LINE"
);
},
{
closed = 1;
nodes = (
"344 688 LINE",
"479 862 LINE",
"375 862 LINE",
"301 762 LINE",
"229 862 LINE",
"123 862 LINE",
"258 688 LINE"
);
}
);
width = 618;
}
);
note = Rcaron;
rightKerningGroup = R;
unicode = 0158;
},
{
glyphname = Rcommaaccent;
lastChange = "2015-10-24 14:39:47 +0000";
layers = (
{
layerId = "DC28F4C8-A185-470C-BBB7-1A994656B146";
name = Regular;
paths = (
{
closed = 1;
nodes = (
"192 0 LINE",
"192 213 LINE",
"298 213 LINE SMOOTH",
"335 213 OFFCURVE",
"347 202 OFFCURVE",
"360 173 CURVE SMOOTH",
"436 0 LINE",
"576 0 LINE",
"498 180 LINE SMOOTH",
"484 213 OFFCURVE",
"474 230 OFFCURVE",
"453 248 CURVE",
"534 276 OFFCURVE",
"581 341 OFFCURVE",
"581 428 CURVE SMOOTH",
"581 560 OFFCURVE",
"514 644 OFFCURVE",
"366 644 CURVE SMOOTH",
"57 644 LINE",
"57 0 LINE"
);
},
{
closed = 1;
nodes = (
"302 -238 LINE",
"352 -37 LINE",
"246 -37 LINE",
"215 -238 LINE"
);
},
{
closed = 1;
nodes = (
"192 532 LINE",
"339 532 LINE SMOOTH",
"409 532 OFFCURVE",
"444 500 OFFCURVE",
"444 428 CURVE SMOOTH",
"444 353 OFFCURVE",
"402 325 OFFCURVE",
"331 325 CURVE SMOOTH",
"192 325 LINE"
);
}
);
width = 618;
}
);
note = Rcommaaccent;
rightKerningGroup = R;
unicode = 0156;
},
{
glyphname = Rdotbelow;
lastChange = "2015-10-24 14:39:47 +0000";
layers = (
{
layerId = "DC28F4C8-A185-470C-BBB7-1A994656B146";
name = Regular;
paths = (
{
closed = 1;
nodes = (
"192 0 LINE",
"192 213 LINE",
"298 213 LINE SMOOTH",
"335 213 OFFCURVE",
"347 202 OFFCURVE",
"360 173 CURVE SMOOTH",
"436 0 LINE",
"576 0 LINE",
"498 180 LINE SMOOTH",
"484 213 OFFCURVE",
"474 230 OFFCURVE",
"453 248 CURVE",
"534 276 OFFCURVE",
"581 341 OFFCURVE",
"581 428 CURVE SMOOTH",
"581 560 OFFCURVE",
"514 644 OFFCURVE",
"366 644 CURVE SMOOTH",
"57 644 LINE",
"57 0 LINE"
);
},
{
closed = 1;
nodes = (
"365 -181 LINE",
"365 -82 LINE",
"258 -82 LINE",
"258 -181 LINE"
);
},
{
closed = 1;
nodes = (
"192 532 LINE",
"339 532 LINE SMOOTH",
"409 532 OFFCURVE",
"444 500 OFFCURVE",
"444 428 CURVE SMOOTH",
"444 353 OFFCURVE",
"402 325 OFFCURVE",
"331 325 CURVE SMOOTH",
"192 325 LINE"
);
}
);
width = 618;
}
);
note = Rdotbelow;
rightKerningGroup = R;
unicode = 1E5A;
},
{
glyphname = Rdotbelowmacron;
lastChange = "2015-10-24 14:39:48 +0000";
layers = (
{
layerId = "DC28F4C8-A185-470C-BBB7-1A994656B146";
name = Regular;
paths = (
{
closed = 1;
nodes = (
"192 0 LINE",
"192 213 LINE",
"298 213 LINE SMOOTH",
"335 213 OFFCURVE",
"347 202 OFFCURVE",
"360 173 CURVE SMOOTH",
"436 0 LINE",
"576 0 LINE",
"498 180 LINE SMOOTH",
"484 213 OFFCURVE",
"474 230 OFFCURVE",
"453 248 CURVE",
"534 276 OFFCURVE",
"581 341 OFFCURVE",
"581 428 CURVE SMOOTH",
"581 560 OFFCURVE",
"514 644 OFFCURVE",
"366 644 CURVE SMOOTH",
"57 644 LINE",
"57 0 LINE"
);
},
{
closed = 1;
nodes = (
"348 -181 LINE",
"348 -82 LINE",
"241 -82 LINE",
"241 -181 LINE"
);
},
{
closed = 1;
nodes = (
"192 532 LINE",
"339 532 LINE SMOOTH",
"409 532 OFFCURVE",
"444 500 OFFCURVE",
"444 428 CURVE SMOOTH",
"444 353 OFFCURVE",
"402 325 OFFCURVE",
"331 325 CURVE SMOOTH",
"192 325 LINE"
);
},
{
closed = 1;
nodes = (
"449 717 LINE",
"449 800 LINE",
"141 800 LINE",
"141 717 LINE"
);
}
);
width = 618;
}
);
note = Rdotbelowmacron;
rightKerningGroup = R;
unicode = 1E5C;
},
{
glyphname = Rlinebelow;
lastChange = "2015-10-24 14:39:47 +0000";
layers = (
{
layerId = "DC28F4C8-A185-470C-BBB7-1A994656B146";
name = Regular;
paths = (
{
closed = 1;
nodes = (
"192 0 LINE",
"192 213 LINE",
"298 213 LINE SMOOTH",
"335 213 OFFCURVE",
"347 202 OFFCURVE",
"360 173 CURVE SMOOTH",
"436 0 LINE",
"576 0 LINE",
"498 180 LINE SMOOTH",
"484 213 OFFCURVE",
"474 230 OFFCURVE",
"453 248 CURVE",
"534 276 OFFCURVE",
"581 341 OFFCURVE",
"581 428 CURVE SMOOTH",
"581 560 OFFCURVE",
"514 644 OFFCURVE",
"366 644 CURVE SMOOTH",
"57 644 LINE",
"57 0 LINE"
);
},
{
closed = 1;
nodes = (
"452 -155 LINE",
"452 -72 LINE",
"144 -72 LINE",
"144 -155 LINE"
);
},
{
closed = 1;
nodes = (
"192 532 LINE",
"339 532 LINE SMOOTH",
"409 532 OFFCURVE",
"444 500 OFFCURVE",
"444 428 CURVE SMOOTH",
"444 353 OFFCURVE",
"402 325 OFFCURVE",
"331 325 CURVE SMOOTH",
"192 325 LINE"
);
}
);
width = 618;
}
);
note = Rlinebelow;
rightKerningGroup = R;
unicode = 1E5E;
},
{
glyphname = S;
lastChange = "2015-10-24 14:39:47 +0000";
layers = (
{
layerId = "DC28F4C8-A185-470C-BBB7-1A994656B146";
name = Regular;
paths = (
{
closed = 1;
nodes = (
"434 -10 OFFCURVE",
"518 64 OFFCURVE",
"518 176 CURVE SMOOTH",
"518 268 OFFCURVE",
"478 333 OFFCURVE",
"320 375 CURVE SMOOTH",
"206 405 OFFCURVE",
"174 419 OFFCURVE",
"174 469 CURVE SMOOTH",
"174 526 OFFCURVE",
"225 539 OFFCURVE",
"309 539 CURVE SMOOTH",
"367 539 OFFCURVE",
"427 528 OFFCURVE",
"480 508 CURVE",
"480 627 LINE",
"439 642 OFFCURVE",
"368 654 OFFCURVE",
"291 654 CURVE SMOOTH",
"125 654 OFFCURVE",
"37 587 OFFCURVE",
"37 469 CURVE SMOOTH",
"37 370 OFFCURVE",
"85 320 OFFCURVE",
"220 283 CURVE SMOOTH",
"345 249 OFFCURVE",
"380 234 OFFCURVE",
"380 176 CURVE SMOOTH",
"380 115 OFFCURVE",
"337 104 OFFCURVE",
"244 104 CURVE SMOOTH",
"179 104 OFFCURVE",
"107 120 OFFCURVE",
"49 144 CURVE",
"49 25 LINE",
"101 2 OFFCURVE",
"174 -10 OFFCURVE",
"257 -10 CURVE SMOOTH"
);
}
);
width = 555;
}
);
leftKerningGroup = S;
note = S;
rightKerningGroup = S;
unicode = 0053;
},
{
glyphname = Sacute;
lastChange = "2015-10-24 14:39:47 +0000";
layers = (
{
layerId = "DC28F4C8-A185-470C-BBB7-1A994656B146";
name = Regular;
paths = (
{
closed = 1;
nodes = (
"434 -10 OFFCURVE",
"518 64 OFFCURVE",
"518 176 CURVE SMOOTH",
"518 268 OFFCURVE",
"478 333 OFFCURVE",
"320 375 CURVE SMOOTH",
"206 405 OFFCURVE",
"174 419 OFFCURVE",
"174 469 CURVE SMOOTH",
"174 526 OFFCURVE",
"225 539 OFFCURVE",
"309 539 CURVE SMOOTH",
"367 539 OFFCURVE",
"427 528 OFFCURVE",
"480 508 CURVE",
"480 627 LINE",
"439 642 OFFCURVE",
"368 654 OFFCURVE",
"291 654 CURVE SMOOTH",
"125 654 OFFCURVE",
"37 587 OFFCURVE",
"37 469 CURVE SMOOTH",
"37 370 OFFCURVE",
"85 320 OFFCURVE",
"220 283 CURVE SMOOTH",
"345 249 OFFCURVE",
"380 234 OFFCURVE",
"380 176 CURVE SMOOTH",
"380 115 OFFCURVE",
"337 104 OFFCURVE",
"244 104 CURVE SMOOTH",
"179 104 OFFCURVE",
"107 120 OFFCURVE",
"49 144 CURVE",
"49 25 LINE",
"101 2 OFFCURVE",
"174 -10 OFFCURVE",
"257 -10 CURVE SMOOTH"
);
},
{
closed = 1;
nodes = (
"321 694 LINE",
"409 881 LINE",
"292 881 LINE",
"212 694 LINE"
);
}
);
width = 555;
}
);
leftKerningGroup = S;
note = Sacute;
rightKerningGroup = S;
unicode = 015A;
},
{
glyphname = Scaron;
lastChange = "2015-10-24 14:39:48 +0000";
layers = (
{
layerId = "DC28F4C8-A185-470C-BBB7-1A994656B146";
name = Regular;
paths = (
{
closed = 1;
nodes = (
"434 -10 OFFCURVE",
"518 64 OFFCURVE",
"518 176 CURVE SMOOTH",
"518 268 OFFCURVE",
"478 333 OFFCURVE",
"320 375 CURVE SMOOTH",
"206 405 OFFCURVE",
"174 419 OFFCURVE",
"174 469 CURVE SMOOTH",
"174 526 OFFCURVE",
"225 539 OFFCURVE",
"309 539 CURVE SMOOTH",
"367 539 OFFCURVE",
"427 528 OFFCURVE",
"480 508 CURVE",
"480 627 LINE",
"439 642 OFFCURVE",
"368 654 OFFCURVE",
"291 654 CURVE SMOOTH",
"125 654 OFFCURVE",
"37 587 OFFCURVE",
"37 469 CURVE SMOOTH",
"37 370 OFFCURVE",
"85 320 OFFCURVE",
"220 283 CURVE SMOOTH",
"345 249 OFFCURVE",
"380 234 OFFCURVE",
"380 176 CURVE SMOOTH",
"380 115 OFFCURVE",
"337 104 OFFCURVE",
"244 104 CURVE SMOOTH",
"179 104 OFFCURVE",
"107 120 OFFCURVE",
"49 144 CURVE",
"49 25 LINE",
"101 2 OFFCURVE",
"174 -10 OFFCURVE",
"257 -10 CURVE SMOOTH"
);
},
{
closed = 1;
nodes = (
"328 688 LINE",
"463 862 LINE",
"359 862 LINE",
"285 762 LINE",
"213 862 LINE",
"107 862 LINE",
"242 688 LINE"
);
}
);
width = 555;
}
);
leftKerningGroup = S;
note = Scaron;
rightKerningGroup = S;
unicode = 0160;
},
{
glyphname = Scedilla;
lastChange = "2015-10-24 14:39:48 +0000";
layers = (
{
layerId = "DC28F4C8-A185-470C-BBB7-1A994656B146";
name = Regular;
paths = (
{
closed = 1;
nodes = (
"434 -10 OFFCURVE",
"518 64 OFFCURVE",
"518 176 CURVE SMOOTH",
"518 268 OFFCURVE",
"478 333 OFFCURVE",
"320 375 CURVE SMOOTH",
"206 405 OFFCURVE",
"174 419 OFFCURVE",
"174 469 CURVE SMOOTH",
"174 526 OFFCURVE",
"225 539 OFFCURVE",
"309 539 CURVE SMOOTH",
"367 539 OFFCURVE",
"427 528 OFFCURVE",
"480 508 CURVE",
"480 627 LINE",
"439 642 OFFCURVE",
"368 654 OFFCURVE",
"291 654 CURVE SMOOTH",
"125 654 OFFCURVE",
"37 587 OFFCURVE",
"37 469 CURVE SMOOTH",
"37 370 OFFCURVE",
"85 320 OFFCURVE",
"220 283 CURVE SMOOTH",
"345 249 OFFCURVE",
"380 234 OFFCURVE",
"380 176 CURVE SMOOTH",
"380 115 OFFCURVE",
"337 104 OFFCURVE",
"244 104 CURVE SMOOTH",
"179 104 OFFCURVE",
"107 120 OFFCURVE",
"49 144 CURVE",
"49 25 LINE",
"101 2 OFFCURVE",
"174 -10 OFFCURVE",
"257 -10 CURVE SMOOTH"
);
},
{
closed = 1;
nodes = (
"353 -240 OFFCURVE",
"400 -202 OFFCURVE",
"400 -136 CURVE SMOOTH",
"400 -80 OFFCURVE",
"365 -45 OFFCURVE",
"294 -45 CURVE",
"309 0 LINE",
"221 0 LINE",
"192 -98 LINE",
"236 -98 LINE SMOOTH",
"283 -98 OFFCURVE",
"313 -100 OFFCURVE",
"313 -135 CURVE SMOOTH",
"313 -167 OFFCURVE",
"291 -172 OFFCURVE",
"233 -172 CURVE SMOOTH",
"212 -172 OFFCURVE",
"190 -169 OFFCURVE",
"172 -164 CURVE",
"172 -232 LINE",
"187 -236 OFFCURVE",
"225 -240 OFFCURVE",
"248 -240 CURVE SMOOTH"
);
}
);
width = 555;
}
);
leftKerningGroup = S;
note = Scedilla;
rightKerningGroup = S;
unicode = 015E;
},
{
glyphname = Scircumflex;
lastChange = "2015-10-24 14:39:47 +0000";
layers = (
{
layerId = "DC28F4C8-A185-470C-BBB7-1A994656B146";
name = Regular;
paths = (
{
closed = 1;
nodes = (
"434 -10 OFFCURVE",
"518 64 OFFCURVE",
"518 176 CURVE SMOOTH",
"518 268 OFFCURVE",
"478 333 OFFCURVE",
"320 375 CURVE SMOOTH",
"206 405 OFFCURVE",
"174 419 OFFCURVE",
"174 469 CURVE SMOOTH",
"174 526 OFFCURVE",
"225 539 OFFCURVE",
"309 539 CURVE SMOOTH",
"367 539 OFFCURVE",
"427 528 OFFCURVE",
"480 508 CURVE",
"480 627 LINE",
"439 642 OFFCURVE",
"368 654 OFFCURVE",
"291 654 CURVE SMOOTH",
"125 654 OFFCURVE",
"37 587 OFFCURVE",
"37 469 CURVE SMOOTH",
"37 370 OFFCURVE",
"85 320 OFFCURVE",
"220 283 CURVE SMOOTH",
"345 249 OFFCURVE",
"380 234 OFFCURVE",
"380 176 CURVE SMOOTH",
"380 115 OFFCURVE",
"337 104 OFFCURVE",
"244 104 CURVE SMOOTH",
"179 104 OFFCURVE",
"107 120 OFFCURVE",
"49 144 CURVE",
"49 25 LINE",
"101 2 OFFCURVE",
"174 -10 OFFCURVE",
"257 -10 CURVE SMOOTH"
);
},
{
closed = 1;
nodes = (
"198 704 LINE",
"270 804 LINE",
"344 704 LINE",
"448 704 LINE",
"313 878 LINE",
"227 878 LINE",
"92 704 LINE"
);
}
);
width = 555;
}
);
leftKerningGroup = S;
note = Scircumflex;
rightKerningGroup = S;
unicode = 015C;
},
{
glyphname = Scommaaccent;
lastChange = "2015-10-24 14:39:47 +0000";
layers = (
{
layerId = "DC28F4C8-A185-470C-BBB7-1A994656B146";
name = Regular;
paths = (
{
closed = 1;
nodes = (
"434 -10 OFFCURVE",
"518 64 OFFCURVE",
"518 176 CURVE SMOOTH",
"518 268 OFFCURVE",
"478 333 OFFCURVE",
"320 375 CURVE SMOOTH",
"206 405 OFFCURVE",
"174 419 OFFCURVE",
"174 469 CURVE SMOOTH",
"174 526 OFFCURVE",
"225 539 OFFCURVE",
"309 539 CURVE SMOOTH",
"367 539 OFFCURVE",
"427 528 OFFCURVE",
"480 508 CURVE",
"480 627 LINE",
"439 642 OFFCURVE",
"368 654 OFFCURVE",
"291 654 CURVE SMOOTH",
"125 654 OFFCURVE",
"37 587 OFFCURVE",
"37 469 CURVE SMOOTH",
"37 370 OFFCURVE",
"85 320 OFFCURVE",
"220 283 CURVE SMOOTH",
"345 249 OFFCURVE",
"380 234 OFFCURVE",
"380 176 CURVE SMOOTH",
"380 115 OFFCURVE",
"337 104 OFFCURVE",
"244 104 CURVE SMOOTH",
"179 104 OFFCURVE",
"107 120 OFFCURVE",
"49 144 CURVE",
"49 25 LINE",
"101 2 OFFCURVE",
"174 -10 OFFCURVE",
"257 -10 CURVE SMOOTH"
);
},
{
closed = 1;
nodes = (
"298 -226 LINE",
"341 -47 LINE",
"224 -47 LINE",
"195 -226 LINE"
);
}
);
width = 555;
}
);
leftKerningGroup = S;
note = Scommaaccent;
rightKerningGroup = S;
unicode = 0218;
},
{
glyphname = Sdotaccent;
lastChange = "2015-10-24 14:39:47 +0000";
layers = (
{
layerId = "DC28F4C8-A185-470C-BBB7-1A994656B146";
name = Regular;
paths = (
{
closed = 1;
nodes = (
"434 -10 OFFCURVE",
"518 64 OFFCURVE",
"518 176 CURVE SMOOTH",
"518 268 OFFCURVE",
"478 333 OFFCURVE",
"320 375 CURVE SMOOTH",
"206 405 OFFCURVE",
"174 419 OFFCURVE",
"174 469 CURVE SMOOTH",
"174 526 OFFCURVE",
"225 539 OFFCURVE",
"309 539 CURVE SMOOTH",
"367 539 OFFCURVE",
"427 528 OFFCURVE",
"480 508 CURVE",
"480 627 LINE",
"439 642 OFFCURVE",
"368 654 OFFCURVE",
"291 654 CURVE SMOOTH",
"125 654 OFFCURVE",
"37 587 OFFCURVE",
"37 469 CURVE SMOOTH",
"37 370 OFFCURVE",
"85 320 OFFCURVE",
"220 283 CURVE SMOOTH",
"345 249 OFFCURVE",
"380 234 OFFCURVE",
"380 176 CURVE SMOOTH",
"380 115 OFFCURVE",
"337 104 OFFCURVE",
"244 104 CURVE SMOOTH",
"179 104 OFFCURVE",
"107 120 OFFCURVE",
"49 144 CURVE",
"49 25 LINE",
"101 2 OFFCURVE",
"174 -10 OFFCURVE",
"257 -10 CURVE SMOOTH"
);
},
{
closed = 1;
nodes = (
"324 713 LINE",
"324 811 LINE",
"219 811 LINE",
"219 713 LINE"
);
}
);
width = 555;
}
);
leftKerningGroup = S;
note = Sdotaccent;
rightKerningGroup = S;
unicode = 1E60;
},
{
glyphname = Sdotbelow;
lastChange = "2015-10-24 14:39:47 +0000";
layers = (
{
layerId = "DC28F4C8-A185-470C-BBB7-1A994656B146";
name = Regular;
paths = (
{
closed = 1;
nodes = (
"434 -10 OFFCURVE",
"518 64 OFFCURVE",
"518 176 CURVE SMOOTH",
"518 268 OFFCURVE",
"478 333 OFFCURVE",
"320 375 CURVE SMOOTH",
"206 405 OFFCURVE",
"174 419 OFFCURVE",
"174 469 CURVE SMOOTH",
"174 526 OFFCURVE",
"225 539 OFFCURVE",
"309 539 CURVE SMOOTH",
"367 539 OFFCURVE",
"427 528 OFFCURVE",
"480 508 CURVE",
"480 627 LINE",
"439 642 OFFCURVE",
"368 654 OFFCURVE",
"291 654 CURVE SMOOTH",
"125 654 OFFCURVE",
"37 587 OFFCURVE",
"37 469 CURVE SMOOTH",
"37 370 OFFCURVE",
"85 320 OFFCURVE",
"220 283 CURVE SMOOTH",
"345 249 OFFCURVE",
"380 234 OFFCURVE",
"380 176 CURVE SMOOTH",
"380 115 OFFCURVE",
"337 104 OFFCURVE",
"244 104 CURVE SMOOTH",
"179 104 OFFCURVE",
"107 120 OFFCURVE",
"49 144 CURVE",
"49 25 LINE",
"101 2 OFFCURVE",
"174 -10 OFFCURVE",
"257 -10 CURVE SMOOTH"
);
},
{
closed = 1;
nodes = (
"328 -181 LINE",
"328 -82 LINE",
"221 -82 LINE",
"221 -181 LINE"
);
}
);
width = 555;
}
);
leftKerningGroup = S;
note = Sdotbelow;
rightKerningGroup = S;
unicode = 1E62;
},
{
glyphname = Germandbls;
lastChange = "2015-10-24 14:39:47 +0000";
layers = (
{
layerId = "DC28F4C8-A185-470C-BBB7-1A994656B146";
name = Regular;
paths = (
{
closed = 1;
nodes = (
"514 -10 OFFCURVE",
"590 75 OFFCURVE",
"590 185 CURVE SMOOTH",
"590 275 OFFCURVE",
"525 339 OFFCURVE",
"437 339 CURVE SMOOTH",
"412 339 LINE",
"568 433 LINE",
"568 553 OFFCURVE",
"493 654 OFFCURVE",
"314 654 CURVE SMOOTH",
"144 654 OFFCURVE",
"52 566 OFFCURVE",
"52 417 CURVE SMOOTH",
"52 0 LINE",
"180 0 LINE",
"180 423 LINE SMOOTH",
"180 503 OFFCURVE",
"222 544 OFFCURVE",
"314 544 CURVE SMOOTH",
"400 544 OFFCURVE",
"441 506 OFFCURVE",
"441 464 CURVE",
"277 362 LINE",
"277 256 LINE",
"371 256 LINE SMOOTH",
"426 256 OFFCURVE",
"464 238 OFFCURVE",
"464 187 CURVE SMOOTH",
"464 134 OFFCURVE",
"429 105 OFFCURVE",
"365 105 CURVE SMOOTH",
"326 105 OFFCURVE",
"280 113 OFFCURVE",
"248 127 CURVE",
"248 13 LINE",
"289 -2 OFFCURVE",
"337 -10 OFFCURVE",
"392 -10 CURVE SMOOTH"
);
}
);
width = 627;
}
);
note = uni1E9E;
unicode = 1E9E;
},
{
glyphname = Schwa;
lastChange = "2015-10-24 14:39:47 +0000";
layers = (
{
layerId = "DC28F4C8-A185-470C-BBB7-1A994656B146";
name = Regular;
paths = (
{
closed = 1;
nodes = (
"548 -10 OFFCURVE",
"642 115 OFFCURVE",
"642 314 CURVE SMOOTH",
"642 533 OFFCURVE",
"526 654 OFFCURVE",
"301 654 CURVE SMOOTH",
"217 654 OFFCURVE",
"133 636 OFFCURVE",
"74 613 CURVE",
"74 514 LINE",
"125 536 OFFCURVE",
"211 553 OFFCURVE",
"272 553 CURVE SMOOTH",
"440 553 OFFCURVE",
"509 511 OFFCURVE",
"518 382 CURVE",
"37 382 LINE",
"37 265 LINE SMOOTH",
"37 99 OFFCURVE",
"135 -10 OFFCURVE",
"329 -10 CURVE SMOOTH"
);
},
{
closed = 1;
nodes = (
"222 87 OFFCURVE",
"155 141 OFFCURVE",
"155 237 CURVE SMOOTH",
"155 284 LINE",
"518 284 LINE",
"518 152 OFFCURVE",
"455 87 OFFCURVE",
"329 87 CURVE SMOOTH"
);
}
);
width = 679;
}
);
note = uni018F;
unicode = 018F;
},
{
glyphname = T;
lastChange = "2015-10-24 14:39:48 +0000";
layers = (
{
layerId = "DC28F4C8-A185-470C-BBB7-1A994656B146";
name = Regular;
paths = (
{
closed = 1;
nodes = (
"350 0 LINE",
"350 540 LINE",
"547 540 LINE",
"547 644 LINE",
"17 644 LINE",
"17 540 LINE",
"215 540 LINE",
"215 0 LINE"
);
}
);
width = 564;
}
);
leftKerningGroup = T;
note = T;
rightKerningGroup = T;
unicode = 0054;
},
{
glyphname = Tbar;
lastChange = "2015-10-24 14:39:48 +0000";
layers = (
{
layerId = "DC28F4C8-A185-470C-BBB7-1A994656B146";
name = Regular;
paths = (
{
closed = 1;
nodes = (
"350 0 LINE",
"350 540 LINE",
"547 540 LINE",
"547 644 LINE",
"17 644 LINE",
"17 540 LINE",
"215 540 LINE",
"215 0 LINE"
);
},
{
closed = 1;
nodes = (
"463 293 LINE",
"463 392 LINE",
"93 392 LINE",
"93 293 LINE"
);
}
);
width = 564;
}
);
leftKerningGroup = T;
note = Tbar;
rightKerningGroup = T;
unicode = 0166;
},
{
glyphname = Tcaron;
lastChange = "2015-10-24 14:39:48 +0000";
layers = (
{
layerId = "DC28F4C8-A185-470C-BBB7-1A994656B146";
name = Regular;
paths = (
{
closed = 1;
nodes = (
"350 0 LINE",
"350 540 LINE",
"547 540 LINE",
"547 644 LINE",
"17 644 LINE",
"17 540 LINE",
"215 540 LINE",
"215 0 LINE"
);
},
{
closed = 1;
nodes = (
"325 704 LINE",
"460 878 LINE",
"356 878 LINE",
"282 778 LINE",
"210 878 LINE",
"104 878 LINE",
"239 704 LINE"
);
}
);
width = 564;
}
);
leftKerningGroup = T;
note = Tcaron;
rightKerningGroup = T;
unicode = 0164;
},
{
glyphname = Tcedilla;
lastChange = "2015-10-24 14:39:48 +0000";
layers = (
{
layerId = "DC28F4C8-A185-470C-BBB7-1A994656B146";
name = Regular;
paths = (
{
closed = 1;
nodes = (
"350 0 LINE",
"350 540 LINE",
"547 540 LINE",
"547 644 LINE",
"17 644 LINE",
"17 540 LINE",
"215 540 LINE",
"215 0 LINE"
);
},
{
closed = 1;
nodes = (
"368 -240 OFFCURVE",
"415 -202 OFFCURVE",
"415 -136 CURVE SMOOTH",
"415 -80 OFFCURVE",
"380 -45 OFFCURVE",
"309 -45 CURVE",
"324 0 LINE",
"236 0 LINE",
"207 -98 LINE",
"251 -98 LINE SMOOTH",
"298 -98 OFFCURVE",
"328 -100 OFFCURVE",
"328 -135 CURVE SMOOTH",
"328 -167 OFFCURVE",
"306 -172 OFFCURVE",
"248 -172 CURVE SMOOTH",
"227 -172 OFFCURVE",
"205 -169 OFFCURVE",
"187 -164 CURVE",
"187 -232 LINE",
"202 -236 OFFCURVE",
"240 -240 OFFCURVE",
"263 -240 CURVE SMOOTH"
);
}
);
width = 564;
}
);
leftKerningGroup = T;
note = Tcedilla;
rightKerningGroup = T;
unicode = 0162;
},
{
glyphname = Tcommaaccent;
lastChange = "2015-10-24 14:39:48 +0000";
layers = (
{
layerId = "DC28F4C8-A185-470C-BBB7-1A994656B146";
name = Regular;
paths = (
{
closed = 1;
nodes = (
"338 0 LINE",
"338 540 LINE",
"535 540 LINE",
"535 644 LINE",
"5 644 LINE",
"5 540 LINE",
"203 540 LINE",
"203 0 LINE"
);
},
{
closed = 1;
nodes = (
"278 -248 LINE",
"328 -47 LINE",
"222 -47 LINE",
"191 -248 LINE"
);
}
);
width = 552;
}
);
leftKerningGroup = T;
note = Tcommaaccent;
rightKerningGroup = T;
unicode = 021A;
},
{
glyphname = Tdotbelow;
lastChange = "2015-10-24 14:39:47 +0000";
layers = (
{
layerId = "DC28F4C8-A185-470C-BBB7-1A994656B146";
name = Regular;
paths = (
{
closed = 1;
nodes = (
"350 0 LINE",
"350 540 LINE",
"547 540 LINE",
"547 644 LINE",
"17 644 LINE",
"17 540 LINE",
"215 540 LINE",
"215 0 LINE"
);
},
{
closed = 1;
nodes = (
"333 -171 LINE",
"333 -72 LINE",
"226 -72 LINE",
"226 -171 LINE"
);
}
);
width = 564;
}
);
leftKerningGroup = T;
note = Tdotbelow;
rightKerningGroup = T;
unicode = 1E6C;
},
{
glyphname = Tlinebelow;
lastChange = "2015-10-24 14:39:47 +0000";
layers = (
{
layerId = "DC28F4C8-A185-470C-BBB7-1A994656B146";
name = Regular;
paths = (
{
closed = 1;
nodes = (
"350 0 LINE",
"350 540 LINE",
"547 540 LINE",
"547 644 LINE",
"17 644 LINE",
"17 540 LINE",
"215 540 LINE",
"215 0 LINE"
);
},
{
closed = 1;
nodes = (
"436 -145 LINE",
"436 -62 LINE",
"128 -62 LINE",
"128 -145 LINE"
);
}
);
width = 564;
}
);
leftKerningGroup = T;
note = Tlinebelow;
rightKerningGroup = T;
unicode = 1E6E;
},
{
glyphname = U;
lastChange = "2015-10-24 14:39:48 +0000";
layers = (
{
layerId = "DC28F4C8-A185-470C-BBB7-1A994656B146";
name = Regular;
paths = (
{
closed = 1;
nodes = (
"517 -10 OFFCURVE",
"627 78 OFFCURVE",
"627 242 CURVE SMOOTH",
"627 644 LINE",
"492 644 LINE",
"492 252 LINE SMOOTH",
"492 153 OFFCURVE",
"437 105 OFFCURVE",
"340 105 CURVE SMOOTH",
"242 105 OFFCURVE",
"187 153 OFFCURVE",
"187 252 CURVE SMOOTH",
"187 644 LINE",
"52 644 LINE",
"52 242 LINE SMOOTH",
"52 78 OFFCURVE",
"162 -10 OFFCURVE",
"340 -10 CURVE SMOOTH"
);
}
);
width = 679;
}
);
leftKerningGroup = U;
note = U;
rightKerningGroup = U;
unicode = 0055;
},
{
glyphname = Uacute;
lastChange = "2015-10-24 14:39:48 +0000";
layers = (
{
layerId = "DC28F4C8-A185-470C-BBB7-1A994656B146";
name = Regular;
paths = (
{
closed = 1;
nodes = (
"517 -10 OFFCURVE",
"627 78 OFFCURVE",
"627 242 CURVE SMOOTH",
"627 644 LINE",
"492 644 LINE",
"492 252 LINE SMOOTH",
"492 153 OFFCURVE",
"437 105 OFFCURVE",
"340 105 CURVE SMOOTH",
"242 105 OFFCURVE",
"187 153 OFFCURVE",
"187 252 CURVE SMOOTH",
"187 644 LINE",
"52 644 LINE",
"52 242 LINE SMOOTH",
"52 78 OFFCURVE",
"162 -10 OFFCURVE",
"340 -10 CURVE SMOOTH"
);
},
{
closed = 1;
nodes = (
"390 688 LINE",
"478 875 LINE",
"361 875 LINE",
"281 688 LINE"
);
}
);
width = 679;
}
);
leftKerningGroup = U;
note = Uacute;
rightKerningGroup = U;
unicode = 00DA;
},
{
glyphname = Ubreve;
lastChange = "2015-10-24 14:39:48 +0000";
layers = (
{
layerId = "DC28F4C8-A185-470C-BBB7-1A994656B146";
name = Regular;
paths = (
{
closed = 1;
nodes = (
"517 -10 OFFCURVE",
"627 78 OFFCURVE",
"627 242 CURVE SMOOTH",
"627 644 LINE",
"492 644 LINE",
"492 252 LINE SMOOTH",
"492 153 OFFCURVE",
"437 105 OFFCURVE",
"340 105 CURVE SMOOTH",
"242 105 OFFCURVE",
"187 153 OFFCURVE",
"187 252 CURVE SMOOTH",
"187 644 LINE",
"52 644 LINE",
"52 242 LINE SMOOTH",
"52 78 OFFCURVE",
"162 -10 OFFCURVE",
"340 -10 CURVE SMOOTH"
);
},
{
closed = 1;
nodes = (
"428 688 OFFCURVE",
"493 747 OFFCURVE",
"493 845 CURVE",
"403 845 LINE",
"403 803 OFFCURVE",
"380 766 OFFCURVE",
"334 766 CURVE SMOOTH",
"289 766 OFFCURVE",
"267 803 OFFCURVE",
"267 845 CURVE",
"177 845 LINE",
"177 747 OFFCURVE",
"241 688 OFFCURVE",
"334 688 CURVE SMOOTH"
);
}
);
width = 679;
}
);
leftKerningGroup = U;
note = Ubreve;
rightKerningGroup = U;
unicode = 016C;
},
{
glyphname = Ucaron;
lastChange = "2015-10-24 14:39:48 +0000";
layers = (
{
layerId = "DC28F4C8-A185-470C-BBB7-1A994656B146";
name = Regular;
paths = (
{
closed = 1;
nodes = (
"517 -10 OFFCURVE",
"627 78 OFFCURVE",
"627 242 CURVE SMOOTH",
"627 644 LINE",
"492 644 LINE",
"492 252 LINE SMOOTH",
"492 153 OFFCURVE",
"437 105 OFFCURVE",
"340 105 CURVE SMOOTH",
"242 105 OFFCURVE",
"187 153 OFFCURVE",
"187 252 CURVE SMOOTH",
"187 644 LINE",
"52 644 LINE",
"52 242 LINE SMOOTH",
"52 78 OFFCURVE",
"162 -10 OFFCURVE",
"340 -10 CURVE SMOOTH"
);
},
{
closed = 1;
nodes = (
"383 688 LINE",
"518 862 LINE",
"414 862 LINE",
"340 762 LINE",
"268 862 LINE",
"162 862 LINE",
"297 688 LINE"
);
}
);
width = 679;
}
);
leftKerningGroup = U;
note = Ucaron;
rightKerningGroup = U;
unicode = 01D3;
},
{
glyphname = Ucircumflex;
lastChange = "2015-10-24 14:39:47 +0000";
layers = (
{
layerId = "DC28F4C8-A185-470C-BBB7-1A994656B146";
name = Regular;
paths = (
{
closed = 1;
nodes = (
"517 -10 OFFCURVE",
"627 78 OFFCURVE",
"627 242 CURVE SMOOTH",
"627 644 LINE",
"492 644 LINE",
"492 252 LINE SMOOTH",
"492 153 OFFCURVE",
"437 105 OFFCURVE",
"340 105 CURVE SMOOTH",
"242 105 OFFCURVE",
"187 153 OFFCURVE",
"187 252 CURVE SMOOTH",
"187 644 LINE",
"52 644 LINE",
"52 242 LINE SMOOTH",
"52 78 OFFCURVE",
"162 -10 OFFCURVE",
"340 -10 CURVE SMOOTH"
);
},
{
closed = 1;
nodes = (
"268 688 LINE",
"340 788 LINE",
"414 688 LINE",
"518 688 LINE",
"383 862 LINE",
"297 862 LINE",
"162 688 LINE"
);
}
);
width = 679;
}
);
leftKerningGroup = U;
note = Ucircumflex;
rightKerningGroup = U;
unicode = 00DB;
},
{
glyphname = Udieresis;
lastChange = "2015-10-24 14:39:48 +0000";
layers = (
{
layerId = "DC28F4C8-A185-470C-BBB7-1A994656B146";
name = Regular;
paths = (
{
closed = 1;
nodes = (
"517 -10 OFFCURVE",
"627 78 OFFCURVE",
"627 242 CURVE SMOOTH",
"627 644 LINE",
"492 644 LINE",
"492 252 LINE SMOOTH",
"492 153 OFFCURVE",
"437 105 OFFCURVE",
"340 105 CURVE SMOOTH",
"242 105 OFFCURVE",
"187 153 OFFCURVE",
"187 252 CURVE SMOOTH",
"187 644 LINE",
"52 644 LINE",
"52 242 LINE SMOOTH",
"52 78 OFFCURVE",
"162 -10 OFFCURVE",
"340 -10 CURVE SMOOTH"
);
},
{
closed = 1;
nodes = (
"295 713 LINE",
"295 811 LINE",
"189 811 LINE",
"189 713 LINE"
);
},
{
closed = 1;
nodes = (
"491 713 LINE",
"491 811 LINE",
"385 811 LINE",
"385 713 LINE"
);
}
);
width = 679;
}
);
leftKerningGroup = U;
note = Udieresis;
rightKerningGroup = U;
unicode = 00DC;
},
{
glyphname = Udieresisacute;
lastChange = "2015-10-24 14:39:48 +0000";
layers = (
{
layerId = "DC28F4C8-A185-470C-BBB7-1A994656B146";
name = Regular;
paths = (
{
closed = 1;
nodes = (
"517 -10 OFFCURVE",
"627 78 OFFCURVE",
"627 242 CURVE SMOOTH",
"627 644 LINE",
"492 644 LINE",
"492 252 LINE SMOOTH",
"492 153 OFFCURVE",
"437 105 OFFCURVE",
"340 105 CURVE SMOOTH",
"242 105 OFFCURVE",
"187 153 OFFCURVE",
"187 252 CURVE SMOOTH",
"187 644 LINE",
"52 644 LINE",
"52 242 LINE SMOOTH",
"52 78 OFFCURVE",
"162 -10 OFFCURVE",
"340 -10 CURVE SMOOTH"
);
},
{
closed = 1;
nodes = (
"290 688 LINE",
"290 781 LINE",
"189 781 LINE",
"189 688 LINE"
);
},
{
closed = 1;
nodes = (
"491 688 LINE",
"491 781 LINE",
"390 781 LINE",
"390 688 LINE"
);
},
{
closed = 1;
nodes = (
"385 801 LINE",
"451 930 LINE",
"349 930 LINE",
"290 801 LINE"
);
}
);
width = 679;
}
);
leftKerningGroup = U;
note = Udieresisacute;
rightKerningGroup = U;
unicode = 01D7;
},
{
glyphname = Udieresiscaron;
lastChange = "2015-10-24 14:39:47 +0000";
layers = (
{
layerId = "DC28F4C8-A185-470C-BBB7-1A994656B146";
name = Regular;
paths = (
{
closed = 1;
nodes = (
"517 -10 OFFCURVE",
"627 78 OFFCURVE",
"627 242 CURVE SMOOTH",
"627 644 LINE",
"492 644 LINE",
"492 252 LINE SMOOTH",
"492 153 OFFCURVE",
"437 105 OFFCURVE",
"340 105 CURVE SMOOTH",
"242 105 OFFCURVE",
"187 153 OFFCURVE",
"187 252 CURVE SMOOTH",
"187 644 LINE",
"52 644 LINE",
"52 242 LINE SMOOTH",
"52 78 OFFCURVE",
"162 -10 OFFCURVE",
"340 -10 CURVE SMOOTH"
);
},
{
closed = 1;
nodes = (
"290 688 LINE",
"290 781 LINE",
"189 781 LINE",
"189 688 LINE"
);
},
{
closed = 1;
nodes = (
"491 688 LINE",
"491 781 LINE",
"390 781 LINE",
"390 688 LINE"
);
},
{
closed = 1;
nodes = (
"387 798 LINE",
"500 919 LINE",
"402 919 LINE",
"341 846 LINE",
"281 919 LINE",
"181 919 LINE",
"294 798 LINE"
);
}
);
width = 679;
}
);
leftKerningGroup = U;
note = Udieresiscaron;
rightKerningGroup = U;
unicode = 01D9;
},
{
glyphname = Udieresisgrave;
lastChange = "2015-10-24 14:39:48 +0000";
layers = (
{
layerId = "DC28F4C8-A185-470C-BBB7-1A994656B146";
name = Regular;
paths = (
{
closed = 1;
nodes = (
"517 -10 OFFCURVE",
"627 78 OFFCURVE",
"627 242 CURVE SMOOTH",
"627 644 LINE",
"492 644 LINE",
"492 252 LINE SMOOTH",
"492 153 OFFCURVE",
"437 105 OFFCURVE",
"340 105 CURVE SMOOTH",
"242 105 OFFCURVE",
"187 153 OFFCURVE",
"187 252 CURVE SMOOTH",
"187 644 LINE",
"52 644 LINE",
"52 242 LINE SMOOTH",
"52 78 OFFCURVE",
"162 -10 OFFCURVE",
"340 -10 CURVE SMOOTH"
);
},
{
closed = 1;
nodes = (
"289 688 LINE",
"289 781 LINE",
"188 781 LINE",
"188 688 LINE"
);
},
{
closed = 1;
nodes = (
"490 688 LINE",
"490 781 LINE",
"389 781 LINE",
"389 688 LINE"
);
},
{
closed = 1;
nodes = (
"389 801 LINE",
"330 930 LINE",
"228 930 LINE",
"294 801 LINE"
);
}
);
width = 679;
}
);
leftKerningGroup = U;
note = Udieresisgrave;
rightKerningGroup = U;
unicode = 01DB;
},
{
glyphname = Udieresismacron;
lastChange = "2015-10-24 14:39:48 +0000";
layers = (
{
layerId = "DC28F4C8-A185-470C-BBB7-1A994656B146";
name = Regular;
paths = (
{
closed = 1;
nodes = (
"517 -10 OFFCURVE",
"627 78 OFFCURVE",
"627 242 CURVE SMOOTH",
"627 644 LINE",
"492 644 LINE",
"492 252 LINE SMOOTH",
"492 153 OFFCURVE",
"437 105 OFFCURVE",
"340 105 CURVE SMOOTH",
"242 105 OFFCURVE",
"187 153 OFFCURVE",
"187 252 CURVE SMOOTH",
"187 644 LINE",
"52 644 LINE",
"52 242 LINE SMOOTH",
"52 78 OFFCURVE",
"162 -10 OFFCURVE",
"340 -10 CURVE SMOOTH"
);
},
{
closed = 1;
nodes = (
"295 702 LINE",
"295 800 LINE",
"189 800 LINE",
"189 702 LINE"
);
},
{
closed = 1;
nodes = (
"491 702 LINE",
"491 800 LINE",
"385 800 LINE",
"385 702 LINE"
);
},
{
closed = 1;
nodes = (
"494 860 LINE",
"494 943 LINE",
"186 943 LINE",
"186 860 LINE"
);
}
);
width = 679;
}
);
leftKerningGroup = U;
note = Udieresismacron;
rightKerningGroup = U;
unicode = 01D5;
},
{
glyphname = Udotbelow;
lastChange = "2015-10-24 14:39:48 +0000";
layers = (
{
layerId = "DC28F4C8-A185-470C-BBB7-1A994656B146";
name = Regular;
paths = (
{
closed = 1;
nodes = (
"517 -10 OFFCURVE",
"627 78 OFFCURVE",
"627 242 CURVE SMOOTH",
"627 644 LINE",
"492 644 LINE",
"492 252 LINE SMOOTH",
"492 153 OFFCURVE",
"437 105 OFFCURVE",
"340 105 CURVE SMOOTH",
"242 105 OFFCURVE",
"187 153 OFFCURVE",
"187 252 CURVE SMOOTH",
"187 644 LINE",
"52 644 LINE",
"52 242 LINE SMOOTH",
"52 78 OFFCURVE",
"162 -10 OFFCURVE",
"340 -10 CURVE SMOOTH"
);
},
{
closed = 1;
nodes = (
"393 -181 LINE",
"393 -82 LINE",
"286 -82 LINE",
"286 -181 LINE"
);
}
);
width = 679;
}
);
leftKerningGroup = U;
note = Udotbelow;
rightKerningGroup = U;
unicode = 1EE4;
},
{
glyphname = Ugrave;
lastChange = "2015-10-24 14:39:48 +0000";
layers = (
{
layerId = "DC28F4C8-A185-470C-BBB7-1A994656B146";
name = Regular;
paths = (
{
closed = 1;
nodes = (
"517 -10 OFFCURVE",
"627 78 OFFCURVE",
"627 242 CURVE SMOOTH",
"627 644 LINE",
"492 644 LINE",
"492 252 LINE SMOOTH",
"492 153 OFFCURVE",
"437 105 OFFCURVE",
"340 105 CURVE SMOOTH",
"242 105 OFFCURVE",
"187 153 OFFCURVE",
"187 252 CURVE SMOOTH",
"187 644 LINE",
"52 644 LINE",
"52 242 LINE SMOOTH",
"52 78 OFFCURVE",
"162 -10 OFFCURVE",
"340 -10 CURVE SMOOTH"
);
},
{
closed = 1;
nodes = (
"406 688 LINE",
"326 875 LINE",
"209 875 LINE",
"297 688 LINE"
);
}
);
width = 679;
}
);
leftKerningGroup = U;
note = Ugrave;
rightKerningGroup = U;
unicode = 00D9;
},
{
glyphname = Uhookabove;
lastChange = "2015-10-24 14:39:48 +0000";
layers = (
{
layerId = "DC28F4C8-A185-470C-BBB7-1A994656B146";
name = Regular;
paths = (
{
closed = 1;
nodes = (
"517 -10 OFFCURVE",
"627 78 OFFCURVE",
"627 242 CURVE SMOOTH",
"627 644 LINE",
"492 644 LINE",
"492 252 LINE SMOOTH",
"492 153 OFFCURVE",
"437 105 OFFCURVE",
"340 105 CURVE SMOOTH",
"242 105 OFFCURVE",
"187 153 OFFCURVE",
"187 252 CURVE SMOOTH",
"187 644 LINE",
"52 644 LINE",
"52 242 LINE SMOOTH",
"52 78 OFFCURVE",
"162 -10 OFFCURVE",
"340 -10 CURVE SMOOTH"
);
},
{
closed = 1;
nodes = (
"390 687 LINE",
"390 733 LINE",
"454 745 OFFCURVE",
"477 772 OFFCURVE",
"477 828 CURVE SMOOTH",
"477 886 OFFCURVE",
"431 924 OFFCURVE",
"346 924 CURVE SMOOTH",
"307 924 OFFCURVE",
"270 919 OFFCURVE",
"246 911 CURVE",
"246 844 LINE",
"262 851 OFFCURVE",
"289 855 OFFCURVE",
"308 855 CURVE SMOOTH",
"351 855 OFFCURVE",
"377 843 OFFCURVE",
"377 816 CURVE SMOOTH",
"377 786 OFFCURVE",
"360 772 OFFCURVE",
"287 768 CURVE",
"287 687 LINE"
);
}
);
width = 679;
}
);
leftKerningGroup = U;
note = Uhookabove;
rightKerningGroup = U;
unicode = 1EE6;
},
{
glyphname = Uhorn;
lastChange = "2015-10-24 14:39:47 +0000";
layers = (
{
layerId = "DC28F4C8-A185-470C-BBB7-1A994656B146";
name = Regular;
paths = (
{
closed = 1;
nodes = (
"517 -10 OFFCURVE",
"627 78 OFFCURVE",
"627 242 CURVE SMOOTH",
"627 490 LINE",
"762 492 OFFCURVE",
"820 539 OFFCURVE",
"820 688 CURVE",
"723 688 LINE",
"723 608 OFFCURVE",
"696 582 OFFCURVE",
"627 580 CURVE",
"627 644 LINE",
"492 644 LINE",
"492 252 LINE SMOOTH",
"492 153 OFFCURVE",
"437 105 OFFCURVE",
"340 105 CURVE SMOOTH",
"242 105 OFFCURVE",
"187 153 OFFCURVE",
"187 252 CURVE SMOOTH",
"187 644 LINE",
"52 644 LINE",
"52 242 LINE SMOOTH",
"52 78 OFFCURVE",
"162 -10 OFFCURVE",
"340 -10 CURVE SMOOTH"
);
}
);
width = 838;
}
);
leftKerningGroup = U;
note = Uhorn;
rightKerningGroup = U;
unicode = 01AF;
},
{
glyphname = Uhornacute;
lastChange = "2015-10-24 14:39:48 +0000";
layers = (
{
layerId = "DC28F4C8-A185-470C-BBB7-1A994656B146";
name = Regular;
paths = (
{
closed = 1;
nodes = (
"517 -10 OFFCURVE",
"627 78 OFFCURVE",
"627 242 CURVE SMOOTH",
"627 490 LINE",
"762 492 OFFCURVE",
"820 539 OFFCURVE",
"820 688 CURVE",
"723 688 LINE",
"723 608 OFFCURVE",
"696 582 OFFCURVE",
"627 580 CURVE",
"627 644 LINE",
"492 644 LINE",
"492 252 LINE SMOOTH",
"492 153 OFFCURVE",
"437 105 OFFCURVE",
"340 105 CURVE SMOOTH",
"242 105 OFFCURVE",
"187 153 OFFCURVE",
"187 252 CURVE SMOOTH",
"187 644 LINE",
"52 644 LINE",
"52 242 LINE SMOOTH",
"52 78 OFFCURVE",
"162 -10 OFFCURVE",
"340 -10 CURVE SMOOTH"
);
},
{
closed = 1;
nodes = (
"401 688 LINE",
"489 875 LINE",
"372 875 LINE",
"292 688 LINE"
);
}
);
width = 838;
}
);
leftKerningGroup = U;
note = Uhornacute;
rightKerningGroup = U;
unicode = 1EE8;
},
{
glyphname = Uhorndotbelow;
lastChange = "2015-10-24 14:39:48 +0000";
layers = (
{
layerId = "DC28F4C8-A185-470C-BBB7-1A994656B146";
name = Regular;
paths = (
{
closed = 1;
nodes = (
"517 -10 OFFCURVE",
"627 78 OFFCURVE",
"627 242 CURVE SMOOTH",
"627 490 LINE",
"762 492 OFFCURVE",
"820 539 OFFCURVE",
"820 688 CURVE",
"723 688 LINE",
"723 608 OFFCURVE",
"696 582 OFFCURVE",
"627 580 CURVE",
"627 644 LINE",
"492 644 LINE",
"492 252 LINE SMOOTH",
"492 153 OFFCURVE",
"437 105 OFFCURVE",
"340 105 CURVE SMOOTH",
"242 105 OFFCURVE",
"187 153 OFFCURVE",
"187 252 CURVE SMOOTH",
"187 644 LINE",
"52 644 LINE",
"52 242 LINE SMOOTH",
"52 78 OFFCURVE",
"162 -10 OFFCURVE",
"340 -10 CURVE SMOOTH"
);
},
{
closed = 1;
nodes = (
"392 -181 LINE",
"392 -82 LINE",
"285 -82 LINE",
"285 -181 LINE"
);
}
);
width = 838;
}
);
leftKerningGroup = U;
note = Uhorndotbelow;
rightKerningGroup = U;
unicode = 1EF0;
},
{
glyphname = Uhorngrave;
lastChange = "2015-10-24 14:39:48 +0000";
layers = (
{
layerId = "DC28F4C8-A185-470C-BBB7-1A994656B146";
name = Regular;
paths = (
{
closed = 1;
nodes = (
"517 -10 OFFCURVE",
"627 78 OFFCURVE",
"627 242 CURVE SMOOTH",
"627 490 LINE",
"762 492 OFFCURVE",
"820 539 OFFCURVE",
"820 688 CURVE",
"723 688 LINE",
"723 608 OFFCURVE",
"696 582 OFFCURVE",
"627 580 CURVE",
"627 644 LINE",
"492 644 LINE",
"492 252 LINE SMOOTH",
"492 153 OFFCURVE",
"437 105 OFFCURVE",
"340 105 CURVE SMOOTH",
"242 105 OFFCURVE",
"187 153 OFFCURVE",
"187 252 CURVE SMOOTH",
"187 644 LINE",
"52 644 LINE",
"52 242 LINE SMOOTH",
"52 78 OFFCURVE",
"162 -10 OFFCURVE",
"340 -10 CURVE SMOOTH"
);
},
{
closed = 1;
nodes = (
"404 688 LINE",
"324 875 LINE",
"207 875 LINE",
"295 688 LINE"
);
}
);
width = 838;
}
);
leftKerningGroup = U;
note = Uhorngrave;
rightKerningGroup = U;
unicode = 1EEA;
},
{
glyphname = Uhornhookabove;
lastChange = "2015-10-24 14:39:47 +0000";
layers = (
{
layerId = "DC28F4C8-A185-470C-BBB7-1A994656B146";
name = Regular;
paths = (
{
closed = 1;
nodes = (
"517 -10 OFFCURVE",
"627 78 OFFCURVE",
"627 242 CURVE SMOOTH",
"627 490 LINE",
"762 492 OFFCURVE",
"820 539 OFFCURVE",
"820 688 CURVE",
"723 688 LINE",
"723 608 OFFCURVE",
"696 582 OFFCURVE",
"627 580 CURVE",
"627 644 LINE",
"492 644 LINE",
"492 252 LINE SMOOTH",
"492 153 OFFCURVE",
"437 105 OFFCURVE",
"340 105 CURVE SMOOTH",
"242 105 OFFCURVE",
"187 153 OFFCURVE",
"187 252 CURVE SMOOTH",
"187 644 LINE",
"52 644 LINE",
"52 242 LINE SMOOTH",
"52 78 OFFCURVE",
"162 -10 OFFCURVE",
"340 -10 CURVE SMOOTH"
);
},
{
closed = 1;
nodes = (
"396 687 LINE",
"396 733 LINE",
"460 745 OFFCURVE",
"483 772 OFFCURVE",
"483 828 CURVE SMOOTH",
"483 886 OFFCURVE",
"437 924 OFFCURVE",
"352 924 CURVE SMOOTH",
"313 924 OFFCURVE",
"276 919 OFFCURVE",
"252 911 CURVE",
"252 844 LINE",
"268 851 OFFCURVE",
"295 855 OFFCURVE",
"314 855 CURVE SMOOTH",
"357 855 OFFCURVE",
"383 843 OFFCURVE",
"383 816 CURVE SMOOTH",
"383 786 OFFCURVE",
"366 772 OFFCURVE",
"293 768 CURVE",
"293 687 LINE"
);
}
);
width = 838;
}
);
leftKerningGroup = U;
note = Uhornhookabove;
rightKerningGroup = U;
unicode = 1EEC;
},
{
glyphname = Uhorntilde;
lastChange = "2015-10-24 14:39:47 +0000";
layers = (
{
layerId = "DC28F4C8-A185-470C-BBB7-1A994656B146";
name = Regular;
paths = (
{
closed = 1;
nodes = (
"517 -10 OFFCURVE",
"627 78 OFFCURVE",
"627 242 CURVE SMOOTH",
"627 490 LINE",
"762 492 OFFCURVE",
"820 539 OFFCURVE",
"820 688 CURVE",
"723 688 LINE",
"723 608 OFFCURVE",
"696 582 OFFCURVE",
"627 580 CURVE",
"627 644 LINE",
"492 644 LINE",
"492 252 LINE SMOOTH",
"492 153 OFFCURVE",
"437 105 OFFCURVE",
"340 105 CURVE SMOOTH",
"242 105 OFFCURVE",
"187 153 OFFCURVE",
"187 252 CURVE SMOOTH",
"187 644 LINE",
"52 644 LINE",
"52 242 LINE SMOOTH",
"52 78 OFFCURVE",
"162 -10 OFFCURVE",
"340 -10 CURVE SMOOTH"
);
},
{
closed = 1;
nodes = (
"463 697 OFFCURVE",
"493 711 OFFCURVE",
"506 729 CURVE",
"506 825 LINE",
"489 801 OFFCURVE",
"461 787 OFFCURVE",
"423 787 CURVE SMOOTH",
"367 787 OFFCURVE",
"323 827 OFFCURVE",
"262 827 CURVE SMOOTH",
"227 827 OFFCURVE",
"193 814 OFFCURVE",
"175 796 CURVE",
"175 700 LINE",
"198 725 OFFCURVE",
"228 737 OFFCURVE",
"265 737 CURVE SMOOTH",
"314 737 OFFCURVE",
"367 697 OFFCURVE",
"426 697 CURVE SMOOTH"
);
}
);
width = 838;
}
);
leftKerningGroup = U;
note = Uhorntilde;
rightKerningGroup = U;
unicode = 1EEE;
},
{
glyphname = Uhungarumlaut;
lastChange = "2015-10-24 14:39:47 +0000";
layers = (
{
layerId = "DC28F4C8-A185-470C-BBB7-1A994656B146";
name = Regular;
paths = (
{
closed = 1;
nodes = (
"517 -10 OFFCURVE",
"627 78 OFFCURVE",
"627 242 CURVE SMOOTH",
"627 644 LINE",
"492 644 LINE",
"492 252 LINE SMOOTH",
"492 153 OFFCURVE",
"437 105 OFFCURVE",
"340 105 CURVE SMOOTH",
"242 105 OFFCURVE",
"187 153 OFFCURVE",
"187 252 CURVE SMOOTH",
"187 644 LINE",
"52 644 LINE",
"52 242 LINE SMOOTH",
"52 78 OFFCURVE",
"162 -10 OFFCURVE",
"340 -10 CURVE SMOOTH"
);
},
{
closed = 1;
nodes = (
"257 687 LINE",
"349 863 LINE",
"229 863 LINE",
"150 687 LINE"
);
},
{
closed = 1;
nodes = (
"485 687 LINE",
"577 863 LINE",
"457 863 LINE",
"378 687 LINE"
);
}
);
width = 679;
}
);
leftKerningGroup = U;
note = Uhungarumlaut;
rightKerningGroup = U;
unicode = 0170;
},
{
glyphname = Umacron;
lastChange = "2015-10-24 14:39:48 +0000";
layers = (
{
layerId = "DC28F4C8-A185-470C-BBB7-1A994656B146";
name = Regular;
paths = (
{
closed = 1;
nodes = (
"517 -10 OFFCURVE",
"627 78 OFFCURVE",
"627 242 CURVE SMOOTH",
"627 644 LINE",
"492 644 LINE",
"492 252 LINE SMOOTH",
"492 153 OFFCURVE",
"437 105 OFFCURVE",
"340 105 CURVE SMOOTH",
"242 105 OFFCURVE",
"187 153 OFFCURVE",
"187 252 CURVE SMOOTH",
"187 644 LINE",
"52 644 LINE",
"52 242 LINE SMOOTH",
"52 78 OFFCURVE",
"162 -10 OFFCURVE",
"340 -10 CURVE SMOOTH"
);
},
{
closed = 1;
nodes = (
"494 722 LINE",
"494 805 LINE",
"186 805 LINE",
"186 722 LINE"
);
}
);
width = 679;
}
);
leftKerningGroup = U;
note = Umacron;
rightKerningGroup = U;
unicode = 016A;
},
{
glyphname = Uogonek;
lastChange = "2015-10-24 14:39:48 +0000";
layers = (
{
layerId = "DC28F4C8-A185-470C-BBB7-1A994656B146";
name = Regular;
paths = (
{
closed = 1;
nodes = (
"517 -10 OFFCURVE",
"627 78 OFFCURVE",
"627 242 CURVE SMOOTH",
"627 644 LINE",
"492 644 LINE",
"492 252 LINE SMOOTH",
"492 153 OFFCURVE",
"437 105 OFFCURVE",
"340 105 CURVE SMOOTH",
"242 105 OFFCURVE",
"187 153 OFFCURVE",
"187 252 CURVE SMOOTH",
"187 644 LINE",
"52 644 LINE",
"52 242 LINE SMOOTH",
"52 78 OFFCURVE",
"162 -10 OFFCURVE",
"340 -10 CURVE SMOOTH"
);
},
{
closed = 1;
nodes = (
"405 -220 OFFCURVE",
"439 -214 OFFCURVE",
"457 -206 CURVE",
"457 -130 LINE",
"445 -137 OFFCURVE",
"425 -141 OFFCURVE",
"408 -141 CURVE SMOOTH",
"381 -141 OFFCURVE",
"363 -132 OFFCURVE",
"363 -104 CURVE SMOOTH",
"363 -66 OFFCURVE",
"390 -30 OFFCURVE",
"430 0 CURVE",
"330 0 LINE",
"283 -32 OFFCURVE",
"257 -79 OFFCURVE",
"257 -129 CURVE SMOOTH",
"257 -191 OFFCURVE",
"311 -220 OFFCURVE",
"372 -220 CURVE SMOOTH"
);
}
);
width = 679;
}
);
leftKerningGroup = U;
note = Uogonek;
rightKerningGroup = U;
unicode = 0172;
},
{
glyphname = Uring;
lastChange = "2015-10-24 14:39:47 +0000";
layers = (
{
layerId = "DC28F4C8-A185-470C-BBB7-1A994656B146";
name = Regular;
paths = (
{
closed = 1;
nodes = (
"517 -10 OFFCURVE",
"627 78 OFFCURVE",
"627 242 CURVE SMOOTH",
"627 644 LINE",
"492 644 LINE",
"492 252 LINE SMOOTH",
"492 153 OFFCURVE",
"437 105 OFFCURVE",
"340 105 CURVE SMOOTH",
"242 105 OFFCURVE",
"187 153 OFFCURVE",
"187 252 CURVE SMOOTH",
"187 644 LINE",
"52 644 LINE",
"52 242 LINE SMOOTH",
"52 78 OFFCURVE",
"162 -10 OFFCURVE",
"340 -10 CURVE SMOOTH"
);
},
{
closed = 1;
nodes = (
"417 688 OFFCURVE",
"464 740 OFFCURVE",
"464 807 CURVE SMOOTH",
"464 874 OFFCURVE",
"417 927 OFFCURVE",
"339 927 CURVE SMOOTH",
"263 927 OFFCURVE",
"215 874 OFFCURVE",
"215 807 CURVE SMOOTH",
"215 740 OFFCURVE",
"263 688 OFFCURVE",
"339 688 CURVE SMOOTH"
);
},
{
closed = 1;
nodes = (
"304 750 OFFCURVE",
"281 775 OFFCURVE",
"281 807 CURVE SMOOTH",
"281 839 OFFCURVE",
"304 864 OFFCURVE",
"339 864 CURVE SMOOTH",
"376 864 OFFCURVE",
"398 839 OFFCURVE",
"398 807 CURVE SMOOTH",
"398 775 OFFCURVE",
"376 750 OFFCURVE",
"339 750 CURVE SMOOTH"
);
}
);
width = 679;
}
);
leftKerningGroup = U;
note = Uring;
rightKerningGroup = U;
unicode = 016E;
},
{
glyphname = Utilde;
lastChange = "2015-10-24 14:39:47 +0000";
layers = (
{
layerId = "DC28F4C8-A185-470C-BBB7-1A994656B146";
name = Regular;
paths = (
{
closed = 1;
nodes = (
"517 -10 OFFCURVE",
"627 78 OFFCURVE",
"627 242 CURVE SMOOTH",
"627 644 LINE",
"492 644 LINE",
"492 252 LINE SMOOTH",
"492 153 OFFCURVE",
"437 105 OFFCURVE",
"340 105 CURVE SMOOTH",
"242 105 OFFCURVE",
"187 153 OFFCURVE",
"187 252 CURVE SMOOTH",
"187 644 LINE",
"52 644 LINE",
"52 242 LINE SMOOTH",
"52 78 OFFCURVE",
"162 -10 OFFCURVE",
"340 -10 CURVE SMOOTH"
);
},
{
closed = 1;
nodes = (
"462 700 OFFCURVE",
"492 714 OFFCURVE",
"505 732 CURVE",
"505 828 LINE",
"488 804 OFFCURVE",
"460 790 OFFCURVE",
"422 790 CURVE SMOOTH",
"366 790 OFFCURVE",
"322 830 OFFCURVE",
"261 830 CURVE SMOOTH",
"226 830 OFFCURVE",
"192 817 OFFCURVE",
"174 799 CURVE",
"174 703 LINE",
"197 728 OFFCURVE",
"227 740 OFFCURVE",
"264 740 CURVE SMOOTH",
"313 740 OFFCURVE",
"366 700 OFFCURVE",
"425 700 CURVE SMOOTH"
);
}
);
width = 679;
}
);
leftKerningGroup = U;
note = Utilde;
rightKerningGroup = U;
unicode = 0168;
},
{
glyphname = V;
lastChange = "2015-10-24 14:39:47 +0000";
layers = (
{
layerId = "DC28F4C8-A185-470C-BBB7-1A994656B146";
name = Regular;
paths = (
{
closed = 1;
nodes = (
"431 0 LINE",
"676 644 LINE",
"535 644 LINE",
"356 151 LINE",
"178 644 LINE",
"37 644 LINE",
"283 0 LINE"
);
}
);
width = 713;
}
);
note = V;
unicode = 0056;
},
{
glyphname = W;
lastChange = "2015-10-24 14:39:48 +0000";
layers = (
{
layerId = "DC28F4C8-A185-470C-BBB7-1A994656B146";
name = Regular;
paths = (
{
closed = 1;
nodes = (
"316 0 LINE",
"443 412 LINE",
"561 0 LINE",
"689 0 LINE",
"838 644 LINE",
"706 644 LINE",
"606 208 LINE",
"482 644 LINE",
"372 644 LINE",
"372 560 LINE",
"267 209 LINE",
"170 644 LINE",
"37 644 LINE",
"187 0 LINE"
);
}
);
width = 875;
}
);
leftKerningGroup = W;
note = W;
rightKerningGroup = W;
unicode = 0057;
},
{
glyphname = Wacute;
lastChange = "2015-10-24 14:39:48 +0000";
layers = (
{
layerId = "DC28F4C8-A185-470C-BBB7-1A994656B146";
name = Regular;
paths = (
{
closed = 1;
nodes = (
"316 0 LINE",
"443 412 LINE",
"561 0 LINE",
"689 0 LINE",
"838 644 LINE",
"706 644 LINE",
"606 208 LINE",
"482 644 LINE",
"372 644 LINE",
"372 560 LINE",
"267 209 LINE",
"170 644 LINE",
"37 644 LINE",
"187 0 LINE"
);
},
{
closed = 1;
nodes = (
"485 688 LINE",
"573 875 LINE",
"456 875 LINE",
"376 688 LINE"
);
}
);
width = 875;
}
);
leftKerningGroup = W;
note = Wacute;
rightKerningGroup = W;
unicode = 1E82;
},
{
glyphname = Wcircumflex;
lastChange = "2015-10-24 14:39:48 +0000";
layers = (
{
layerId = "DC28F4C8-A185-470C-BBB7-1A994656B146";
name = Regular;
paths = (
{
closed = 1;
nodes = (
"316 0 LINE",
"443 412 LINE",
"561 0 LINE",
"689 0 LINE",
"838 644 LINE",
"706 644 LINE",
"606 208 LINE",
"482 644 LINE",
"372 644 LINE",
"372 560 LINE",
"267 209 LINE",
"170 644 LINE",
"37 644 LINE",
"187 0 LINE"
);
},
{
closed = 1;
nodes = (
"371 688 LINE",
"443 788 LINE",
"517 688 LINE",
"621 688 LINE",
"486 862 LINE",
"400 862 LINE",
"265 688 LINE"
);
}
);
width = 875;
}
);
leftKerningGroup = W;
note = Wcircumflex;
rightKerningGroup = W;
unicode = 0174;
},
{
glyphname = Wdieresis;
lastChange = "2015-10-24 14:39:48 +0000";
layers = (
{
layerId = "DC28F4C8-A185-470C-BBB7-1A994656B146";
name = Regular;
paths = (
{
closed = 1;
nodes = (
"316 0 LINE",
"443 412 LINE",
"561 0 LINE",
"689 0 LINE",
"838 644 LINE",
"706 644 LINE",
"606 208 LINE",
"482 644 LINE",
"372 644 LINE",
"372 560 LINE",
"267 209 LINE",
"170 644 LINE",
"37 644 LINE",
"187 0 LINE"
);
},
{
closed = 1;
nodes = (
"398 713 LINE",
"398 811 LINE",
"292 811 LINE",
"292 713 LINE"
);
},
{
closed = 1;
nodes = (
"594 713 LINE",
"594 811 LINE",
"488 811 LINE",
"488 713 LINE"
);
}
);
width = 875;
}
);
leftKerningGroup = W;
note = Wdieresis;
rightKerningGroup = W;
unicode = 1E84;
},
{
glyphname = Wgrave;
lastChange = "2015-10-24 14:39:48 +0000";
layers = (
{
layerId = "DC28F4C8-A185-470C-BBB7-1A994656B146";
name = Regular;
paths = (
{
closed = 1;
nodes = (
"316 0 LINE",
"443 412 LINE",
"561 0 LINE",
"689 0 LINE",
"838 644 LINE",
"706 644 LINE",
"606 208 LINE",
"482 644 LINE",
"372 644 LINE",
"372 560 LINE",
"267 209 LINE",
"170 644 LINE",
"37 644 LINE",
"187 0 LINE"
);
},
{
closed = 1;
nodes = (
"486 688 LINE",
"406 875 LINE",
"289 875 LINE",
"377 688 LINE"
);
}
);
width = 875;
}
);
leftKerningGroup = W;
note = Wgrave;
rightKerningGroup = W;
unicode = 1E80;
},
{
glyphname = X;
lastChange = "2015-10-24 14:39:48 +0000";
layers = (
{
layerId = "DC28F4C8-A185-470C-BBB7-1A994656B146";
name = Regular;
paths = (
{
closed = 1;
nodes = (
"198 0 LINE",
"351 215 LINE",
"504 0 LINE",
"665 0 LINE",
"432 323 LINE",
"659 644 LINE",
"500 644 LINE",
"351 429 LINE",
"202 644 LINE",
"43 644 LINE",
"270 323 LINE",
"37 0 LINE"
);
}
);
width = 702;
}
);
note = X;
unicode = 0058;
},
{
glyphname = Y;
lastChange = "2015-10-24 14:39:47 +0000";
layers = (
{
layerId = "DC28F4C8-A185-470C-BBB7-1A994656B146";
name = Regular;
paths = (
{
closed = 1;
nodes = (
"403 0 LINE",
"403 238 LINE",
"634 644 LINE",
"494 644 LINE",
"336 353 LINE",
"178 644 LINE",
"37 644 LINE",
"268 238 LINE",
"268 0 LINE"
);
}
);
width = 671;
}
);
leftKerningGroup = Y;
note = Y;
rightKerningGroup = Y;
unicode = 0059;
},
{
glyphname = Yacute;
lastChange = "2015-10-24 14:39:47 +0000";
layers = (
{
layerId = "DC28F4C8-A185-470C-BBB7-1A994656B146";
name = Regular;
paths = (
{
closed = 1;
nodes = (
"403 0 LINE",
"403 238 LINE",
"634 644 LINE",
"494 644 LINE",
"336 353 LINE",
"178 644 LINE",
"37 644 LINE",
"268 238 LINE",
"268 0 LINE"
);
},
{
closed = 1;
nodes = (
"382 688 LINE",
"470 875 LINE",
"353 875 LINE",
"273 688 LINE"
);
}
);
width = 671;
}
);
leftKerningGroup = Y;
note = Yacute;
rightKerningGroup = Y;
unicode = 00DD;
},
{
glyphname = Ycircumflex;
lastChange = "2015-10-24 14:39:48 +0000";
layers = (
{
layerId = "DC28F4C8-A185-470C-BBB7-1A994656B146";
name = Regular;
paths = (
{
closed = 1;
nodes = (
"403 0 LINE",
"403 238 LINE",
"634 644 LINE",
"494 644 LINE",
"336 353 LINE",
"178 644 LINE",
"37 644 LINE",
"268 238 LINE",
"268 0 LINE"
);
},
{
closed = 1;
nodes = (
"264 688 LINE",
"336 788 LINE",
"410 688 LINE",
"514 688 LINE",
"379 862 LINE",
"293 862 LINE",
"158 688 LINE"
);
}
);
width = 671;
}
);
leftKerningGroup = Y;
note = Ycircumflex;
rightKerningGroup = Y;
unicode = 0176;
},
{
glyphname = Ydieresis;
lastChange = "2015-10-24 14:39:47 +0000";
layers = (
{
layerId = "DC28F4C8-A185-470C-BBB7-1A994656B146";
name = Regular;
paths = (
{
closed = 1;
nodes = (
"403 0 LINE",
"403 238 LINE",
"634 644 LINE",
"494 644 LINE",
"336 353 LINE",
"178 644 LINE",
"37 644 LINE",
"268 238 LINE",
"268 0 LINE"
);
},
{
closed = 1;
nodes = (
"291 713 LINE",
"291 811 LINE",
"185 811 LINE",
"185 713 LINE"
);
},
{
closed = 1;
nodes = (
"487 713 LINE",
"487 811 LINE",
"381 811 LINE",
"381 713 LINE"
);
}
);
width = 671;
}
);
leftKerningGroup = Y;
note = Ydieresis;
rightKerningGroup = Y;
unicode = 0178;
},
{
glyphname = Ydotaccent;
lastChange = "2015-10-24 14:39:48 +0000";
layers = (
{
layerId = "DC28F4C8-A185-470C-BBB7-1A994656B146";
name = Regular;
paths = (
{
closed = 1;
nodes = (
"403 0 LINE",
"403 238 LINE",
"634 644 LINE",
"494 644 LINE",
"336 353 LINE",
"178 644 LINE",
"37 644 LINE",
"268 238 LINE",
"268 0 LINE"
);
},
{
closed = 1;
nodes = (
"388 713 LINE",
"388 811 LINE",
"283 811 LINE",
"283 713 LINE"
);
}
);
width = 671;
}
);
leftKerningGroup = Y;
note = Ydotaccent;
rightKerningGroup = Y;
unicode = 1E8E;
},
{
glyphname = Ydotbelow;
lastChange = "2015-10-24 14:39:48 +0000";
layers = (
{
layerId = "DC28F4C8-A185-470C-BBB7-1A994656B146";
name = Regular;
paths = (
{
closed = 1;
nodes = (
"403 0 LINE",
"403 238 LINE",
"634 644 LINE",
"494 644 LINE",
"336 353 LINE",
"178 644 LINE",
"37 644 LINE",
"268 238 LINE",
"268 0 LINE"
);
},
{
closed = 1;
nodes = (
"389 -171 LINE",
"389 -72 LINE",
"282 -72 LINE",
"282 -171 LINE"
);
}
);
width = 671;
}
);
leftKerningGroup = Y;
note = Ydotbelow;
rightKerningGroup = Y;
unicode = 1EF4;
},
{
glyphname = Ygrave;
lastChange = "2015-10-24 14:39:47 +0000";
layers = (
{
layerId = "DC28F4C8-A185-470C-BBB7-1A994656B146";
name = Regular;
paths = (
{
closed = 1;
nodes = (
"403 0 LINE",
"403 238 LINE",
"634 644 LINE",
"494 644 LINE",
"336 353 LINE",
"178 644 LINE",
"37 644 LINE",
"268 238 LINE",
"268 0 LINE"
);
},
{
closed = 1;
nodes = (
"400 688 LINE",
"320 875 LINE",
"203 875 LINE",
"291 688 LINE"
);
}
);
width = 671;
}
);
leftKerningGroup = Y;
note = Ygrave;
rightKerningGroup = Y;
unicode = 1EF2;
},
{
glyphname = Yhookabove;
lastChange = "2015-10-24 14:39:48 +0000";
layers = (
{
layerId = "DC28F4C8-A185-470C-BBB7-1A994656B146";
name = Regular;
paths = (
{
closed = 1;
nodes = (
"403 0 LINE",
"403 238 LINE",
"634 644 LINE",
"494 644 LINE",
"336 353 LINE",
"178 644 LINE",
"37 644 LINE",
"268 238 LINE",
"268 0 LINE"
);
},
{
closed = 1;
nodes = (
"382 687 LINE",
"382 733 LINE",
"446 745 OFFCURVE",
"469 772 OFFCURVE",
"469 828 CURVE SMOOTH",
"469 886 OFFCURVE",
"423 924 OFFCURVE",
"338 924 CURVE SMOOTH",
"299 924 OFFCURVE",
"262 919 OFFCURVE",
"238 911 CURVE",
"238 844 LINE",
"254 851 OFFCURVE",
"281 855 OFFCURVE",
"300 855 CURVE SMOOTH",
"343 855 OFFCURVE",
"369 843 OFFCURVE",
"369 816 CURVE SMOOTH",
"369 786 OFFCURVE",
"352 772 OFFCURVE",
"279 768 CURVE",
"279 687 LINE"
);
}
);
width = 671;
}
);
leftKerningGroup = Y;
note = Yhookabove;
rightKerningGroup = Y;
unicode = 1EF6;
},
{
glyphname = Ytilde;
lastChange = "2015-10-24 14:39:48 +0000";
layers = (
{
layerId = "DC28F4C8-A185-470C-BBB7-1A994656B146";
name = Regular;
paths = (
{
closed = 1;
nodes = (
"403 0 LINE",
"403 238 LINE",
"634 644 LINE",
"494 644 LINE",
"336 353 LINE",
"178 644 LINE",
"37 644 LINE",
"268 238 LINE",
"268 0 LINE"
);
},
{
closed = 1;
nodes = (
"458 700 OFFCURVE",
"488 714 OFFCURVE",
"501 732 CURVE",
"501 828 LINE",
"484 804 OFFCURVE",
"456 790 OFFCURVE",
"418 790 CURVE SMOOTH",
"362 790 OFFCURVE",
"318 830 OFFCURVE",
"257 830 CURVE SMOOTH",
"222 830 OFFCURVE",
"188 817 OFFCURVE",
"170 799 CURVE",
"170 703 LINE",
"193 728 OFFCURVE",
"223 740 OFFCURVE",
"260 740 CURVE SMOOTH",
"309 740 OFFCURVE",
"362 700 OFFCURVE",
"421 700 CURVE SMOOTH"
);
}
);
width = 671;
}
);
leftKerningGroup = Y;
note = Ytilde;
rightKerningGroup = Y;
unicode = 1EF8;
},
{
glyphname = Z;
lastChange = "2015-10-24 14:39:47 +0000";
layers = (
{
layerId = "DC28F4C8-A185-470C-BBB7-1A994656B146";
name = Regular;
paths = (
{
closed = 1;
nodes = (
"542 0 LINE",
"542 104 LINE",
"216 104 LINE",
"537 562 LINE",
"537 644 LINE",
"53 644 LINE",
"53 532 LINE",
"361 532 LINE",
"37 70 LINE",
"37 0 LINE"
);
}
);
width = 579;
}
);
leftKerningGroup = Z;
note = Z;
rightKerningGroup = Z;
unicode = 005A;
},
{
glyphname = Zacute;
lastChange = "2015-10-24 14:39:49 +0000";
layers = (
{
layerId = "DC28F4C8-A185-470C-BBB7-1A994656B146";
name = Regular;
paths = (
{
closed = 1;
nodes = (
"542 0 LINE",
"542 104 LINE",
"216 104 LINE",
"537 562 LINE",
"537 644 LINE",
"53 644 LINE",
"53 532 LINE",
"361 532 LINE",
"37 70 LINE",
"37 0 LINE"
);
},
{
closed = 1;
nodes = (
"350 688 LINE",
"438 875 LINE",
"321 875 LINE",
"241 688 LINE"
);
}
);
width = 579;
}
);
leftKerningGroup = Z;
note = Zacute;
rightKerningGroup = Z;
unicode = 0179;
},
{
glyphname = Zcaron;
lastChange = "2015-10-24 14:39:48 +0000";
layers = (
{
layerId = "DC28F4C8-A185-470C-BBB7-1A994656B146";
name = Regular;
paths = (
{
closed = 1;
nodes = (
"542 0 LINE",
"542 104 LINE",
"216 104 LINE",
"537 562 LINE",
"537 644 LINE",
"53 644 LINE",
"53 532 LINE",
"361 532 LINE",
"37 70 LINE",
"37 0 LINE"
);
},
{
closed = 1;
nodes = (
"356 688 LINE",
"491 862 LINE",
"387 862 LINE",
"313 762 LINE",
"241 862 LINE",
"135 862 LINE",
"270 688 LINE"
);
}
);
width = 579;
}
);
leftKerningGroup = Z;
note = Zcaron;
rightKerningGroup = Z;
unicode = 017D;
},
{
glyphname = Zdotaccent;
lastChange = "2015-10-24 14:39:48 +0000";
layers = (
{
layerId = "DC28F4C8-A185-470C-BBB7-1A994656B146";
name = Regular;
paths = (
{
closed = 1;
nodes = (
"542 0 LINE",
"542 104 LINE",
"216 104 LINE",
"537 562 LINE",
"537 644 LINE",
"53 644 LINE",
"53 532 LINE",
"361 532 LINE",
"37 70 LINE",
"37 0 LINE"
);
},
{
closed = 1;
nodes = (
"357 713 LINE",
"357 811 LINE",
"252 811 LINE",
"252 713 LINE"
);
}
);
width = 579;
}
);
leftKerningGroup = Z;
note = Zdotaccent;
rightKerningGroup = Z;
unicode = 017B;
},
{
glyphname = Zdotbelow;
lastChange = "2015-10-24 14:39:49 +0000";
layers = (
{
layerId = "DC28F4C8-A185-470C-BBB7-1A994656B146";
name = Regular;
paths = (
{
closed = 1;
nodes = (
"542 0 LINE",
"542 104 LINE",
"216 104 LINE",
"537 562 LINE",
"537 644 LINE",
"53 644 LINE",
"53 532 LINE",
"361 532 LINE",
"37 70 LINE",
"37 0 LINE"
);
},
{
closed = 1;
nodes = (
"363 -181 LINE",
"363 -82 LINE",
"256 -82 LINE",
"256 -181 LINE"
);
}
);
width = 579;
}
);
leftKerningGroup = Z;
note = Zdotbelow;
rightKerningGroup = Z;
unicode = 1E92;
},
{
glyphname = a;
lastChange = "2015-10-24 14:39:47 +0000";
layers = (
{
layerId = "DC28F4C8-A185-470C-BBB7-1A994656B146";
name = Regular;
paths = (
{
closed = 1;
nodes = (
"288 -10 OFFCURVE",
"341 9 OFFCURVE",
"378 43 CURVE",
"385 0 LINE",
"502 0 LINE",
"502 301 LINE SMOOTH",
"502 429 OFFCURVE",
"420 484 OFFCURVE",
"278 484 CURVE SMOOTH",
"203 484 OFFCURVE",
"138 471 OFFCURVE",
"94 454 CURVE",
"94 359 LINE",
"142 375 OFFCURVE",
"197 384 OFFCURVE",
"250 384 CURVE SMOOTH",
"348 384 OFFCURVE",
"373 362 OFFCURVE",
"373 304 CURVE SMOOTH",
"373 291 LINE",
"233 291 LINE SMOOTH",
"103 291 OFFCURVE",
"37 230 OFFCURVE",
"37 137 CURVE SMOOTH",
"37 39 OFFCURVE",
"115 -10 OFFCURVE",
"206 -10 CURVE SMOOTH"
);
},
{
closed = 1;
nodes = (
"184 79 OFFCURVE",
"157 102 OFFCURVE",
"157 142 CURVE SMOOTH",
"157 186 OFFCURVE",
"183 207 OFFCURVE",
"236 207 CURVE SMOOTH",
"373 207 LINE",
"373 132 LINE",
"347 101 OFFCURVE",
"303 79 OFFCURVE",
"243 79 CURVE SMOOTH"
);
}
);
width = 554;
}
);
leftKerningGroup = a;
note = a;
rightKerningGroup = a;
unicode = 0061;
},
{
glyphname = aacute;
lastChange = "2015-10-24 14:39:47 +0000";
layers = (
{
layerId = "DC28F4C8-A185-470C-BBB7-1A994656B146";
name = Regular;
paths = (
{
closed = 1;
nodes = (
"288 -10 OFFCURVE",
"341 9 OFFCURVE",
"378 43 CURVE",
"385 0 LINE",
"502 0 LINE",
"502 301 LINE SMOOTH",
"502 429 OFFCURVE",
"420 484 OFFCURVE",
"278 484 CURVE SMOOTH",
"203 484 OFFCURVE",
"138 471 OFFCURVE",
"94 454 CURVE",
"94 359 LINE",
"142 375 OFFCURVE",
"197 384 OFFCURVE",
"250 384 CURVE SMOOTH",
"348 384 OFFCURVE",
"373 362 OFFCURVE",
"373 304 CURVE SMOOTH",
"373 291 LINE",
"233 291 LINE SMOOTH",
"103 291 OFFCURVE",
"37 230 OFFCURVE",
"37 137 CURVE SMOOTH",
"37 39 OFFCURVE",
"115 -10 OFFCURVE",
"206 -10 CURVE SMOOTH"
);
},
{
closed = 1;
nodes = (
"184 79 OFFCURVE",
"157 102 OFFCURVE",
"157 142 CURVE SMOOTH",
"157 186 OFFCURVE",
"183 207 OFFCURVE",
"236 207 CURVE SMOOTH",
"373 207 LINE",
"373 132 LINE",
"347 101 OFFCURVE",
"303 79 OFFCURVE",
"243 79 CURVE SMOOTH"
);
},
{
closed = 1;
nodes = (
"338 522 LINE",
"426 709 LINE",
"309 709 LINE",
"229 522 LINE"
);
}
);
width = 554;
}
);
leftKerningGroup = a;
note = aacute;
rightKerningGroup = a;
unicode = 00E1;
},
{
glyphname = abreve;
lastChange = "2015-10-24 14:39:47 +0000";
layers = (
{
layerId = "DC28F4C8-A185-470C-BBB7-1A994656B146";
name = Regular;
paths = (
{
closed = 1;
nodes = (
"288 -10 OFFCURVE",
"341 9 OFFCURVE",
"378 43 CURVE",
"385 0 LINE",
"502 0 LINE",
"502 301 LINE SMOOTH",
"502 429 OFFCURVE",
"420 484 OFFCURVE",
"278 484 CURVE SMOOTH",
"203 484 OFFCURVE",
"138 471 OFFCURVE",
"94 454 CURVE",
"94 359 LINE",
"142 375 OFFCURVE",
"197 384 OFFCURVE",
"250 384 CURVE SMOOTH",
"348 384 OFFCURVE",
"373 362 OFFCURVE",
"373 304 CURVE SMOOTH",
"373 291 LINE",
"233 291 LINE SMOOTH",
"103 291 OFFCURVE",
"37 230 OFFCURVE",
"37 137 CURVE SMOOTH",
"37 39 OFFCURVE",
"115 -10 OFFCURVE",
"206 -10 CURVE SMOOTH"
);
},
{
closed = 1;
nodes = (
"184 79 OFFCURVE",
"157 102 OFFCURVE",
"157 142 CURVE SMOOTH",
"157 186 OFFCURVE",
"183 207 OFFCURVE",
"236 207 CURVE SMOOTH",
"373 207 LINE",
"373 132 LINE",
"347 101 OFFCURVE",
"303 79 OFFCURVE",
"243 79 CURVE SMOOTH"
);
},
{
closed = 1;
nodes = (
"394 522 OFFCURVE",
"459 581 OFFCURVE",
"459 679 CURVE",
"369 679 LINE",
"369 637 OFFCURVE",
"346 600 OFFCURVE",
"300 600 CURVE SMOOTH",
"255 600 OFFCURVE",
"233 637 OFFCURVE",
"233 679 CURVE",
"143 679 LINE",
"143 581 OFFCURVE",
"207 522 OFFCURVE",
"300 522 CURVE SMOOTH"
);
}
);
width = 554;
}
);
leftKerningGroup = a;
note = abreve;
rightKerningGroup = a;
unicode = 0103;
},
{
glyphname = abreveacute;
lastChange = "2015-10-24 14:39:48 +0000";
layers = (
{
layerId = "DC28F4C8-A185-470C-BBB7-1A994656B146";
name = Regular;
paths = (
{
closed = 1;
nodes = (
"288 -10 OFFCURVE",
"341 9 OFFCURVE",
"378 43 CURVE",
"385 0 LINE",
"502 0 LINE",
"502 301 LINE SMOOTH",
"502 429 OFFCURVE",
"420 484 OFFCURVE",
"278 484 CURVE SMOOTH",
"203 484 OFFCURVE",
"138 471 OFFCURVE",
"94 454 CURVE",
"94 359 LINE",
"142 375 OFFCURVE",
"197 384 OFFCURVE",
"250 384 CURVE SMOOTH",
"348 384 OFFCURVE",
"373 362 OFFCURVE",
"373 304 CURVE SMOOTH",
"373 291 LINE",
"233 291 LINE SMOOTH",
"103 291 OFFCURVE",
"37 230 OFFCURVE",
"37 137 CURVE SMOOTH",
"37 39 OFFCURVE",
"115 -10 OFFCURVE",
"206 -10 CURVE SMOOTH"
);
},
{
closed = 1;
nodes = (
"184 79 OFFCURVE",
"157 102 OFFCURVE",
"157 142 CURVE SMOOTH",
"157 186 OFFCURVE",
"183 207 OFFCURVE",
"236 207 CURVE SMOOTH",
"373 207 LINE",
"373 132 LINE",
"347 101 OFFCURVE",
"303 79 OFFCURVE",
"243 79 CURVE SMOOTH"
);
},
{
closed = 1;
nodes = (
"392 522 OFFCURVE",
"463 567 OFFCURVE",
"463 678 CURVE",
"383 678 LINE",
"383 623 OFFCURVE",
"352 593 OFFCURVE",
"299 593 CURVE SMOOTH",
"245 593 OFFCURVE",
"214 623 OFFCURVE",
"214 678 CURVE",
"134 678 LINE",
"134 567 OFFCURVE",
"205 522 OFFCURVE",
"299 522 CURVE SMOOTH"
);
},
{
closed = 1;
nodes = (
"339 652 LINE",
"412 793 LINE",
"310 793 LINE",
"244 652 LINE"
);
}
);
width = 554;
}
);
leftKerningGroup = a;
note = abreveacute;
rightKerningGroup = a;
unicode = 1EAF;
},
{
glyphname = abrevedotbelow;
lastChange = "2015-10-24 14:39:48 +0000";
layers = (
{
layerId = "DC28F4C8-A185-470C-BBB7-1A994656B146";
name = Regular;
paths = (
{
closed = 1;
nodes = (
"288 -10 OFFCURVE",
"341 9 OFFCURVE",
"378 43 CURVE",
"385 0 LINE",
"502 0 LINE",
"502 301 LINE SMOOTH",
"502 429 OFFCURVE",
"420 484 OFFCURVE",
"278 484 CURVE SMOOTH",
"203 484 OFFCURVE",
"138 471 OFFCURVE",
"94 454 CURVE",
"94 359 LINE",
"142 375 OFFCURVE",
"197 384 OFFCURVE",
"250 384 CURVE SMOOTH",
"348 384 OFFCURVE",
"373 362 OFFCURVE",
"373 304 CURVE SMOOTH",
"373 291 LINE",
"233 291 LINE SMOOTH",
"103 291 OFFCURVE",
"37 230 OFFCURVE",
"37 137 CURVE SMOOTH",
"37 39 OFFCURVE",
"115 -10 OFFCURVE",
"206 -10 CURVE SMOOTH"
);
},
{
closed = 1;
nodes = (
"355 -181 LINE",
"355 -82 LINE",
"248 -82 LINE",
"248 -181 LINE"
);
},
{
closed = 1;
nodes = (
"184 79 OFFCURVE",
"157 102 OFFCURVE",
"157 142 CURVE SMOOTH",
"157 186 OFFCURVE",
"183 207 OFFCURVE",
"236 207 CURVE SMOOTH",
"373 207 LINE",
"373 132 LINE",
"347 101 OFFCURVE",
"303 79 OFFCURVE",
"243 79 CURVE SMOOTH"
);
},
{
closed = 1;
nodes = (
"394 522 OFFCURVE",
"459 581 OFFCURVE",
"459 679 CURVE",
"369 679 LINE",
"369 637 OFFCURVE",
"346 600 OFFCURVE",
"300 600 CURVE SMOOTH",
"255 600 OFFCURVE",
"233 637 OFFCURVE",
"233 679 CURVE",
"143 679 LINE",
"143 581 OFFCURVE",
"207 522 OFFCURVE",
"300 522 CURVE SMOOTH"
);
}
);
width = 554;
}
);
leftKerningGroup = a;
note = abrevedotbelow;
rightKerningGroup = a;
unicode = 1EB7;
},
{
glyphname = abrevegrave;
lastChange = "2015-10-24 14:39:48 +0000";
layers = (
{
layerId = "DC28F4C8-A185-470C-BBB7-1A994656B146";
name = Regular;
paths = (
{
closed = 1;
nodes = (
"288 -10 OFFCURVE",
"341 9 OFFCURVE",
"378 43 CURVE",
"385 0 LINE",
"502 0 LINE",
"502 301 LINE SMOOTH",
"502 429 OFFCURVE",
"420 484 OFFCURVE",
"278 484 CURVE SMOOTH",
"203 484 OFFCURVE",
"138 471 OFFCURVE",
"94 454 CURVE",
"94 359 LINE",
"142 375 OFFCURVE",
"197 384 OFFCURVE",
"250 384 CURVE SMOOTH",
"348 384 OFFCURVE",
"373 362 OFFCURVE",
"373 304 CURVE SMOOTH",
"373 291 LINE",
"233 291 LINE SMOOTH",
"103 291 OFFCURVE",
"37 230 OFFCURVE",
"37 137 CURVE SMOOTH",
"37 39 OFFCURVE",
"115 -10 OFFCURVE",
"206 -10 CURVE SMOOTH"
);
},
{
closed = 1;
nodes = (
"184 79 OFFCURVE",
"157 102 OFFCURVE",
"157 142 CURVE SMOOTH",
"157 186 OFFCURVE",
"183 207 OFFCURVE",
"236 207 CURVE SMOOTH",
"373 207 LINE",
"373 132 LINE",
"347 101 OFFCURVE",
"303 79 OFFCURVE",
"243 79 CURVE SMOOTH"
);
},
{
closed = 1;
nodes = (
"388 522 OFFCURVE",
"459 567 OFFCURVE",
"459 678 CURVE",
"379 678 LINE",
"379 623 OFFCURVE",
"348 593 OFFCURVE",
"294 593 CURVE SMOOTH",
"241 593 OFFCURVE",
"210 623 OFFCURVE",
"210 678 CURVE",
"130 678 LINE",
"130 567 OFFCURVE",
"201 522 OFFCURVE",
"294 522 CURVE SMOOTH"
);
},
{
closed = 1;
nodes = (
"349 652 LINE",
"283 793 LINE",
"181 793 LINE",
"254 652 LINE"
);
}
);
width = 554;
}
);
leftKerningGroup = a;
note = abrevegrave;
rightKerningGroup = a;
unicode = 1EB1;
},
{
glyphname = abrevehookabove;
lastChange = "2015-10-24 14:39:47 +0000";
layers = (
{
layerId = "DC28F4C8-A185-470C-BBB7-1A994656B146";
name = Regular;
paths = (
{
closed = 1;
nodes = (
"288 -10 OFFCURVE",
"341 9 OFFCURVE",
"378 43 CURVE",
"385 0 LINE",
"502 0 LINE",
"502 301 LINE SMOOTH",
"502 429 OFFCURVE",
"420 484 OFFCURVE",
"278 484 CURVE SMOOTH",
"203 484 OFFCURVE",
"138 471 OFFCURVE",
"94 454 CURVE",
"94 359 LINE",
"142 375 OFFCURVE",
"197 384 OFFCURVE",
"250 384 CURVE SMOOTH",
"348 384 OFFCURVE",
"373 362 OFFCURVE",
"373 304 CURVE SMOOTH",
"373 291 LINE",
"233 291 LINE SMOOTH",
"103 291 OFFCURVE",
"37 230 OFFCURVE",
"37 137 CURVE SMOOTH",
"37 39 OFFCURVE",
"115 -10 OFFCURVE",
"206 -10 CURVE SMOOTH"
);
},
{
closed = 1;
nodes = (
"184 79 OFFCURVE",
"157 102 OFFCURVE",
"157 142 CURVE SMOOTH",
"157 186 OFFCURVE",
"183 207 OFFCURVE",
"236 207 CURVE SMOOTH",
"373 207 LINE",
"373 132 LINE",
"347 101 OFFCURVE",
"303 79 OFFCURVE",
"243 79 CURVE SMOOTH"
);
},
{
closed = 1;
nodes = (
"394 522 OFFCURVE",
"465 567 OFFCURVE",
"465 678 CURVE",
"385 678 LINE",
"385 623 OFFCURVE",
"354 593 OFFCURVE",
"301 593 CURVE SMOOTH",
"247 593 OFFCURVE",
"216 623 OFFCURVE",
"216 678 CURVE",
"136 678 LINE",
"136 567 OFFCURVE",
"207 522 OFFCURVE",
"301 522 CURVE SMOOTH"
);
},
{
closed = 1;
nodes = (
"343 661 LINE",
"343 693 LINE",
"398 704 OFFCURVE",
"419 727 OFFCURVE",
"419 771 CURVE SMOOTH",
"419 819 OFFCURVE",
"381 851 OFFCURVE",
"314 851 CURVE SMOOTH",
"281 851 OFFCURVE",
"248 846 OFFCURVE",
"226 839 CURVE",
"226 782 LINE",
"242 789 OFFCURVE",
"260 794 OFFCURVE",
"280 794 CURVE SMOOTH",
"314 794 OFFCURVE",
"330 787 OFFCURVE",
"330 762 CURVE SMOOTH",
"330 738 OFFCURVE",
"312 724 OFFCURVE",
"251 721 CURVE",
"251 661 LINE"
);
}
);
width = 554;
}
);
leftKerningGroup = a;
note = abrevehookabove;
rightKerningGroup = a;
unicode = 1EB3;
},
{
glyphname = abrevetilde;
lastChange = "2015-10-24 14:39:48 +0000";
layers = (
{
layerId = "DC28F4C8-A185-470C-BBB7-1A994656B146";
name = Regular;
paths = (
{
closed = 1;
nodes = (
"288 -10 OFFCURVE",
"341 9 OFFCURVE",
"378 43 CURVE",
"385 0 LINE",
"502 0 LINE",
"502 301 LINE SMOOTH",
"502 429 OFFCURVE",
"420 484 OFFCURVE",
"278 484 CURVE SMOOTH",
"203 484 OFFCURVE",
"138 471 OFFCURVE",
"94 454 CURVE",
"94 359 LINE",
"142 375 OFFCURVE",
"197 384 OFFCURVE",
"250 384 CURVE SMOOTH",
"348 384 OFFCURVE",
"373 362 OFFCURVE",
"373 304 CURVE SMOOTH",
"373 291 LINE",
"233 291 LINE SMOOTH",
"103 291 OFFCURVE",
"37 230 OFFCURVE",
"37 137 CURVE SMOOTH",
"37 39 OFFCURVE",
"115 -10 OFFCURVE",
"206 -10 CURVE SMOOTH"
);
},
{
closed = 1;
nodes = (
"184 79 OFFCURVE",
"157 102 OFFCURVE",
"157 142 CURVE SMOOTH",
"157 186 OFFCURVE",
"183 207 OFFCURVE",
"236 207 CURVE SMOOTH",
"373 207 LINE",
"373 132 LINE",
"347 101 OFFCURVE",
"303 79 OFFCURVE",
"243 79 CURVE SMOOTH"
);
},
{
closed = 1;
nodes = (
"400 522 OFFCURVE",
"471 567 OFFCURVE",
"471 678 CURVE",
"391 678 LINE",
"391 623 OFFCURVE",
"360 593 OFFCURVE",
"307 593 CURVE SMOOTH",
"253 593 OFFCURVE",
"222 623 OFFCURVE",
"222 678 CURVE",
"142 678 LINE",
"142 567 OFFCURVE",
"213 522 OFFCURVE",
"307 522 CURVE SMOOTH"
);
},
{
closed = 1;
nodes = (
"430 699 OFFCURVE",
"460 713 OFFCURVE",
"473 731 CURVE",
"473 817 LINE",
"456 793 OFFCURVE",
"428 779 OFFCURVE",
"390 779 CURVE SMOOTH",
"334 779 OFFCURVE",
"290 819 OFFCURVE",
"229 819 CURVE SMOOTH",
"194 819 OFFCURVE",
"160 806 OFFCURVE",
"142 788 CURVE",
"142 702 LINE",
"165 727 OFFCURVE",
"195 739 OFFCURVE",
"232 739 CURVE SMOOTH",
"281 739 OFFCURVE",
"334 699 OFFCURVE",
"393 699 CURVE SMOOTH"
);
}
);
width = 554;
}
);
leftKerningGroup = a;
note = abrevetilde;
rightKerningGroup = a;
unicode = 1EB5;
},
{
glyphname = acaron;
lastChange = "2015-10-24 14:39:47 +0000";
layers = (
{
layerId = "DC28F4C8-A185-470C-BBB7-1A994656B146";
name = Regular;
paths = (
{
closed = 1;
nodes = (
"288 -10 OFFCURVE",
"341 9 OFFCURVE",
"378 43 CURVE",
"385 0 LINE",
"502 0 LINE",
"502 301 LINE SMOOTH",
"502 429 OFFCURVE",
"420 484 OFFCURVE",
"278 484 CURVE SMOOTH",
"203 484 OFFCURVE",
"138 471 OFFCURVE",
"94 454 CURVE",
"94 359 LINE",
"142 375 OFFCURVE",
"197 384 OFFCURVE",
"250 384 CURVE SMOOTH",
"348 384 OFFCURVE",
"373 362 OFFCURVE",
"373 304 CURVE SMOOTH",
"373 291 LINE",
"233 291 LINE SMOOTH",
"103 291 OFFCURVE",
"37 230 OFFCURVE",
"37 137 CURVE SMOOTH",
"37 39 OFFCURVE",
"115 -10 OFFCURVE",
"206 -10 CURVE SMOOTH"
);
},
{
closed = 1;
nodes = (
"184 79 OFFCURVE",
"157 102 OFFCURVE",
"157 142 CURVE SMOOTH",
"157 186 OFFCURVE",
"183 207 OFFCURVE",
"236 207 CURVE SMOOTH",
"373 207 LINE",
"373 132 LINE",
"347 101 OFFCURVE",
"303 79 OFFCURVE",
"243 79 CURVE SMOOTH"
);
},
{
closed = 1;
nodes = (
"330 522 LINE",
"465 696 LINE",
"361 696 LINE",
"287 596 LINE",
"215 696 LINE",
"109 696 LINE",
"244 522 LINE"
);
}
);
width = 554;
}
);
leftKerningGroup = a;
note = acaron;
rightKerningGroup = a;
unicode = 01CE;
},
{
glyphname = acircumflex;
lastChange = "2015-10-24 14:39:48 +0000";
layers = (
{
layerId = "DC28F4C8-A185-470C-BBB7-1A994656B146";
name = Regular;
paths = (
{
closed = 1;
nodes = (
"296 -10 OFFCURVE",
"349 9 OFFCURVE",
"386 43 CURVE",
"393 0 LINE",
"510 0 LINE",
"510 301 LINE SMOOTH",
"510 429 OFFCURVE",
"428 484 OFFCURVE",
"286 484 CURVE SMOOTH",
"211 484 OFFCURVE",
"146 471 OFFCURVE",
"102 454 CURVE",
"102 359 LINE",
"150 375 OFFCURVE",
"205 384 OFFCURVE",
"258 384 CURVE SMOOTH",
"356 384 OFFCURVE",
"381 362 OFFCURVE",
"381 304 CURVE SMOOTH",
"381 291 LINE",
"241 291 LINE SMOOTH",
"111 291 OFFCURVE",
"45 230 OFFCURVE",
"45 137 CURVE SMOOTH",
"45 39 OFFCURVE",
"123 -10 OFFCURVE",
"214 -10 CURVE SMOOTH"
);
},
{
closed = 1;
nodes = (
"192 79 OFFCURVE",
"165 102 OFFCURVE",
"165 142 CURVE SMOOTH",
"165 186 OFFCURVE",
"191 207 OFFCURVE",
"244 207 CURVE SMOOTH",
"381 207 LINE",
"381 132 LINE",
"355 101 OFFCURVE",
"311 79 OFFCURVE",
"251 79 CURVE SMOOTH"
);
},
{
closed = 1;
nodes = (
"225 522 LINE",
"297 622 LINE",
"371 522 LINE",
"475 522 LINE",
"340 696 LINE",
"254 696 LINE",
"119 522 LINE"
);
}
);
width = 562;
}
);
leftKerningGroup = a;
note = acircumflex;
rightKerningGroup = a;
unicode = 00E2;
},
{
glyphname = acircumflexacute;
lastChange = "2015-10-24 14:39:47 +0000";
layers = (
{
layerId = "DC28F4C8-A185-470C-BBB7-1A994656B146";
name = Regular;
paths = (
{
closed = 1;
nodes = (
"288 -10 OFFCURVE",
"341 9 OFFCURVE",
"378 43 CURVE",
"385 0 LINE",
"502 0 LINE",
"502 301 LINE SMOOTH",
"502 429 OFFCURVE",
"420 484 OFFCURVE",
"278 484 CURVE SMOOTH",
"203 484 OFFCURVE",
"138 471 OFFCURVE",
"94 454 CURVE",
"94 359 LINE",
"142 375 OFFCURVE",
"197 384 OFFCURVE",
"250 384 CURVE SMOOTH",
"348 384 OFFCURVE",
"373 362 OFFCURVE",
"373 304 CURVE SMOOTH",
"373 291 LINE",
"233 291 LINE SMOOTH",
"103 291 OFFCURVE",
"37 230 OFFCURVE",
"37 137 CURVE SMOOTH",
"37 39 OFFCURVE",
"115 -10 OFFCURVE",
"206 -10 CURVE SMOOTH"
);
},
{
closed = 1;
nodes = (
"184 79 OFFCURVE",
"157 102 OFFCURVE",
"157 142 CURVE SMOOTH",
"157 186 OFFCURVE",
"183 207 OFFCURVE",
"236 207 CURVE SMOOTH",
"373 207 LINE",
"373 132 LINE",
"347 101 OFFCURVE",
"303 79 OFFCURVE",
"243 79 CURVE SMOOTH"
);
},
{
closed = 1;
nodes = (
"229 521 LINE",
"296 602 LINE",
"364 521 LINE",
"473 521 LINE",
"347 656 LINE",
"244 656 LINE",
"118 521 LINE"
);
},
{
closed = 1;
nodes = (
"492 638 LINE",
"565 779 LINE",
"463 779 LINE",
"397 638 LINE"
);
}
);
width = 554;
}
);
leftKerningGroup = a;
note = acircumflexacute;
rightKerningGroup = a;
unicode = 1EA5;
},
{
glyphname = acircumflexdotbelow;
lastChange = "2015-10-24 14:39:48 +0000";
layers = (
{
layerId = "DC28F4C8-A185-470C-BBB7-1A994656B146";
name = Regular;
paths = (
{
closed = 1;
nodes = (
"288 -10 OFFCURVE",
"341 9 OFFCURVE",
"378 43 CURVE",
"385 0 LINE",
"502 0 LINE",
"502 301 LINE SMOOTH",
"502 429 OFFCURVE",
"420 484 OFFCURVE",
"278 484 CURVE SMOOTH",
"203 484 OFFCURVE",
"138 471 OFFCURVE",
"94 454 CURVE",
"94 359 LINE",
"142 375 OFFCURVE",
"197 384 OFFCURVE",
"250 384 CURVE SMOOTH",
"348 384 OFFCURVE",
"373 362 OFFCURVE",
"373 304 CURVE SMOOTH",
"373 291 LINE",
"233 291 LINE SMOOTH",
"103 291 OFFCURVE",
"37 230 OFFCURVE",
"37 137 CURVE SMOOTH",
"37 39 OFFCURVE",
"115 -10 OFFCURVE",
"206 -10 CURVE SMOOTH"
);
},
{
closed = 1;
nodes = (
"346 -181 LINE",
"346 -82 LINE",
"239 -82 LINE",
"239 -181 LINE"
);
},
{
closed = 1;
nodes = (
"184 79 OFFCURVE",
"157 102 OFFCURVE",
"157 142 CURVE SMOOTH",
"157 186 OFFCURVE",
"183 207 OFFCURVE",
"236 207 CURVE SMOOTH",
"373 207 LINE",
"373 132 LINE",
"347 101 OFFCURVE",
"303 79 OFFCURVE",
"243 79 CURVE SMOOTH"
);
},
{
closed = 1;
nodes = (
"220 522 LINE",
"292 622 LINE",
"366 522 LINE",
"470 522 LINE",
"335 696 LINE",
"249 696 LINE",
"114 522 LINE"
);
}
);
width = 554;
}
);
leftKerningGroup = a;
note = acircumflexdotbelow;
rightKerningGroup = a;
unicode = 1EAD;
},
{
glyphname = acircumflexgrave;
lastChange = "2015-10-24 14:39:48 +0000";
layers = (
{
layerId = "DC28F4C8-A185-470C-BBB7-1A994656B146";
name = Regular;
paths = (
{
closed = 1;
nodes = (
"288 -10 OFFCURVE",
"341 9 OFFCURVE",
"378 43 CURVE",
"385 0 LINE",
"502 0 LINE",
"502 301 LINE SMOOTH",
"502 429 OFFCURVE",
"420 484 OFFCURVE",
"278 484 CURVE SMOOTH",
"203 484 OFFCURVE",
"138 471 OFFCURVE",
"94 454 CURVE",
"94 359 LINE",
"142 375 OFFCURVE",
"197 384 OFFCURVE",
"250 384 CURVE SMOOTH",
"348 384 OFFCURVE",
"373 362 OFFCURVE",
"373 304 CURVE SMOOTH",
"373 291 LINE",
"233 291 LINE SMOOTH",
"103 291 OFFCURVE",
"37 230 OFFCURVE",
"37 137 CURVE SMOOTH",
"37 39 OFFCURVE",
"115 -10 OFFCURVE",
"206 -10 CURVE SMOOTH"
);
},
{
closed = 1;
nodes = (
"184 79 OFFCURVE",
"157 102 OFFCURVE",
"157 142 CURVE SMOOTH",
"157 186 OFFCURVE",
"183 207 OFFCURVE",
"236 207 CURVE SMOOTH",
"373 207 LINE",
"373 132 LINE",
"347 101 OFFCURVE",
"303 79 OFFCURVE",
"243 79 CURVE SMOOTH"
);
},
{
closed = 1;
nodes = (
"187 638 LINE",
"121 779 LINE",
"19 779 LINE",
"92 638 LINE"
);
},
{
closed = 1;
nodes = (
"220 521 LINE",
"288 602 LINE",
"355 521 LINE",
"466 521 LINE",
"340 656 LINE",
"237 656 LINE",
"111 521 LINE"
);
}
);
width = 554;
}
);
leftKerningGroup = a;
note = acircumflexgrave;
rightKerningGroup = a;
unicode = 1EA7;
},
{
glyphname = acircumflexhookabove;
lastChange = "2015-10-24 14:39:48 +0000";
layers = (
{
layerId = "DC28F4C8-A185-470C-BBB7-1A994656B146";
name = Regular;
paths = (
{
closed = 1;
nodes = (
"288 -10 OFFCURVE",
"341 9 OFFCURVE",
"378 43 CURVE",
"385 0 LINE",
"502 0 LINE",
"502 301 LINE SMOOTH",
"502 429 OFFCURVE",
"420 484 OFFCURVE",
"278 484 CURVE SMOOTH",
"203 484 OFFCURVE",
"138 471 OFFCURVE",
"94 454 CURVE",
"94 359 LINE",
"142 375 OFFCURVE",
"197 384 OFFCURVE",
"250 384 CURVE SMOOTH",
"348 384 OFFCURVE",
"373 362 OFFCURVE",
"373 304 CURVE SMOOTH",
"373 291 LINE",
"233 291 LINE SMOOTH",
"103 291 OFFCURVE",
"37 230 OFFCURVE",
"37 137 CURVE SMOOTH",
"37 39 OFFCURVE",
"115 -10 OFFCURVE",
"206 -10 CURVE SMOOTH"
);
},
{
closed = 1;
nodes = (
"184 79 OFFCURVE",
"157 102 OFFCURVE",
"157 142 CURVE SMOOTH",
"157 186 OFFCURVE",
"183 207 OFFCURVE",
"236 207 CURVE SMOOTH",
"373 207 LINE",
"373 132 LINE",
"347 101 OFFCURVE",
"303 79 OFFCURVE",
"243 79 CURVE SMOOTH"
);
},
{
closed = 1;
nodes = (
"221 521 LINE",
"288 602 LINE",
"356 521 LINE",
"465 521 LINE",
"339 656 LINE",
"236 656 LINE",
"110 521 LINE"
);
},
{
closed = 1;
nodes = (
"491 616 LINE",
"491 650 LINE",
"544 658 OFFCURVE",
"567 685 OFFCURVE",
"567 729 CURVE SMOOTH",
"567 777 OFFCURVE",
"527 810 OFFCURVE",
"457 810 CURVE SMOOTH",
"420 810 OFFCURVE",
"395 805 OFFCURVE",
"374 798 CURVE",
"374 736 LINE",
"389 743 OFFCURVE",
"407 748 OFFCURVE",
"428 748 CURVE SMOOTH",
"458 748 OFFCURVE",
"473 741 OFFCURVE",
"473 721 CURVE SMOOTH",
"473 699 OFFCURVE",
"460 689 OFFCURVE",
"398 686 CURVE",
"398 616 LINE"
);
}
);
width = 561;
}
);
leftKerningGroup = a;
note = acircumflexhookabove;
rightKerningGroup = a;
unicode = 1EA9;
},
{
glyphname = acircumflextilde;
lastChange = "2015-10-24 14:39:48 +0000";
layers = (
{
layerId = "DC28F4C8-A185-470C-BBB7-1A994656B146";
name = Regular;
paths = (
{
closed = 1;
nodes = (
"288 -10 OFFCURVE",
"341 9 OFFCURVE",
"378 43 CURVE",
"385 0 LINE",
"502 0 LINE",
"502 301 LINE SMOOTH",
"502 429 OFFCURVE",
"420 484 OFFCURVE",
"278 484 CURVE SMOOTH",
"203 484 OFFCURVE",
"138 471 OFFCURVE",
"94 454 CURVE",
"94 359 LINE",
"142 375 OFFCURVE",
"197 384 OFFCURVE",
"250 384 CURVE SMOOTH",
"348 384 OFFCURVE",
"373 362 OFFCURVE",
"373 304 CURVE SMOOTH",
"373 291 LINE",
"233 291 LINE SMOOTH",
"103 291 OFFCURVE",
"37 230 OFFCURVE",
"37 137 CURVE SMOOTH",
"37 39 OFFCURVE",
"115 -10 OFFCURVE",
"206 -10 CURVE SMOOTH"
);
},
{
closed = 1;
nodes = (
"184 79 OFFCURVE",
"157 102 OFFCURVE",
"157 142 CURVE SMOOTH",
"157 186 OFFCURVE",
"183 207 OFFCURVE",
"236 207 CURVE SMOOTH",
"373 207 LINE",
"373 132 LINE",
"347 101 OFFCURVE",
"303 79 OFFCURVE",
"243 79 CURVE SMOOTH"
);
},
{
closed = 1;
nodes = (
"223 521 LINE",
"290 602 LINE",
"358 521 LINE",
"467 521 LINE",
"341 656 LINE",
"238 656 LINE",
"112 521 LINE"
);
},
{
closed = 1;
nodes = (
"421 671 OFFCURVE",
"451 685 OFFCURVE",
"464 703 CURVE",
"464 789 LINE",
"447 765 OFFCURVE",
"419 751 OFFCURVE",
"381 751 CURVE SMOOTH",
"325 751 OFFCURVE",
"281 791 OFFCURVE",
"220 791 CURVE SMOOTH",
"185 791 OFFCURVE",
"151 778 OFFCURVE",
"133 760 CURVE",
"133 674 LINE",
"156 699 OFFCURVE",
"186 711 OFFCURVE",
"223 711 CURVE SMOOTH",
"272 711 OFFCURVE",
"325 671 OFFCURVE",
"384 671 CURVE SMOOTH"
);
}
);
width = 554;
}
);
leftKerningGroup = a;
note = acircumflextilde;
rightKerningGroup = a;
unicode = 1EAB;
},
{
glyphname = adieresis;
lastChange = "2015-10-24 14:39:47 +0000";
layers = (
{
layerId = "DC28F4C8-A185-470C-BBB7-1A994656B146";
name = Regular;
paths = (
{
closed = 1;
nodes = (
"288 -10 OFFCURVE",
"341 9 OFFCURVE",
"378 43 CURVE",
"385 0 LINE",
"502 0 LINE",
"502 301 LINE SMOOTH",
"502 429 OFFCURVE",
"420 484 OFFCURVE",
"278 484 CURVE SMOOTH",
"203 484 OFFCURVE",
"138 471 OFFCURVE",
"94 454 CURVE",
"94 359 LINE",
"142 375 OFFCURVE",
"197 384 OFFCURVE",
"250 384 CURVE SMOOTH",
"348 384 OFFCURVE",
"373 362 OFFCURVE",
"373 304 CURVE SMOOTH",
"373 291 LINE",
"233 291 LINE SMOOTH",
"103 291 OFFCURVE",
"37 230 OFFCURVE",
"37 137 CURVE SMOOTH",
"37 39 OFFCURVE",
"115 -10 OFFCURVE",
"206 -10 CURVE SMOOTH"
);
},
{
closed = 1;
nodes = (
"184 79 OFFCURVE",
"157 102 OFFCURVE",
"157 142 CURVE SMOOTH",
"157 186 OFFCURVE",
"183 207 OFFCURVE",
"236 207 CURVE SMOOTH",
"373 207 LINE",
"373 132 LINE",
"347 101 OFFCURVE",
"303 79 OFFCURVE",
"243 79 CURVE SMOOTH"
);
},
{
closed = 1;
nodes = (
"252 547 LINE",
"252 645 LINE",
"146 645 LINE",
"146 547 LINE"
);
},
{
closed = 1;
nodes = (
"448 547 LINE",
"448 645 LINE",
"342 645 LINE",
"342 547 LINE"
);
}
);
width = 554;
}
);
leftKerningGroup = a;
note = adieresis;
rightKerningGroup = a;
unicode = 00E4;
},
{
glyphname = adotbelow;
lastChange = "2015-10-24 14:39:47 +0000";
layers = (
{
layerId = "DC28F4C8-A185-470C-BBB7-1A994656B146";
name = Regular;
paths = (
{
closed = 1;
nodes = (
"288 -10 OFFCURVE",
"341 9 OFFCURVE",
"378 43 CURVE",
"385 0 LINE",
"502 0 LINE",
"502 301 LINE SMOOTH",
"502 429 OFFCURVE",
"420 484 OFFCURVE",
"278 484 CURVE SMOOTH",
"203 484 OFFCURVE",
"138 471 OFFCURVE",
"94 454 CURVE",
"94 359 LINE",
"142 375 OFFCURVE",
"197 384 OFFCURVE",
"250 384 CURVE SMOOTH",
"348 384 OFFCURVE",
"373 362 OFFCURVE",
"373 304 CURVE SMOOTH",
"373 291 LINE",
"233 291 LINE SMOOTH",
"103 291 OFFCURVE",
"37 230 OFFCURVE",
"37 137 CURVE SMOOTH",
"37 39 OFFCURVE",
"115 -10 OFFCURVE",
"206 -10 CURVE SMOOTH"
);
},
{
closed = 1;
nodes = (
"352 -181 LINE",
"352 -82 LINE",
"245 -82 LINE",
"245 -181 LINE"
);
},
{
closed = 1;
nodes = (
"184 79 OFFCURVE",
"157 102 OFFCURVE",
"157 142 CURVE SMOOTH",
"157 186 OFFCURVE",
"183 207 OFFCURVE",
"236 207 CURVE SMOOTH",
"373 207 LINE",
"373 132 LINE",
"347 101 OFFCURVE",
"303 79 OFFCURVE",
"243 79 CURVE SMOOTH"
);
}
);
width = 554;
}
);
leftKerningGroup = a;
note = adotbelow;
rightKerningGroup = a;
unicode = 1EA1;
},
{
glyphname = agrave;
lastChange = "2015-10-24 14:39:48 +0000";
layers = (
{
layerId = "DC28F4C8-A185-470C-BBB7-1A994656B146";
name = Regular;
paths = (
{
closed = 1;
nodes = (
"288 -10 OFFCURVE",
"341 9 OFFCURVE",
"378 43 CURVE",
"385 0 LINE",
"502 0 LINE",
"502 301 LINE SMOOTH",
"502 429 OFFCURVE",
"420 484 OFFCURVE",
"278 484 CURVE SMOOTH",
"203 484 OFFCURVE",
"138 471 OFFCURVE",
"94 454 CURVE",
"94 359 LINE",
"142 375 OFFCURVE",
"197 384 OFFCURVE",
"250 384 CURVE SMOOTH",
"348 384 OFFCURVE",
"373 362 OFFCURVE",
"373 304 CURVE SMOOTH",
"373 291 LINE",
"233 291 LINE SMOOTH",
"103 291 OFFCURVE",
"37 230 OFFCURVE",
"37 137 CURVE SMOOTH",
"37 39 OFFCURVE",
"115 -10 OFFCURVE",
"206 -10 CURVE SMOOTH"
);
},
{
closed = 1;
nodes = (
"184 79 OFFCURVE",
"157 102 OFFCURVE",
"157 142 CURVE SMOOTH",
"157 186 OFFCURVE",
"183 207 OFFCURVE",
"236 207 CURVE SMOOTH",
"373 207 LINE",
"373 132 LINE",
"347 101 OFFCURVE",
"303 79 OFFCURVE",
"243 79 CURVE SMOOTH"
);
},
{
closed = 1;
nodes = (
"351 522 LINE",
"271 709 LINE",
"154 709 LINE",
"242 522 LINE"
);
}
);
width = 554;
}
);
leftKerningGroup = a;
note = agrave;
rightKerningGroup = a;
unicode = 00E0;
},
{
glyphname = ahookabove;
lastChange = "2015-10-24 14:39:47 +0000";
layers = (
{
layerId = "DC28F4C8-A185-470C-BBB7-1A994656B146";
name = Regular;
paths = (
{
closed = 1;
nodes = (
"288 -10 OFFCURVE",
"341 9 OFFCURVE",
"378 43 CURVE",
"385 0 LINE",
"502 0 LINE",
"502 301 LINE SMOOTH",
"502 429 OFFCURVE",
"420 484 OFFCURVE",
"278 484 CURVE SMOOTH",
"203 484 OFFCURVE",
"138 471 OFFCURVE",
"94 454 CURVE",
"94 359 LINE",
"142 375 OFFCURVE",
"197 384 OFFCURVE",
"250 384 CURVE SMOOTH",
"348 384 OFFCURVE",
"373 362 OFFCURVE",
"373 304 CURVE SMOOTH",
"373 291 LINE",
"233 291 LINE SMOOTH",
"103 291 OFFCURVE",
"37 230 OFFCURVE",
"37 137 CURVE SMOOTH",
"37 39 OFFCURVE",
"115 -10 OFFCURVE",
"206 -10 CURVE SMOOTH"
);
},
{
closed = 1;
nodes = (
"184 79 OFFCURVE",
"157 102 OFFCURVE",
"157 142 CURVE SMOOTH",
"157 186 OFFCURVE",
"183 207 OFFCURVE",
"236 207 CURVE SMOOTH",
"373 207 LINE",
"373 132 LINE",
"347 101 OFFCURVE",
"303 79 OFFCURVE",
"243 79 CURVE SMOOTH"
);
},
{
closed = 1;
nodes = (
"333 521 LINE",
"333 567 LINE",
"397 579 OFFCURVE",
"420 606 OFFCURVE",
"420 662 CURVE SMOOTH",
"420 720 OFFCURVE",
"374 758 OFFCURVE",
"289 758 CURVE SMOOTH",
"250 758 OFFCURVE",
"213 753 OFFCURVE",
"189 745 CURVE",
"189 678 LINE",
"205 685 OFFCURVE",
"232 689 OFFCURVE",
"251 689 CURVE SMOOTH",
"294 689 OFFCURVE",
"320 677 OFFCURVE",
"320 650 CURVE SMOOTH",
"320 620 OFFCURVE",
"303 606 OFFCURVE",
"230 602 CURVE",
"230 521 LINE"
);
}
);
width = 554;
}
);
leftKerningGroup = a;
note = ahookabove;
rightKerningGroup = a;
unicode = 1EA3;
},
{
glyphname = "alpha-latin";
lastChange = "2015-10-24 14:39:47 +0000";
layers = (
{
layerId = "DC28F4C8-A185-470C-BBB7-1A994656B146";
name = Regular;
paths = (
{
closed = 1;
nodes = (
"321 -10 OFFCURVE",
"368 8 OFFCURVE",
"409 44 CURVE",
"417 0 LINE",
"533 0 LINE",
"533 474 LINE",
"398 474 LINE",
"398 443 LINE",
"359 474 OFFCURVE",
"320 484 OFFCURVE",
"267 484 CURVE SMOOTH",
"143 484 OFFCURVE",
"37 383 OFFCURVE",
"37 214 CURVE SMOOTH",
"37 51 OFFCURVE",
"129 -10 OFFCURVE",
"255 -10 CURVE SMOOTH"
);
},
{
closed = 1;
nodes = (
"217 89 OFFCURVE",
"174 116 OFFCURVE",
"174 214 CURVE SMOOTH",
"174 326 OFFCURVE",
"218 385 OFFCURVE",
"302 385 CURVE SMOOTH",
"341 385 OFFCURVE",
"371 371 OFFCURVE",
"398 343 CURVE",
"398 132 LINE",
"368 102 OFFCURVE",
"336 89 OFFCURVE",
"292 89 CURVE SMOOTH"
);
}
);
width = 591;
}
);
leftKerningGroup = a;
note = ascript;
rightKerningGroup = a;
unicode = 0251;
},
{
glyphname = amacron;
lastChange = "2015-10-24 14:39:48 +0000";
layers = (
{
layerId = "DC28F4C8-A185-470C-BBB7-1A994656B146";
name = Regular;
paths = (
{
closed = 1;
nodes = (
"288 -10 OFFCURVE",
"341 9 OFFCURVE",
"378 43 CURVE",
"385 0 LINE",
"502 0 LINE",
"502 301 LINE SMOOTH",
"502 429 OFFCURVE",
"420 484 OFFCURVE",
"278 484 CURVE SMOOTH",
"203 484 OFFCURVE",
"138 471 OFFCURVE",
"94 454 CURVE",
"94 359 LINE",
"142 375 OFFCURVE",
"197 384 OFFCURVE",
"250 384 CURVE SMOOTH",
"348 384 OFFCURVE",
"373 362 OFFCURVE",
"373 304 CURVE SMOOTH",
"373 291 LINE",
"233 291 LINE SMOOTH",
"103 291 OFFCURVE",
"37 230 OFFCURVE",
"37 137 CURVE SMOOTH",
"37 39 OFFCURVE",
"115 -10 OFFCURVE",
"206 -10 CURVE SMOOTH"
);
},
{
closed = 1;
nodes = (
"184 79 OFFCURVE",
"157 102 OFFCURVE",
"157 142 CURVE SMOOTH",
"157 186 OFFCURVE",
"183 207 OFFCURVE",
"236 207 CURVE SMOOTH",
"373 207 LINE",
"373 132 LINE",
"347 101 OFFCURVE",
"303 79 OFFCURVE",
"243 79 CURVE SMOOTH"
);
},
{
closed = 1;
nodes = (
"453 541 LINE",
"453 624 LINE",
"145 624 LINE",
"145 541 LINE"
);
}
);
width = 554;
}
);
leftKerningGroup = a;
note = amacron;
rightKerningGroup = a;
unicode = 0101;
},
{
glyphname = aogonek;
lastChange = "2015-10-24 14:39:47 +0000";
layers = (
{
layerId = "DC28F4C8-A185-470C-BBB7-1A994656B146";
name = Regular;
paths = (
{
closed = 1;
nodes = (
"288 -10 OFFCURVE",
"341 9 OFFCURVE",
"378 43 CURVE",
"385 0 LINE",
"502 0 LINE",
"502 301 LINE SMOOTH",
"502 429 OFFCURVE",
"420 484 OFFCURVE",
"278 484 CURVE SMOOTH",
"203 484 OFFCURVE",
"138 471 OFFCURVE",
"94 454 CURVE",
"94 359 LINE",
"142 375 OFFCURVE",
"197 384 OFFCURVE",
"250 384 CURVE SMOOTH",
"348 384 OFFCURVE",
"373 362 OFFCURVE",
"373 304 CURVE SMOOTH",
"373 291 LINE",
"233 291 LINE SMOOTH",
"103 291 OFFCURVE",
"37 230 OFFCURVE",
"37 137 CURVE SMOOTH",
"37 39 OFFCURVE",
"115 -10 OFFCURVE",
"206 -10 CURVE SMOOTH"
);
},
{
closed = 1;
nodes = (
"460 -220 OFFCURVE",
"494 -214 OFFCURVE",
"512 -206 CURVE",
"512 -130 LINE",
"500 -137 OFFCURVE",
"480 -141 OFFCURVE",
"463 -141 CURVE SMOOTH",
"436 -141 OFFCURVE",
"418 -132 OFFCURVE",
"418 -104 CURVE SMOOTH",
"418 -66 OFFCURVE",
"445 -30 OFFCURVE",
"485 0 CURVE",
"385 0 LINE",
"338 -32 OFFCURVE",
"312 -79 OFFCURVE",
"312 -129 CURVE SMOOTH",
"312 -191 OFFCURVE",
"366 -220 OFFCURVE",
"427 -220 CURVE SMOOTH"
);
},
{
closed = 1;
nodes = (
"184 79 OFFCURVE",
"157 102 OFFCURVE",
"157 142 CURVE SMOOTH",
"157 186 OFFCURVE",
"183 207 OFFCURVE",
"236 207 CURVE SMOOTH",
"373 207 LINE",
"373 132 LINE",
"347 101 OFFCURVE",
"303 79 OFFCURVE",
"243 79 CURVE SMOOTH"
);
}
);
width = 554;
}
);
leftKerningGroup = a;
note = aogonek;
rightKerningGroup = a;
unicode = 0105;
},
{
glyphname = aring;
lastChange = "2015-10-24 14:39:47 +0000";
layers = (
{
layerId = "DC28F4C8-A185-470C-BBB7-1A994656B146";
name = Regular;
paths = (
{
closed = 1;
nodes = (
"288 -10 OFFCURVE",
"341 9 OFFCURVE",
"378 43 CURVE",
"385 0 LINE",
"502 0 LINE",
"502 301 LINE SMOOTH",
"502 429 OFFCURVE",
"420 484 OFFCURVE",
"278 484 CURVE SMOOTH",
"203 484 OFFCURVE",
"138 471 OFFCURVE",
"94 454 CURVE",
"94 359 LINE",
"142 375 OFFCURVE",
"197 384 OFFCURVE",
"250 384 CURVE SMOOTH",
"348 384 OFFCURVE",
"373 362 OFFCURVE",
"373 304 CURVE SMOOTH",
"373 291 LINE",
"233 291 LINE SMOOTH",
"103 291 OFFCURVE",
"37 230 OFFCURVE",
"37 137 CURVE SMOOTH",
"37 39 OFFCURVE",
"115 -10 OFFCURVE",
"206 -10 CURVE SMOOTH"
);
},
{
closed = 1;
nodes = (
"184 79 OFFCURVE",
"157 102 OFFCURVE",
"157 142 CURVE SMOOTH",
"157 186 OFFCURVE",
"183 207 OFFCURVE",
"236 207 CURVE SMOOTH",
"373 207 LINE",
"373 132 LINE",
"347 101 OFFCURVE",
"303 79 OFFCURVE",
"243 79 CURVE SMOOTH"
);
},
{
closed = 1;
nodes = (
"379 522 OFFCURVE",
"426 574 OFFCURVE",
"426 641 CURVE SMOOTH",
"426 708 OFFCURVE",
"379 761 OFFCURVE",
"301 761 CURVE SMOOTH",
"225 761 OFFCURVE",
"177 708 OFFCURVE",
"177 641 CURVE SMOOTH",
"177 574 OFFCURVE",
"225 522 OFFCURVE",
"301 522 CURVE SMOOTH"
);
},
{
closed = 1;
nodes = (
"266 584 OFFCURVE",
"243 609 OFFCURVE",
"243 641 CURVE SMOOTH",
"243 673 OFFCURVE",
"266 698 OFFCURVE",
"301 698 CURVE SMOOTH",
"338 698 OFFCURVE",
"360 673 OFFCURVE",
"360 641 CURVE SMOOTH",
"360 609 OFFCURVE",
"338 584 OFFCURVE",
"301 584 CURVE SMOOTH"
);
}
);
width = 554;
}
);
leftKerningGroup = a;
note = aring;
rightKerningGroup = a;
unicode = 00E5;
},
{
glyphname = aringacute;
lastChange = "2015-10-24 14:39:48 +0000";
layers = (
{
layerId = "DC28F4C8-A185-470C-BBB7-1A994656B146";
name = Regular;
paths = (
{
closed = 1;
nodes = (
"288 -10 OFFCURVE",
"341 9 OFFCURVE",
"378 43 CURVE",
"385 0 LINE",
"502 0 LINE",
"502 301 LINE SMOOTH",
"502 429 OFFCURVE",
"420 484 OFFCURVE",
"278 484 CURVE SMOOTH",
"203 484 OFFCURVE",
"138 471 OFFCURVE",
"94 454 CURVE",
"94 359 LINE",
"142 375 OFFCURVE",
"197 384 OFFCURVE",
"250 384 CURVE SMOOTH",
"348 384 OFFCURVE",
"373 362 OFFCURVE",
"373 304 CURVE SMOOTH",
"373 291 LINE",
"233 291 LINE SMOOTH",
"103 291 OFFCURVE",
"37 230 OFFCURVE",
"37 137 CURVE SMOOTH",
"37 39 OFFCURVE",
"115 -10 OFFCURVE",
"206 -10 CURVE SMOOTH"
);
},
{
closed = 1;
nodes = (
"184 79 OFFCURVE",
"157 102 OFFCURVE",
"157 142 CURVE SMOOTH",
"157 186 OFFCURVE",
"183 207 OFFCURVE",
"236 207 CURVE SMOOTH",
"373 207 LINE",
"373 132 LINE",
"347 101 OFFCURVE",
"303 79 OFFCURVE",
"243 79 CURVE SMOOTH"
);
},
{
closed = 1;
nodes = (
"369 517 OFFCURVE",
"416 569 OFFCURVE",
"416 636 CURVE SMOOTH",
"416 703 OFFCURVE",
"369 756 OFFCURVE",
"291 756 CURVE SMOOTH",
"215 756 OFFCURVE",
"167 703 OFFCURVE",
"167 636 CURVE SMOOTH",
"167 569 OFFCURVE",
"215 517 OFFCURVE",
"291 517 CURVE SMOOTH"
);
},
{
closed = 1;
nodes = (
"256 579 OFFCURVE",
"233 604 OFFCURVE",
"233 636 CURVE SMOOTH",
"233 668 OFFCURVE",
"256 693 OFFCURVE",
"291 693 CURVE SMOOTH",
"328 693 OFFCURVE",
"350 668 OFFCURVE",
"350 636 CURVE SMOOTH",
"350 604 OFFCURVE",
"328 579 OFFCURVE",
"291 579 CURVE SMOOTH"
);
},
{
closed = 1;
nodes = (
"341 786 LINE",
"429 935 LINE",
"312 935 LINE",
"232 786 LINE"
);
}
);
width = 554;
}
);
leftKerningGroup = a;
note = aringacute;
rightKerningGroup = a;
unicode = 01FB;
},
{
glyphname = atilde;
lastChange = "2015-10-24 14:39:47 +0000";
layers = (
{
layerId = "DC28F4C8-A185-470C-BBB7-1A994656B146";
name = Regular;
paths = (
{
closed = 1;
nodes = (
"288 -10 OFFCURVE",
"341 9 OFFCURVE",
"378 43 CURVE",
"385 0 LINE",
"502 0 LINE",
"502 301 LINE SMOOTH",
"502 429 OFFCURVE",
"420 484 OFFCURVE",
"278 484 CURVE SMOOTH",
"203 484 OFFCURVE",
"138 471 OFFCURVE",
"94 454 CURVE",
"94 359 LINE",
"142 375 OFFCURVE",
"197 384 OFFCURVE",
"250 384 CURVE SMOOTH",
"348 384 OFFCURVE",
"373 362 OFFCURVE",
"373 304 CURVE SMOOTH",
"373 291 LINE",
"233 291 LINE SMOOTH",
"103 291 OFFCURVE",
"37 230 OFFCURVE",
"37 137 CURVE SMOOTH",
"37 39 OFFCURVE",
"115 -10 OFFCURVE",
"206 -10 CURVE SMOOTH"
);
},
{
closed = 1;
nodes = (
"184 79 OFFCURVE",
"157 102 OFFCURVE",
"157 142 CURVE SMOOTH",
"157 186 OFFCURVE",
"183 207 OFFCURVE",
"236 207 CURVE SMOOTH",
"373 207 LINE",
"373 132 LINE",
"347 101 OFFCURVE",
"303 79 OFFCURVE",
"243 79 CURVE SMOOTH"
);
},
{
closed = 1;
nodes = (
"420 534 OFFCURVE",
"450 548 OFFCURVE",
"463 566 CURVE",
"463 662 LINE",
"446 638 OFFCURVE",
"418 624 OFFCURVE",
"380 624 CURVE SMOOTH",
"324 624 OFFCURVE",
"280 664 OFFCURVE",
"219 664 CURVE SMOOTH",
"184 664 OFFCURVE",
"150 651 OFFCURVE",
"132 633 CURVE",
"132 537 LINE",
"155 562 OFFCURVE",
"185 574 OFFCURVE",
"222 574 CURVE SMOOTH",
"271 574 OFFCURVE",
"324 534 OFFCURVE",
"383 534 CURVE SMOOTH"
);
}
);
width = 554;
}
);
leftKerningGroup = a;
note = atilde;
rightKerningGroup = a;
unicode = 00E3;
},
{
glyphname = ae;
lastChange = "2015-10-24 14:39:47 +0000";
layers = (
{
layerId = "DC28F4C8-A185-470C-BBB7-1A994656B146";
name = Regular;
paths = (
{
closed = 1;
nodes = (
"333 -10 OFFCURVE",
"391 17 OFFCURVE",
"450 67 CURVE",
"490 16 OFFCURVE",
"572 -10 OFFCURVE",
"644 -10 CURVE SMOOTH",
"713 -10 OFFCURVE",
"773 0 OFFCURVE",
"817 20 CURVE",
"817 113 LINE",
"780 98 OFFCURVE",
"722 88 OFFCURVE",
"672 88 CURVE SMOOTH",
"571 88 OFFCURVE",
"516 114 OFFCURVE",
"502 190 CURVE",
"845 190 LINE",
"845 276 LINE SMOOTH",
"845 400 OFFCURVE",
"765 484 OFFCURVE",
"618 484 CURVE SMOOTH",
"548 484 OFFCURVE",
"489 466 OFFCURVE",
"450 432 CURVE",
"412 468 OFFCURVE",
"355 484 OFFCURVE",
"278 484 CURVE SMOOTH",
"203 484 OFFCURVE",
"138 471 OFFCURVE",
"94 454 CURVE",
"94 359 LINE",
"142 375 OFFCURVE",
"197 384 OFFCURVE",
"250 384 CURVE SMOOTH",
"348 384 OFFCURVE",
"373 362 OFFCURVE",
"373 304 CURVE SMOOTH",
"373 291 LINE",
"233 291 LINE SMOOTH",
"103 291 OFFCURVE",
"37 230 OFFCURVE",
"37 137 CURVE SMOOTH",
"37 39 OFFCURVE",
"119 -10 OFFCURVE",
"218 -10 CURVE SMOOTH"
);
},
{
closed = 1;
nodes = (
"184 79 OFFCURVE",
"157 102 OFFCURVE",
"157 142 CURVE SMOOTH",
"157 186 OFFCURVE",
"183 207 OFFCURVE",
"236 207 CURVE SMOOTH",
"373 207 LINE",
"373 128 LINE",
"344 98 OFFCURVE",
"303 79 OFFCURVE",
"243 79 CURVE SMOOTH"
);
},
{
closed = 1;
nodes = (
"502 353 OFFCURVE",
"533 387 OFFCURVE",
"622 387 CURVE SMOOTH",
"698 387 OFFCURVE",
"727 353 OFFCURVE",
"727 299 CURVE SMOOTH",
"727 273 LINE",
"502 273 LINE"
);
}
);
width = 882;
}
);
leftKerningGroup = a;
note = ae;
rightKerningGroup = e;
unicode = 00E6;
},
